<?xml version="1.0" standalone="no"?>
<!DOCTYPE svg PUBLIC "-//W3C//DTD SVG 1.1//EN" "http://www.w3.org/Graphics/SVG/1.1/DTD/svg11.dtd" >
<svg xmlns="http://www.w3.org/2000/svg" xmlns:xlink="http://www.w3.org/1999/xlink" version="1.1">
<metadata>
Created by FontForge 20170731 at Mon Oct 10 19:03:00 2022
 By Aleksey,,,
(c) 1995, 2000 Adobe Systems Incorporated. All rights reserved.
</metadata>
<defs>
<font id="AJensonPro-Regular" horiz-adv-x="675" >
  <font-face 
    font-family="Adobe Jenson Pro"
    font-weight="400"
    font-stretch="normal"
    units-per-em="2048"
    panose-1="2 10 5 3 5 2 1 3 2 3"
    ascent="1475"
    descent="-573"
    x-height="793"
    cap-height="1333"
    bbox="-348 -594 2647.56 1800"
    underline-thickness="102"
    underline-position="-307"
    unicode-range="U+0020-FB04"
  />
<missing-glyph horiz-adv-x="1024" 
d="M0 0v1434h1024v-1434h-1024zM512 809l348 522h-696zM573 717l349 -522v1044zM164 102h696l-348 523zM102 1239v-1044l349 522z" />
    <glyph glyph-name="T_h" unicode="Th" horiz-adv-x="2269" 
d="M637 602v207q0 444 -10 444h-166q-88 0 -158.5 -9t-100 -18t-40.5 -16q-17 -11 -30 -39t-38 -102q0 -3 -6 -4t-12 2q-35 22 -51 43q59 116 116 303q11 3 39 -4q17 -5 19 -14q0 -52 18 -60q24 -6 94 -6q61 -2 330 -2q409 0 694 12q53 2 181 91q18 7 28 -3q4 -8 4 -22
q0 -53 -3 -184t-3 -207v-301q0 -5 4.5 -10.5t7.5 -2.5q17 6 103 44.5t115 48.5q61 20 112 20q66 0 112 -26t70 -74.5t33.5 -103t9.5 -124.5q0 -22 -3 -139.5t-3 -191.5q0 -52 13.5 -67t74.5 -32q13 -3 17 -5.5t4 -8.5v-31q0 -9 -2.5 -11.5t-11.5 -2.5h-146q-69 0 -207 -12
q-6 0 -8 4t-2 22q-4 27 4 33q2 2 24.5 10.5t32.5 14.5q28 14 38 29t14 53q8 72 8 231q0 130 -20 188.5t-58 89.5q-52 39 -123 39q-94 0 -192 -55q-25 -11 -25 -63v-220q0 -143 12 -223q5 -38 22.5 -50t84.5 -21q6 0 8.5 -8.5t3.5 -39.5q0 -12 -2 -15t-8 -3q-275 0 -365 -14
q-16 -3 -18 4l-12 33q-5 12 4 18q33 15 47 21.5t30.5 21.5t21 26t9.5 40t5.5 57t0.5 84v817q0 81 -19.5 104t-94.5 29q-156 12 -291 12h-133q-26 0 -29 -55q0 -7 -1.5 -54t-3 -140t-1.5 -213v-205q0 -355 14 -420q10 -57 45 -74q49 -27 156 -37q9 0 11.5 -1.5t0.5 -6.5
l-8 -41q-3 -12 -18 -12q-3 0 -112.5 3t-168.5 3q-47 0 -114 -2t-117 -4t-54 -2q-23 0 -26 16l-6 45q18 2 61 8.5t57 8.5q42 6 62 20.5t26 46.5q19 147 19 465z" />
    <glyph glyph-name="f_f_j" unicode="ffj" horiz-adv-x="1529" 
d="M475 41l-14 -45q-7 0 -48.5 1t-103 2t-116.5 1h-146q-3 0 -8 28t-2 31q80 9 106.5 22.5t30.5 51.5q6 67 6 252q0 258 -2 274q-3 11 -18.5 17.5t-63.5 17.5q-10 3 -12 8l-14 33q19 11 49.5 26t47.5 24.5t17 13.5q0 151 23 232t84 147q40 46 105.5 89t125.5 66
q76 27 135 27q60 0 118 -22t97 -58q47 53 170 119q71 39 148 43q104 0 180 -72q16 -13 16 -37t-14 -43q-13 -17 -37.5 -36t-40.5 -19q-14 0 -37 14q-102 80 -174 80q-68 0 -118 -57q-53 -58 -72 -168.5t-19 -302.5q0 -8 10 -14.5t29 -6.5h203q203 0 287 35q2 1 5 -1
t5.5 -7.5t1.5 -11.5q-14 -164 -14 -451v-420q0 -98 -17 -151.5t-57 -104.5q-47 -61 -130 -121t-142 -82q-43 -12 -78 -12q-25 0 -62 12t-45 29q-17 34 -2 55q12 15 43.5 46t40.5 32q18 0 31 -8q11 -3 36 -13.5t45.5 -18t31.5 -7.5q42 0 71 23q27 24 42.5 53.5t19.5 83.5
q20 205 20 459v170q0 187 -4.5 237.5t-17.5 67.5q-23 20 -103 20h-209q-23 0 -30.5 -8.5t-10.5 -34.5q-4 -54 -4 -227q0 -203 7 -274q1 -25 4 -35.5t8 -21t24 -15.5t40.5 -9.5t68.5 -11.5q1 -19 -5.5 -40t-12.5 -21q-18 0 -57.5 1t-61.5 1h-111q-42 0 -98.5 -3t-69.5 -3
q-2 2 -2 14.5t3.5 27t8.5 15.5q54 15 72.5 29.5t22.5 46.5q8 66 8 219v324q0 17 -8.5 21.5t-44.5 4.5h-273q-46 0 -51 -8q-12 -48 -12 -283q0 -70 6 -274q0 -45 35 -51l96 -23q12 -3 8 -14zM365 780h335q6 0 12.5 8t6.5 21q0 123 11 203t50 149q-31 52 -94 80.5t-121 28.5
q-71 0 -119 -45q-60 -50 -84 -153.5t-24 -272.5q0 -7 8 -13t19 -6z" />
    <glyph glyph-name="f_j" unicode="fj" horiz-adv-x="987" 
d="M393 780h180q205 0 283 31q11 5 15 1.5t3 -17.5q-14 -200 -14 -433v-436q0 -97 -17 -150t-57 -104q-47 -61 -129.5 -120.5t-142.5 -81.5q-44 -13 -78 -13q-24 0 -60 12t-46 29q-17 35 -2 56q10 14 42 44t42 33q14 0 32 -6q1 0 32 -14t50 -20.5t31 -6.5q41 0 70 23
q28 23 43.5 53t19.5 86q19 253 19 455v118q0 215 -4 278t-17 79q-18 18 -94 18l-219 -2q-23 0 -30.5 -7.5t-8.5 -35.5q-4 -27 -4 -225q0 -109 6 -250q1 -27 2 -39.5t7.5 -26.5t12.5 -18.5t26.5 -11t39.5 -9.5t59 -8q1 -10 -6 -34.5t-12 -24.5q-4 0 -28 -1t-42 -1h-143
q-34 0 -95 -2t-73 -2q-4 0 -4.5 29t2.5 30q46 11 60 20t20 34q12 59 14 157q3 86 4 228.5t-2 187.5l-57 8q-8 3 -11 4.5t-8 8.5t-10 20q3 3 16.5 14t31.5 24.5t26 20.5q18 15 18 33q2 161 23.5 248.5t79.5 161.5q87 107 227 176q75 37 127 37q56 0 106.5 -21t75.5 -53
q23 -23 23 -43q0 -15 -17 -43q-11 -13 -37.5 -28t-39.5 -15q-12 0 -35 14q-38 34 -84.5 58t-87.5 24q-66 0 -115 -57q-92 -102 -92 -473q0 -21 53 -21z" />
    <glyph glyph-name="longs_h" unicode="&#x17f;h" horiz-adv-x="1593" 
d="M698 287v940q0 34 -20 57q-57 51 -143 51q-61 0 -109 -45q-85 -79 -88 -393l-4 -688q0 -84 5 -107.5t21 -25.5q10 -1 50 0l41 2q8 0 11 -8t3 -33q0 -26 -4 -31.5t-17 -5.5q-19 0 -52 0.5t-67 0.5t-77 -1q-26 0 -102 -5t-87 -5q-9 0 -11 2.5t-1 11.5q4 22 7.5 33.5t6 14
t7.5 5.5q32 7 46.5 11t30.5 17.5t20.5 25t9 46t5 66.5t0.5 101v315q0 27 -9 35.5t-44 11.5l-59 2q-4 0 -10 8t-5 13l17 30q12 21 22 23q70 18 88 20v115q0 134 25.5 220t99.5 157q104 96 211 137q69 27 115 27q22 0 59 -12.5t64 -26.5q45 25 80 45q16 10 28 -2q6 -8 6 -21
q0 -63 -3 -198t-3 -209v-301q0 -5 4 -9.5t8 -1.5q16 6 103.5 43.5t116.5 47.5q68 22 116 22q228 0 228 -328q0 -32 -3.5 -148.5t-4.5 -176.5q0 -16 1.5 -27.5t3 -20t9 -15.5t11.5 -11.5t18 -10t21.5 -8.5t29.5 -10q17 -12 18 -16v-33q0 -9 -3 -11.5t-15 -2.5h-146
q-58 0 -131.5 -5t-75.5 -5q-6 0 -8 4t-2 22q-4 28 4 33q3 2 12.5 5.5t24 9t21.5 8.5q27 13 36.5 29t14.5 53q8 70 8 231q0 130 -20 189.5t-58 88.5q-52 39 -123 39q-98 0 -200 -59q-13 -7 -19 -18.5t-6 -40.5v-220q0 -127 14 -223q6 -33 26.5 -45t78.5 -22q6 -2 8.5 -10
t5.5 -42q-1 -12 -3.5 -15t-8.5 -3h-52.5h-51h-44t-45 -0.5t-38.5 -1.5t-39.5 -2t-34.5 -2.5t-36 -4t-32 -5.5q-14 -3 -16 4l-13 28q-10 19 5 23q35 15 49 21.5t31.5 21.5t21.5 25t10 39t6 57v84z" />
    <glyph glyph-name="longs_i" unicode="&#x17f;i" horiz-adv-x="1003" 
d="M340 776l-6 -565q-1 -83 3.5 -107t22.5 -24q8 0 53 4t52 4q6 0 9 -3t5 -14.5t2 -33.5q0 -27 -4.5 -32t-23.5 -5h-207q-26 0 -103 -5t-88 -5q-9 0 -11 3t-1 13q6 32 10.5 40.5t14.5 10.5q24 6 36.5 9.5t27 12t20 14t13 22.5t9 30t4 43.5t2.5 57v76.5v317q0 27 -9 35.5
t-44 11.5l-59 2q-5 0 -10.5 7.5t-2.5 13.5l15 30q12 21 22 23q70 18 88 20v109q0 135 25.5 220.5t103.5 156.5q106 98 234 147q71 25 127 25q36 0 83.5 -20t63.5 -46q10 -20 10 -37q0 -14 -16 -37.5t-35 -39.5q-17 -13 -33 -13q-9 0 -19.5 4t-17.5 7.5t-25 14.5t-28 17
q-64 39 -121 39q-49 0 -102 -47q-48 -46 -68.5 -153.5t-21.5 -352.5zM961 0h-183q-42 0 -87 -3t-72 -6l-27 -3q-12 0 -17 10q-2 14 -2 47q0 10 11 10q57 6 76 18.5t26 53.5q12 66 12 305q0 129 -8 215q-2 8 -21.5 14t-90.5 21q-13 3 -3 23q7 22 11 28t10 8q121 40 250 97
q12 4 14 2.5t2 -9.5q-20 -390 -20 -548q0 -141 2 -166q3 -24 11 -33t28 -6q71 8 84 8q5 0 11 -8.5t5 -14.5l-6 -53q-2 -10 -16 -10z" />
    <glyph glyph-name="longs_l" unicode="&#x17f;l" horiz-adv-x="1007" 
d="M338 909l-4 -698q0 -85 5 -110t21 -25q12 -1 27.5 -0.5t36.5 1.5t25 1q10 0 13 -7t3 -34q0 -26 -4 -31.5t-17 -5.5q-19 0 -52 0.5t-67 0.5t-77 -1q-26 0 -102.5 -5t-88.5 -5q-8 0 -9.5 3t-0.5 13q4 32 7.5 40.5t11.5 10.5q33 9 47.5 13t31 17.5t21 24t9.5 43.5t5 64v96
v322q0 26 -9.5 35t-43.5 10l-57 2q-5 0 -10.5 8.5t-2.5 12.5l17 34q12 21 22 23q3 1 18.5 5t34 8.5t31.5 6.5v115q0 132 25.5 217.5t99.5 157.5q105 101 203 139q68 29 117 29q26 0 66 -12t67 -27q23 13 47 25.5t29 15.5q15 9 28 0q6 -8 6 -23q-1 -19 -7 -189t-10.5 -315
t-4.5 -225v-291q0 -230 7 -271q8 -44 35 -51q8 -3 21 -3t47.5 2t36.5 2q11 0 11 -15q-1 -11 -4.5 -29.5t-4.5 -25.5q-2 -8 -14 -8q-77 0 -215.5 -6.5t-181.5 -16.5q-11 -3 -11 9l2 28q0 6 3.5 16t7.5 11q16 10 49 18q27 10 35.5 23.5t11.5 48.5q16 226 16 627v473
q0 31 -22 53q-54 51 -150 51q-52 0 -100 -45q-85 -79 -88 -381z" />
    <glyph glyph-name="longs_longs" unicode="&#x17f;&#x17f;" horiz-adv-x="1019" 
d="M477 41l-18 -45q-1 0 -86.5 2t-134.5 2q-45 0 -89.5 -1t-72 -2t-31.5 -1q-3 0 -8 29t-2 32q77 10 105 23.5t34 52.5q8 43 8 252q0 190 -1.5 227t-8.5 47q-3 8 -76 27q-10 3 -12 8l-14 43q20 12 50 24t47 19.5t17 12.5q0 166 21 247.5t84 151.5q41 45 108 89t133 69
q61 22 115 22q59 0 118 -21t91 -59q54 49 121 88q114 60 207 60q68 0 117 -26t67 -56q10 -15 10 -35q0 -21 -24 -51l-21 -19q-12 -13 -34 -14t-35 10q-2 2 -18 13t-24 16t-25 15.5t-30.5 16.5t-31.5 12.5t-36.5 9.5t-37.5 3q-88 0 -139 -96q-66 -115 -66 -461v-465
q0 -103 5 -155t11.5 -63.5t20.5 -16.5q31 -9 113 -12q10 -2 10 -13q0 -19 -8 -38t-13 -19h-254q-44 0 -95.5 -3t-61.5 -3q-8 0 -2 30q2 7 4 17q2 12 12 14q53 11 73.5 26t24.5 50q6 47 6 504q0 23 -7.5 33.5t-28.5 13.5l-72 8l-17 47q8 7 25.5 16t42.5 20t37 17q20 10 20 43
q0 140 14.5 212.5t51.5 125.5q-31 52 -91 81.5t-110 29.5q-67 0 -112 -39q-62 -51 -87.5 -154t-27.5 -282l-4 -400q-2 -157 6 -262q2 -31 9 -45t24 -20l96 -8q12 0 8 -27z" />
    <glyph glyph-name="f_f" unicode="ff" horiz-adv-x="1116" 
d="M475 39l-18 -43q-5 0 -46 1t-103.5 2t-117.5 1h-151q-3 0 -8 27t-2 30q85 9 113 22.5t32 53.5q6 65 6 252q0 190 -1 229.5t-7 49.5q-5 9 -78 26q-11 3 -12 4l-16 41q116 45 116 58q0 166 21.5 247.5t85.5 151.5q43 48 107.5 90t131.5 68q62 20 127 20q138 0 217 -70
q81 63 113 80q37 23 99 41.5t106 18.5q69 0 115 -21t65 -45q10 -15 10 -39q0 -25 -24 -49l-39 -37q-6 -9 -19.5 -9t-23.5 7q-105 90 -201 90q-50 0 -89 -31t-60 -77q-47 -100 -47 -445q43 0 122 2t119 2q18 0 22.5 -3t4.5 -13q-3 -40 -21 -67q-9 -13 -34 -13h-189
q-6 0 -10 -1t-7.5 -7.5t-4.5 -19.5q-9 -52 -9 -207v-142q0 -104 4.5 -155t10.5 -63t20 -17q33 -10 113 -23q8 -1 10 -3t2 -9q0 -13 -8.5 -31t-13.5 -18h-252q-42 0 -94.5 -3t-63.5 -3q-8 0 -2 30q2 7 4 17q2 12 14 14q47 12 71 28t28 48q6 53 6 240v299q0 18 -17 22t-100 4
h-201q-48 0 -53 -8q-18 -29 -18 -281q0 -115 6 -262q1 -31 9 -45t26 -22l96 -21q12 -3 8 -14zM362 780h330q16 0 21.5 5.5t5.5 23.5q0 250 63 369q-77 106 -225 106q-61 0 -104 -37q-115 -95 -115 -440q0 -27 24 -27z" />
    <glyph glyph-name="f_f_i" unicode="ffi" horiz-adv-x="1583" 
d="M475 41l-14 -45q-7 0 -48.5 1t-103 2t-116.5 1h-146q-3 0 -8 28t-2 31q80 9 106.5 22.5t30.5 51.5q6 67 6 252q0 260 -2 270q-3 10 -18.5 16t-63.5 15q-10 5 -12 10l-14 33q15 9 48.5 27t49.5 28.5t16 14.5q0 151 23 232t84 147q40 46 105.5 89t125.5 66q76 27 135 27
q60 0 117.5 -21.5t95.5 -56.5q45 50 168 117q76 39 152 43q106 0 182 -72q17 -14 17 -37t-15 -43q-13 -17 -37.5 -36t-40.5 -19q-13 0 -36 14q-33 26 -53 40.5t-56 30t-66 15.5q-68 0 -118 -57q-54 -58 -73.5 -171t-19.5 -306q0 -8 10 -14.5t29 -6.5h205q205 0 289 35
q2 1 5.5 -1t6.5 -7.5t2 -11.5q-16 -188 -16 -443q0 -71 4 -219q1 -23 4 -33.5t17 -18t35.5 -10.5t66.5 -5q10 0 10 -17v-49q-131 0 -393 -8v31q0 17 4 22.5t16 7.5q50 12 62.5 25.5t15.5 54.5q10 103 10 330q0 134 -2.5 165t-15.5 46q-23 20 -111 20h-210q-23 0 -32 -9.5
t-12 -33.5q-4 -62 -4 -227q0 -203 7 -274q1 -24 4 -35t8.5 -21.5t24.5 -15.5t40.5 -9.5t69.5 -11.5q1 -19 -5.5 -40t-12.5 -21q-19 0 -58.5 1t-60.5 1h-113q-42 0 -98.5 -3t-69.5 -3q-2 2 -2 14.5t3.5 27t8.5 15.5q54 15 72.5 29.5t22.5 46.5q8 66 8 221v320q0 18 -8.5 23
t-44.5 5h-273q-11 -2 -21 -2.5t-14.5 -1t-8 -1t-5 -1t-2.5 -2.5q-12 -69 -12 -283q0 -70 6 -274q0 -45 35 -51l96 -23q12 -3 8 -14zM365 780h335q5 0 12 6.5t7 14.5q0 126 11 204.5t50 155.5q-32 48 -94.5 75.5t-120.5 27.5q-71 0 -116 -39q-62 -50 -86.5 -154t-24.5 -272
q0 -7 8 -13t19 -6z" />
    <glyph glyph-name="f_f_l" unicode="ffl" horiz-adv-x="1552" 
d="M68 696l-15 37q19 11 50.5 26t48 24.5t16.5 13.5q0 150 21.5 227.5t84.5 146.5q43 49 109.5 91.5t134.5 66.5q66 25 127 25q57 0 112.5 -21.5t92.5 -56.5q56 54 145 102q74 39 148 39q67 0 125 -24q96 42 137 53q6 0 12 -8q6 -4 4 -27q-26 -208 -26 -649q0 -152 2 -352
t2 -258q0 -46 7 -61t28 -13q5 0 30.5 -1t36.5 -1q7 0 15 -8t8 -15q8 -34 0 -53h-97q-124 0 -297 -14q-8 13 -12 49q0 4 6.5 10t8.5 6q58 9 77 25t23 61q12 131 12 402q0 89 -4 120q-3 33 -43 33h-262q-56 0 -64 -16q-10 -18 -13 -83.5t-3 -277.5q0 -106 4.5 -158.5
t11.5 -65.5t21 -15q34 -8 98 -15q13 0 13 -14t-2.5 -25.5t-6 -17.5t-6.5 -6h-258q-39 0 -88.5 -3t-56.5 -3q-14 0 -4 39q0 12 8 20q62 14 83.5 28.5t24.5 47.5q9 92 9 233v297q0 23 -16.5 29t-88.5 6h-227q-43 0 -47 -18q-13 -104 -13 -271q0 -64 1.5 -115t4.5 -94t3 -53
q3 -53 32 -65l97 -21q10 -3 6 -14l-17 -45q-5 0 -46 1t-103 2t-117 1h-139q-3 0 -9 28t-3 31q76 9 101 22.5t32 53.5q8 55 8 250q0 188 -1 226t-7 53q-2 9 -76 26q-12 2 -14 6zM885 780h332q26 0 26 15q0 14 1 114.5t1 187.5t-2 120q-3 34 -16 47q-46 57 -150 57
q-86 0 -139 -66q-76 -108 -76 -454q0 -13 5 -17t18 -4zM350 778h324q13 0 23 9t10 22q0 83 2 132t14.5 111t36.5 107q-29 46 -83 75.5t-128 29.5q-63 0 -113 -41q-112 -94 -112 -418q0 -27 26 -27z" />
    <glyph glyph-name="f_i" unicode="fi" horiz-adv-x="1028" 
d="M604 -8v35q0 14 4 19.5t17 8.5q42 11 57.5 25t19.5 51q11 113 11 338q0 116 -4 149.5t-19 47.5q-26 26 -88 26h-227q-23 0 -30.5 -7.5t-8.5 -35.5q-4 -27 -4 -225q0 -109 6 -250q1 -27 2 -39.5t7.5 -26.5t12.5 -18.5t26.5 -11t39.5 -9.5t59 -8q2 -11 -6 -35t-14 -24
q-2 0 -26 -1t-42 -1h-143q-34 0 -95 -2t-73 -2q-4 0 -4.5 29t2.5 30q46 11 60 20t20 34q12 59 14 157q3 86 4 228.5t-2 187.5l-57 8q-6 2 -8.5 3.5t-6.5 5t-7 11t-7 19.5q3 4 33.5 24t40.5 29q18 15 18 33q2 161 23.5 248.5t79.5 161.5q87 107 227 176q73 37 127 37
q56 0 106.5 -21t75.5 -53q23 -23 23 -43q0 -19 -19 -43q-9 -12 -35.5 -27.5t-39.5 -15.5q-12 0 -35 14q-90 82 -174 82q-64 0 -115 -57q-90 -103 -90 -473q0 -21 53 -21h168q215 0 293 31q11 6 16 2t4 -20q-16 -188 -16 -441q0 -111 6 -225q1 -29 8.5 -40t31 -16.5
t81.5 -7.5q10 0 10 -16q0 -31 -2 -47q-131 0 -389 -8z" />
    <glyph glyph-name="f_l" unicode="fl" horiz-adv-x="1017" 
d="M653 692h-252q-54 0 -63 -18q-8 -19 -11 -82t-3 -277q0 -132 4 -198q2 -20 8 -26.5t28 -9.5t80 -3q7 0 13 -10.5t6 -26.5q0 -25 -3.5 -33t-13.5 -8q-48 2 -233 2q-41 0 -69.5 -0.5t-41 -1t-14.5 -0.5q-16 0 -20 23q-4 29 -2 36q65 14 82 28.5t20 49.5q8 82 8 207v272
q0 59 -24 62l-58 8q-20 3 -4 23l14 26q7 11 40 25t36 16q0 42 6 144q6 129 26 189t75 124q76 87 194 147q65 33 127 33q65 0 113 -20q9 2 67 33t74 34q8 3 15 -6q4 -6 2 -29q-27 -259 -27 -690q0 -137 2 -332.5t2 -255.5q0 -48 5.5 -58t29.5 -9q5 0 34 1t36 1q9 0 16.5 -9
t7.5 -18q4 -35 0 -55h-100q-122 0 -295 -14q-9 23 -12 47q0 5 6 11.5t10 6.5q55 9 73.5 24t22.5 60q12 131 12 402q0 93 -2 122q-5 33 -47 33zM350 780h330q22 0 22 6q0 386 -2 424q0 31 -14 45q-55 64 -154 64q-35 0 -72 -20t-61 -54q-67 -98 -67 -444q0 -14 3 -17.5
t15 -3.5z" />
    <glyph glyph-name="longs_t" unicode="&#x17f;t" horiz-adv-x="1165" 
d="M461 0h-215q-26 0 -101 -5t-86 -5q-9 0 -11 3t-1 13q4 31 8.5 40t12.5 11l36 9t27 11.5t20.5 13.5t13 22t9 29.5t4 44t2.5 58v77.5v315q0 27 -9 35.5t-44 11.5l-57 2q-5 0 -10.5 8.5t-4.5 12.5l17 34q10 17 24 23q10 3 86 27l-2 161q-1 130 23 200t71 120
q55 61 153.5 114.5t172.5 53.5q117 0 201 -78q78 -71 78 -207q0 -29 -5.5 -167.5t-5.5 -164.5v-45q52 0 152.5 6.5t134.5 6.5q12 0 16 -1t6 -5.5t1 -16.5q0 -20 -11 -57q-8 -36 -34 -33q-14 0 -104 -3t-152 -5q-12 0 -15 -29q-8 -368 -8 -420q0 -66 42 -101.5t112 -35.5
q36 0 63.5 11t63.5 38q7 8 11.5 7t8.5 -11q9 -14 12 -35q0 -16 -24 -26q-47 -29 -79.5 -46t-80.5 -32t-94 -15q-37 0 -84 16.5t-76 49.5q-21 26 -27.5 58.5t-3.5 93.5q8 161 13 450q0 11 -10 15.5t-42 7.5l-57 4q-5 0 -9.5 5t-0.5 13l10 19q10 18 23 26.5t69 34.5
q23 17 23 41q2 48 2 356q0 86 -47 133.5t-133 47.5q-111 0 -158 -89q-47 -86 -47 -317q0 -522 2 -790q0 -41 4 -55.5t20 -14.5q8 0 57.5 3t57.5 3q14 0 14 -49q0 -27 -4.5 -32t-23.5 -5z" />
    <glyph glyph-name=".notdef" horiz-adv-x="1024" 
d="M0 0v1434h1024v-1434h-1024zM512 809l348 522h-696zM573 717l349 -522v1044zM164 102h696l-348 523zM102 1239v-1044l349 522z" />
    <glyph glyph-name=".null" horiz-adv-x="0" 
 />
    <glyph glyph-name="nonmarkingreturn" horiz-adv-x="682" 
 />
    <glyph glyph-name="space" unicode=" " horiz-adv-x="440" 
 />
    <glyph glyph-name="exclam" unicode="!" horiz-adv-x="540" 
d="M332 1284q8 0 18 -12q42 -65 86 -109q15 -11 15 -22q0 -17 -11 -39q-8 -20 -14 -43t-10 -36.5t-9.5 -44t-6.5 -37t-6.5 -46.5t-6.5 -43q-8 -57 -25 -229.5t-18 -176.5q0 -19 -10 -24q-32 -8 -41 -8q-8 0 -10 1.5t-2 10.5q0 90 -19 375q-13 234 -55 301q-10 20 -10 37
q0 8 6 14q30 30 41.5 42t28.5 34t30 45q10 10 29 10zM160 143q0 8 14 15q16 7 53 18q21 8 32 22.5t20 49.5q3 11 22 21t27 10q18 0 22 -25q23 -74 76 -92q17 -6 23.5 -15.5t9.5 -31.5q2 -12 -19 -21q-48 -21 -63.5 -38.5t-30.5 -71.5q-3 -15 -22 -11q-22 1 -33 14t-23 42
q-4 9 -10 17.5t-10 13t-14.5 11.5l-13.5 9t-18 9t-18 9q-10 3 -17 18t-7 27z" />
    <glyph glyph-name="quotedbl" unicode="&#x22;" horiz-adv-x="567" 
d="M195 1425q30 0 30 -34q0 -55 -22.5 -172.5t-44.5 -196.5q-5 -11 -60 -27q-10 -2 -14 1.5t-4 17.5q0 214 -19 350q0 16 43 37q57 24 91 24zM475 1425q29 0 29 -34q0 -49 -21.5 -159.5t-46.5 -197.5q-3 -10 -14.5 -17t-46.5 -20q-17 -9 -17 13q0 224 -18 356q0 15 43 35
q70 24 92 24z" />
    <glyph glyph-name="numbersign" unicode="#" horiz-adv-x="1003" 
d="M328 813h-217q-10 0 4 47l4 14q8 35 15 43.5t32 8.5l192 -2l68 311q5 12 25 12q43 0 73 -10l-73 -313l219 -2l75 317q58 0 76 -4q24 -7 17 -35l-70 -278h152q8 0 12 -3.5t4 -16t-6 -34.5q-8 -36 -15 -46.5t-18 -10.5h-162l-59 -270h162q30 0 34 -15q1 -18 -8.5 -54.5
t-15.5 -41.5h-201l-74 -367q-9 -3 -42 -0.5t-46 5.5q-14 11 -4 36l72 330h-221l-82 -348q-9 -6 -41.5 -10t-48.5 -2q-10 0 -10 28l86 334h-173q-10 0 -4 74q0 35 17 35l186 -4zM416 813l-60 -272h226l61 272h-227z" />
    <glyph glyph-name="dollar" unicode="$" horiz-adv-x="1003" 
d="M602 1198l-35 -463q200 -79 277 -151q96 -96 96 -226q0 -102 -44.5 -178t-121.5 -117q-44 -24 -117 -41t-137 -22q-13 -190 -14 -209q0 -10 -3 -14.5t-16 -7.5q-30 -13 -55 -13q-20 0 -16 41q0 5 14 203q-64 2 -205 23q-22 6 -37 0q-8 -6 -36 -25q-14 -12 -25 -12t-18 12
q-11 18 -11 65q-3 70 -35 281q-6 15 7 18q18 7 45 7q13 0 18 -25q17 -65 53 -119q89 -130 250 -157q6 80 21 256t22 270q-1 0 -28.5 11.5t-41.5 17.5t-44 20t-51 26.5t-47 29t-47.5 35t-37.5 38.5q-27 33 -46 83t-19 89q0 187 155 268q40 19 108.5 39t143.5 21q3 62 8 192
q0 16 7 19q20 12 61 -21q21 -21 18 -47q-1 -14 -10 -143q13 0 113 -8q31 -7 49 -7q23 -3 49 35q39 0 43 -4q-6 -152 19 -291q2 -12 -4 -22q-27 -16 -46 -21q-3 -2 -6 1t-4 10q-3 8 -12.5 38.5t-14 42t-14.5 33t-21 36t-26 26.5q-51 41 -131 57zM272 1006q0 -82 50 -132
q26 -29 61.5 -51t105.5 -53q2 37 29 434q-105 0 -175.5 -52t-70.5 -146zM780 326q0 88 -92 161q-37 28 -131 72q-5 -96 -17 -262t-16 -234q117 6 186.5 79.5t69.5 183.5z" />
    <glyph glyph-name="percent" unicode="%" horiz-adv-x="1427" 
d="M641 981q0 -106 -30.5 -173.5t-65.5 -100.5q-35 -36 -101.5 -72.5t-107.5 -36.5q-110 0 -180 80t-70 229q0 174 107 287q32 32 95.5 63t108.5 31q53 0 95.5 -18t70 -48t45.5 -70.5t25.5 -82.5t7.5 -88zM371 682q46 0 78 29q12 9 23.5 30t22.5 73t11 122q0 144 -43.5 209
t-114.5 65q-49 0 -78 -34q-53 -53 -53 -197q0 -72 11 -127.5t27.5 -86.5t38.5 -50.5t40.5 -26t36.5 -6.5zM1102 1319q5 0 29 -17.5t34 -29.5q-193 -296 -429 -676t-388 -643q-8 -16 -20 -16q-9 0 -36 24t-30 33q135 219 406 650.5t405 649.5q15 25 29 25zM1028 -27
q-65 0 -114.5 27t-77 72.5t-41 98t-13.5 110.5q0 182 113 290q40 35 101 63t108 28q98 0 167.5 -80t69.5 -222q0 -186 -96 -282q-43 -43 -101 -74t-116 -31zM1081 51q39 0 70 39q18 18 37.5 81t19.5 134q0 45 -2.5 78t-11.5 73.5t-25.5 66t-47 43.5t-72.5 18
q-61 0 -97.5 -68.5t-36.5 -200.5q0 -70 16 -123t37 -78.5t47.5 -41t41 -18.5t24.5 -3z" />
    <glyph glyph-name="ampersand" unicode="&#x26;" horiz-adv-x="1542" 
d="M584 1274q48 0 94 -20t78 -52q75 -83 75 -203q0 -41 -15 -84t-30 -59q-62 -58 -100 -98q-15 -15 4 -27q55 -32 117.5 -97t114.5 -149q17 -20 30 0q95 125 170.5 269.5t75.5 191.5q0 16 -11.5 25t-51.5 28q6 28 28 54q1 1 7.5 1t9.5 -1q57 -17 141 -17q83 0 129 15
q2 0 6.5 -5t5.5 -10q3 -7 3 -35.5t-3 -31.5q-53 1 -74.5 -5t-33.5 -20q-50 -52 -201 -295q-39 -59 -96.5 -139.5t-69.5 -97.5q-17 -26 -8 -45q22 -53 46 -93.5t58 -78.5t79.5 -59t99.5 -21q110 0 143 137q3 3 14 3t19 -3q7 -2 15 -14.5t5 -20.5q-34 -107 -106.5 -179.5
t-171.5 -72.5q-56 0 -104 20.5t-89 62.5t-69.5 81t-65.5 100q-103 -142 -209 -209q-27 -18 -74.5 -31.5t-85.5 -13.5q-35 0 -63 3t-67 12.5t-78.5 32t-75.5 57.5q-105 102 -105 254q0 71 27 134t65 105q54 54 174 146q10 8 -8 26q-31 29 -56.5 79t-25.5 108q0 127 88 215
q46 42 119 94q50 33 107 33zM528 1161q-74 0 -108 -39q-41 -36 -41 -100q0 -73 39 -123q34 -46 90.5 -75t95.5 -29q18 0 39.5 11.5t36.5 29.5q31 40 31 94q0 66 -19.5 114.5t-50 72t-58.5 34t-55 10.5zM440 676q-27 0 -45 -14q-63 -39 -107 -108t-44 -142q0 -105 57 -187
q77 -104 219 -104q100 0 189 61q52 35 106 111q10 10 2 37q-65 159 -215 272q-41 33 -89.5 53.5t-72.5 20.5z" />
    <glyph glyph-name="quotesingle" unicode="'" horiz-adv-x="288" 
d="M195 1425q30 0 30 -34q0 -55 -22.5 -172.5t-44.5 -196.5q-5 -11 -60 -27q-10 -2 -14 1.5t-4 17.5q0 214 -19 350q0 16 43 37q57 24 91 24z" />
    <glyph glyph-name="parenleft" unicode="(" horiz-adv-x="686" 
d="M590 1421q0 -8 -19 -30q-44 -44 -86.5 -101.5t-88.5 -143t-80 -181.5t-56 -221t-22 -257q0 -148 26 -282t70 -234t92 -173t102 -124q21 -24 39 -36q10 -8 2 -35q-13 -37 -28 -52q-9 -9 -31 -4q-59 25 -138.5 123.5t-138.5 235.5q-50 117 -78 260t-28 274q0 348 127 629
q62 133 141 238.5t152 165.5q9 6 18.5 4.5t14.5 -7.5q10 -13 10 -49z" />
    <glyph glyph-name="parenright" unicode=")" horiz-adv-x="686" 
d="M528 567q0 -178 -31.5 -338.5t-86 -284.5t-111.5 -214.5t-125 -167.5q-21 -29 -37 -29q-9 0 -23 12.5t-20 22.5q-6 11 4 24q133 173 209 363q109 257 109 606q0 185 -44.5 348t-106.5 266t-138 173q-29 29 -29 45q0 25 19 67q11 22 43 2q66 -40 130.5 -125t118 -200
t86.5 -265t33 -305z" />
    <glyph glyph-name="asterisk" unicode="*" horiz-adv-x="808" 
d="M88 1165q0 9 30.5 50.5t37.5 41.5q9 1 217 -141q6 -3 10 1t2 9q-15 243 -16 263q0 10 16 16q22 3 52 -1t46 -11q19 -8 11 -35q-32 -165 -41 -232q-4 -18 4 -17q1 0 2 1q30 14 106 54.5t111 56.5q8 -10 26 -40t25 -48q4 -11 0.5 -20t-8.5 -9q-26 -8 -116 -29.5t-120 -30.5
q-12 -4 -4 -12q18 -23 76 -91t84 -101q24 -27 -10 -54q-48 -35 -80 -38q-57 96 -141 260q-87 -114 -183 -234q-14 -2 -40.5 15t-55.5 53q-1 4 1 12t5 10q20 22 102.5 89t102.5 85q4 3 4 7.5t-4 5.5q-25 13 -119.5 49t-116.5 51q-16 11 -16 14z" />
    <glyph glyph-name="plus" unicode="+" horiz-adv-x="1343" 
d="M614 397h-442q-3 32 -3.5 67.5t1.5 39.5h444l2 426q0 28 15 28h84q13 0 16.5 -6t3.5 -26l-4 -422h420q16 0 20.5 -5t4.5 -18v-63q0 -10 -19 -15.5t-37 -5.5h-389l4 -475q0 -8 -5 -15t-11 -7q-20 0 -58 8t-45 14z" />
    <glyph glyph-name="comma" unicode="," horiz-adv-x="450" 
d="M260 283q21 0 54.5 -36t33.5 -85q0 -106 -77 -213t-177 -166q-25 -14 -45 -14t-20 12q0 18 22 43q125 121 125 221q3 51 -57 96q-7 3 -6.5 20.5t6.5 22.5q52 24 112 84q15 15 29 15z" />
    <glyph glyph-name="hyphen" unicode="-" horiz-adv-x="667" 
d="M102 340q0 30 11.5 53.5t31.5 32.5q25 17 198.5 76.5t184.5 64.5q14 2 47 -16q7 -4 3 -29q-22 -68 -32 -86.5t-24 -21.5q-8 -2 -95 -22t-180 -42t-130 -33q-8 -2 -11.5 4t-3.5 19z" />
    <glyph glyph-name="period" unicode="." horiz-adv-x="450" 
d="M258 287q11 0 23 -49q10 -34 22.5 -48t56.5 -30q25 -7 25 -41q0 -18 -12 -21q-55 -13 -70 -30t-35 -91q-3 -12 -28 -12q-21 0 -32 16.5t-34 73.5q-7 16 -20.5 25.5t-47.5 23.5q-13 5 -20.5 16t-7.5 19q0 11 13 22.5t26 14.5q41 8 55 20.5t33 59.5q10 31 53 31z" />
    <glyph glyph-name="slash" unicode="/" horiz-adv-x="888" 
d="M692 1415q20 0 53 -17.5t41 -31.5q-257 -636 -561 -1487q-15 -51 -32 -51q-7 0 -40 19t-47 30q425 1141 560 1503q12 35 26 35z" />
    <glyph glyph-name="zero" unicode="0" horiz-adv-x="1003" 
d="M537 1305q86 0 161.5 -40t126.5 -120q107 -172 107 -490q0 -402 -168 -561q-55 -53 -129.5 -86t-151.5 -33q-187 0 -295 164q-45 73 -79.5 191t-34.5 274q0 356 131 529q90 124 227 157q66 15 105 15zM500 1231q-71 0 -123 -49q-47 -45 -85 -168t-38 -340
q0 -219 38.5 -357t98.5 -200q61 -64 129 -64q74 0 123 49q42 40 76 168t33 338q-2 204 -25.5 342.5t-91.5 218.5q-51 62 -135 62z" />
    <glyph glyph-name="one" unicode="1" horiz-adv-x="1003" 
d="M444 573l-4 527q0 24 -26 20q-162 -25 -201 -22q-9 8 -18 19.5t-9 15.5q0 2 0.5 4t2.5 3.5t3.5 2.5t5 3t5.5 3q27 8 53 16t53 18.5t47 18t48.5 20t42.5 18.5t42.5 19.5t36 17t36.5 17.5t30 15q2 2 8 2q4 0 10 -4t6 -7q0 -100 -1 -380.5t-1 -430.5q0 -295 13 -370
q2 -19 18 -28t67 -15.5t165 -12.5q-3 -42 -7.5 -52.5t-19.5 -10.5h-223q-57 0 -211 -5.5t-232 -4.5q-14 0 -18.5 2t-3.5 8q6 29 10 37.5t12 11.5q51 4 201 25q27 4 36.5 15.5t12.5 37.5q13 103 10 446z" />
    <glyph glyph-name="two" unicode="2" horiz-adv-x="1003" 
d="M500 1311q78 0 147 -29t117 -80t73 -122t25 -136q0 -161 -125 -317q-135 -170 -444 -475q-6 -3 -3 -10t9 -7q62 0 264.5 3.5t231.5 4.5q32 2 53.5 25.5t54.5 107.5q8 17 19 9q14 -8 39 -33q14 -10 6 -29q-9 -22 -54 -110.5t-55 -106.5q-11 -16 -31 -16q-105 0 -460 10
q-68 2 -275 2q-7 0 -13 6.5t-3 11.5q20 51 36.5 75.5t41.5 45.5q2 2 50.5 45t92.5 84t109.5 111t117.5 137q162 207 162 400q0 112 -60.5 179.5t-179.5 67.5q-182 0 -296 -223q-6 -9 -33 8q-16 13 -20 18.5t-3 12.5q40 119 119 201q50 53 123 91t164 38z" />
    <glyph glyph-name="three" unicode="3" horiz-adv-x="1003" 
d="M96 10l23 27q54 -8 129 -8q112 1 208 39.5t150 99.5q84 96 84 231q0 93 -63 156q-75 61 -191 61q-96 0 -184 -36q-7 0 -11.5 7t-4.5 13q4 18 24 45.5t31 32.5q113 41 166.5 68t103.5 67q39 33 58.5 77.5t19.5 84.5q0 90 -58 143t-163 53q-145 0 -266 -170q-2 -3 -12.5 4
t-20.5 16.5t-10 12.5q0 11 20 41q107 158 221 207q67 29 146 29q130 0 225 -92q70 -67 70 -193q0 -90 -62 -152q-44 -44 -141 -114q-3 -4 -0.5 -14t6.5 -11q171 -56 235 -164q45 -57 45 -155q0 -126 -71.5 -222.5t-179.5 -158.5q-147 -84 -334 -84q-63 0 -115.5 12t-69.5 23
q-14 7 -8 24z" />
    <glyph glyph-name="four" unicode="4" horiz-adv-x="1003" 
d="M768 408l-2 -422q0 -16 -14 -21q-70 -6 -160 -6q-14 0 -14 29q0 45 16 405q0 13 -14 13q-18 -2 -195.5 -6.5t-257.5 -4.5h-82q-22 2 -22 21q0 6 30 86q52 87 190.5 272.5t291.5 374.5q108 124 165 151q31 17 50 17q11 0 14.5 -23.5t3.5 -83.5l2 -694q52 1 98 2l69 1.5
t36 0.5q4 -1 3 -17.5t-9 -56.5q-5 -34 -25 -34q-112 0 -174 -4zM618 1094q0 34 -7 32q-1 -1 -3 -4q-106 -129 -225.5 -295t-202.5 -303q-6 -9 -2 -17.5t12 -8.5q154 0 404 10q2 44 8 188.5t11 265t5 132.5z" />
    <glyph glyph-name="five" unicode="5" horiz-adv-x="1003" 
d="M883 461q0 -188 -124.5 -314t-318.5 -172q-105 -24 -207 -24q-81 0 -118 14q-13 7 -6 21q12 18 18 24q8 10 35 13q259 17 399 120q69 50 107.5 119t38.5 144q0 116 -87 188t-221 72q-104 0 -262 -52q-7 0 -14.5 5t-7.5 12q-3 56 22 162q17 103 53 236t68 216q17 41 35 55
q15 12 35 9q51 -13 173 -24t208 -11q19 0 34 6q27 14 97 68q11 14 18 10q27 -37 10 -68q-21 -31 -68.5 -82t-74.5 -63q-26 -15 -57 -15q-42 0 -167 3.5t-145 5.5q-13 0 -20.5 -7t-13.5 -24q-24 -51 -54 -158.5t-49 -208.5q-4 -11 2 -17t23 -1q222 72 276 72q64 0 123 -19
t98 -49q69 -50 105.5 -119.5t36.5 -146.5z" />
    <glyph glyph-name="six" unicode="6" horiz-adv-x="1003" 
d="M66 498q0 419 329 682q92 70 213.5 114.5t218.5 44.5q20 0 36 -16t24 -31q1 -3 -2 -6.5t-8 -3.5q-133 -21 -262 -88t-212 -178q-62 -81 -95.5 -181t-33.5 -145q12 4 112 50.5t136 60.5q37 12 64 12q67 0 133.5 -30t116.5 -83q45 -48 72.5 -121t27.5 -151
q0 -115 -44.5 -198.5t-103.5 -129.5q-57 -48 -149 -86.5t-162 -38.5q-145 0 -256 97q-69 63 -112 175t-43 251zM541 61q75 0 129 41q36 26 72 94t36 164q0 125 -65 209q-91 121 -228 121q-93 0 -221 -80q-6 -6 -12 -29t-6 -55q0 -127 31 -224.5t77 -147.5q39 -43 88.5 -68
t98.5 -25z" />
    <glyph glyph-name="seven" unicode="7" horiz-adv-x="1003" 
d="M324 -39q-47 0 -76 23q-24 21 -12 65q21 53 204 389q13 23 75 134t85 152.5t68 124.5t74.5 142t54.5 113q0 28 -4 31q-27 8 -285 8q-80 0 -127.5 -2t-84.5 -6t-57.5 -13.5t-34 -22t-28.5 -34.5q-37 -54 -65 -137q-6 -11 -21 -2q-28 18 -35 27.5t-4 23.5q15 46 58 168
t49 135q6 16 22 16q4 0 30.5 -4.5t43.5 -5.5q105 -6 328 -6q262 0 354 10q13 3 16 -10q4 -54 -12 -80q-328 -619 -491 -1005q-53 -124 -72 -203q-1 -13 -17.5 -22t-35.5 -9z" />
    <glyph glyph-name="eight" unicode="8" horiz-adv-x="1003" 
d="M537 1315q152 0 242.5 -88.5t90.5 -216.5q0 -120 -73 -187q-21 -21 -48.5 -44t-61 -48.5t-48.5 -38.5q145 -70 214 -151.5t69 -204.5q0 -81 -38 -149.5t-102 -114.5t-146 -74.5t-159 -28.5q-179 0 -293 105q-50 42 -75 105t-25 130q0 65 45 137q13 18 48.5 50t70 59
t104.5 82q-213 126 -213 313q0 128 68 205q67 74 168 121q79 39 162 39zM489 1235q-84 0 -141 -53q-61 -58 -61 -164q0 -92 59.5 -159t155.5 -107q59 -22 80 -15q56 22 98.5 88.5t42.5 153.5q0 107 -68 184q-66 72 -166 72zM530 51q98 0 165 59t67 175q0 94 -74 168
q-69 72 -213 133q-46 15 -67 4q-59 -32 -107.5 -106t-48.5 -154q0 -84 44 -150t106.5 -97.5t127.5 -31.5z" />
    <glyph glyph-name="nine" unicode="9" horiz-adv-x="1003" 
d="M510 1311q150 0 264 -111q150 -141 150 -461q0 -311 -176 -530q-99 -124 -239.5 -191t-248.5 -67q-38 0 -96 8q-15 0 -6 31q5 9 6.5 10.5t7.5 1.5q41 6 94.5 21.5t138 61.5t146.5 110q73 76 116 164.5t66 215.5q-63 -27 -172 -62.5t-133 -35.5q-38 0 -85 13.5t-81 33.5
q-85 50 -136.5 135t-51.5 195q0 228 178 354q148 103 258 103zM440 1223q-37 0 -72 -15.5t-55 -36.5q-31 -31 -54 -93t-23 -132q0 -87 34 -162t90 -122q79 -68 185 -68q38 0 93 15.5t87 35.5q15 12 18 55q6 28 1 107t-19 143q-32 129 -103.5 201t-181.5 72z" />
    <glyph glyph-name="colon" unicode=":" horiz-adv-x="509" 
d="M283 807q15 0 20 -19q15 -51 28.5 -64t71.5 -32q14 -6 17 -13.5t0 -27.5q-6 -15 -19 -24q-57 -28 -70 -43.5t-30 -75.5q-7 -14 -22 -14q-14 0 -29 8t-19 20q-14 48 -29 67t-55 32q-32 13 -32 47q0 16 12 20q48 11 69.5 27t34.5 53q14 39 52 39zM289 283q7 0 16 -35
q2 -9 4 -15q9 -33 22 -45.5t58 -29.5q23 -7 23 -39q0 -16 -11 -23q-56 -14 -70 -30t-34 -89q-3 -12 -29 -12q-20 0 -31 17t-34 73q-6 17 -19 25.5t-47 21.5q-26 14 -26 37q0 10 12.5 21t26.5 14q40 7 53 20t30 60q15 29 56 29z" />
    <glyph glyph-name="semicolon" unicode=";" horiz-adv-x="509" 
d="M274 807q18 0 23 -16q14 -49 27.5 -63t68.5 -32q13 -6 16 -13t-1 -26q-8 -21 -17 -24q-54 -26 -67.5 -42.5t-28.5 -74.5q-6 -12 -23 -12q-15 0 -28.5 7.5t-16.5 18.5q-14 47 -29.5 66t-52.5 31q-32 13 -32 45q0 16 12 20q46 10 66 26.5t34 51.5q16 37 49 37zM289 274
q21 0 54.5 -35.5t33.5 -84.5q0 -106 -76.5 -212t-177.5 -167q-27 -15 -45 -15q-21 0 -21 15t23 41q125 121 125 223q0 50 -58 94q-7 3 -6.5 20.5t6.5 22.5q35 16 113 84q12 14 29 14z" />
    <glyph glyph-name="less" unicode="&#x3c;" horiz-adv-x="1290" 
d="M356 483l25 -14q109 -72 682 -369q17 -9 10 -32l-18 -64q-3 -18 -9.5 -20.5t-25.5 6.5q-87 49 -243.5 137.5t-286.5 160.5t-248 136q-52 26 -52 47q0 28 66 68q168 100 402.5 227t388.5 197q26 10 30 -5l27 -96q-423 -186 -748 -379z" />
    <glyph glyph-name="equal" unicode="=" horiz-adv-x="1343" 
d="M182 618l-4 56q-3 26 8 26l977 2q0 -102 -20 -104q-23 -4 -123 -4h-803q-20 0 -27 4t-8 20zM1083 205h-874q-19 0 -21 10q-8 19 -8 94l987 2l-8 -82q-3 -16 -15.5 -20t-60.5 -4z" />
    <glyph glyph-name="greater" unicode="&#x3e;" horiz-adv-x="1290" 
d="M213 877l20 53q10 35 27 22q546 -307 637 -358q80 -46 172 -100q15 -10 12 -29q-3 -12 -54.5 -48t-86.5 -55q-120 -66 -353 -198.5t-349 -196.5q-23 63 -27 99q-3 15 14 22q3 2 110.5 59.5t279 150t307.5 167.5q-229 140 -697 383q-5 3 -10 13t-2 16z" />
    <glyph glyph-name="question" unicode="?" horiz-adv-x="694" 
d="M410 1223q68 0 123.5 -50t82.5 -113t27 -116q0 -140 -53 -252q-53 -115 -156 -121q-92 -8 -123 -8q-42 0 -53 -30t-2 -121q-8 -3 -35 -25q-11 -4 -13 -3.5t-5 11.5q-9 28 -23 105.5t-14 126.5q0 19 32.5 63.5t41.5 44.5h84q48 0 88 6.5t75.5 21.5t55.5 43.5t20 67.5
q0 89 -52.5 130t-160.5 43q-13 0 -33 21t-20 40q0 43 36 79t77 36zM291 272q22 0 34.5 -6.5t20.5 -27.5q7 -18 12.5 -27.5t16.5 -19.5t28 -17q20 -6 27 -13t10 -22q5 -20 1 -27t-29 -20q-27 -14 -42 -33.5t-24 -54.5q-4 -14 -21.5 -22.5t-33.5 -8.5q-13 0 -27 25
q-17 61 -59 80q-22 11 -45 39q-9 17 -7 24.5t17 16.5q47 21 65 36.5t27 41.5q7 23 13 29.5t16 6.5z" />
    <glyph glyph-name="at" unicode="@" horiz-adv-x="1740" 
d="M535 209q0 98 37 191.5t87 158.5q41 54 124 120.5t157 104.5q52 27 84 27q43 0 96 -16q58 16 105 16q-108 -347 -127 -664q-3 -34 7 -49.5t40 -15.5q105 0 193.5 68t139 179.5t50.5 237.5q-2 237 -150 375.5t-411 138.5q-139 0 -276.5 -59t-223.5 -152
q-97 -104 -152.5 -257.5t-54.5 -321.5q1 -175 74 -317t211 -227t317 -85q159 0 330 84q7 3 13.5 -1.5t6.5 -10.5q0 -42 -10 -49q-67 -51 -178 -82t-225 -31q-142 0 -264.5 47.5t-215 136.5t-146 227t-54.5 310q-1 242 109.5 427t295.5 302q217 141 492 141q271 0 439 -161.5
t173 -411.5q1 -143 -49.5 -261.5t-135.5 -192.5t-190 -113t-217 -37q-31 2 -54.5 18t-23.5 47t39 250q-13 -12 -90.5 -98.5t-144 -152.5t-86.5 -66q-46 0 -93.5 57.5t-47.5 167.5zM743 150q36 0 116 85t114 148q23 41 50 129t38 170q-32 20 -90 20q-97 0 -176 -98
q-50 -67 -79.5 -156t-29.5 -172q0 -126 57 -126z" />
    <glyph glyph-name="A" unicode="A" horiz-adv-x="1456" 
d="M756 1366q11 0 16 -7t10 -24q22 -70 45 -137.5t37.5 -107.5t45.5 -121t48 -127q68 -186 259 -633q34 -77 69.5 -108.5t118.5 -47.5q2 0 -0.5 -14t-7 -29t-8.5 -18q-170 2 -279 2q-28 0 -60 -2t-53 -3.5t-28 -0.5q-12 0 -15 6q-14 43 -10 55q43 12 63 20t32 22t10.5 31.5
t-11.5 49.5q-12 51 -102 270q-13 31 -35 31q-281 0 -442 -8q-19 -2 -29 -10t-22 -33q-23 -49 -56 -142.5t-33 -129.5q0 -34 22.5 -52t96.5 -41q2 -9 -4 -31t-12 -26q-182 4 -260 0h-76q-10 0 -14 4q-6 11 -9.5 32.5t0.5 26.5q26 7 45.5 18.5t33 22.5t29 35.5t25 41.5
t29.5 57q50 99 410 970q11 25 47 123q2 12 12 17q36 18 62 18zM506 559q4 0 23 -1t53 -2t75 -1q38 0 209 6q8 0 13 10t2 17q-29 78 -66 181t-64 175.5t-55 145.5q-3 6 -11.5 3t-12.5 -12q-108 -251 -203 -499q-1 -3 2.5 -8.5t13 -10t21.5 -4.5z" />
    <glyph glyph-name="B" unicode="B" horiz-adv-x="1224" 
d="M227 506v315q0 278 -4 344q-1 27 -8.5 39.5t-34 26t-90.5 33.5l21 55q31 0 133 6q238 14 307 14q184 0 305 -49q65 -27 118.5 -88.5t53.5 -146.5q0 -74 -23.5 -129t-80.5 -97q-22 -17 -43 -29.5t-41.5 -22.5t-22.5 -11q-7 -5 -5 -13t11 -10q58 -11 111.5 -38.5t100 -70
t74.5 -107.5t28 -142q0 -132 -81 -222.5t-218 -139.5q-86 -31 -222 -31q-11 0 -144 4t-181 4q-52 0 -114.5 -5t-67.5 -5q-3 0 -10 24t-5 27q8 8 64 33q41 21 50 39.5t11 74.5q8 203 8 318zM840 1012q0 110 -80 186q-77 74 -213 74q-46 0 -101 -17q-17 -3 -23 -8t-7 -20
q-10 -35 -10 -176q0 -170 4 -228q4 -34 15.5 -43t51.5 -14q33 -4 113 -4q86 0 137 26q53 32 83 92t30 132zM573 68q105 0 185.5 32t131 103.5t50.5 175.5q0 151 -98 239q-50 49 -110.5 63.5t-151.5 14.5q-138 0 -166 -26q-19 -28 -19 -125q0 -287 6 -343.5t39 -88.5
q32 -32 54 -38.5t79 -6.5z" />
    <glyph glyph-name="C" unicode="C" horiz-adv-x="1384" 
d="M86 651q0 289 176 484q70 77 163.5 120.5t209.5 73.5q134 35 295 35q67 0 140 -12.5t112 -28.5q24 -4 36 -1.5t48 17.5q5 2 24 -4q10 -3 15.5 -5.5t7 -4.5t0.5 -4q-53 -111 -35 -313q0 -6 -31 -11q-22 -4 -28 -2.5t-9 11.5q-4 15 -36 131q-12 30 -24.5 47.5t-39.5 36.5
q-34 25 -108.5 47t-167.5 22q-109 0 -211 -47t-183 -141q-141 -173 -141 -459q0 -51 8 -104t27.5 -113t49 -114t76 -104t105 -86.5t140 -58.5t176.5 -22q102 0 171 34t124 91q65 65 96 145q4 13 16 4q32 -19 29 -43q-17 -66 -47 -141.5t-51 -107.5q-15 -23 -37 -23
q-24 -1 -145.5 -18.5t-182.5 -18.5q-158 0 -289 41t-218 108.5t-147.5 157.5t-87 185.5t-26.5 195.5z" />
    <glyph glyph-name="D" unicode="D" horiz-adv-x="1574" 
d="M1491 668q0 -102 -47.5 -221.5t-147.5 -213.5q-100 -93 -177.5 -136.5t-172.5 -71.5q-74 -22 -138.5 -27.5t-186.5 -5.5q-63 0 -203 4t-154 4q-24 0 -80.5 -1t-70.5 -1q-2 4 -4.5 30t0.5 33q72 22 93.5 36.5t22.5 43.5q11 187 11 760q0 272 -7 301q-2 24 -24.5 38
t-89.5 22q-1 0 -3 2.5t-4 8.5t-2 13l-2 43q34 0 113.5 2t136.5 2q67 1 164 4.5t148 3.5q392 0 602 -188q223 -201 223 -485zM666 1270q-59 0 -136.5 -14.5t-91.5 -26.5q-11 -9 -14 -41q-14 -210 -14 -449q0 -274 5.5 -409t26.5 -207q6 -23 29 -31q74 -33 178 -33
q199 0 367 107q127 81 193.5 217.5t66.5 298.5q0 149 -56 262.5t-137 185.5q-158 140 -417 140z" />
    <glyph glyph-name="E" unicode="E" horiz-adv-x="1224" 
d="M438 711h131q137 0 213 6q66 4 92 13.5t39.5 34t26.5 89.5q7 4 33.5 7t34.5 1q-1 -10 -9 -95t-8 -122q2 -54 15 -186q-24 -6 -48 -6q-14 -3 -18 12q-13 30 -25 80q-9 42 -33 59t-85 21q-45 4 -217 4q-112 0 -136 -4q-13 -3 -20 -13q-18 -36 -18 -252q0 -126 3 -170
t17 -67q21 -29 79.5 -39t188.5 -10q80 0 130.5 4t101 17.5t82 39.5t58.5 69.5t46 108.5q13 3 49 -4q6 -2 6 -14q-3 -68 -22.5 -153.5t-40.5 -131.5q-13 -16 -27 -16q-28 0 -96 2q-122 4 -375 4q-106 0 -489 -14q-3 1 -4.5 25t0.5 36q0 2 8 10q46 8 68.5 16.5t28.5 17.5t7 26
q15 116 15 372v353q0 285 -15 375q-4 22 -26 26q-9 4 -24 8t-41.5 9.5t-43.5 9.5q-2 2 -2 8l4 49q0 8 10 8h72q24 0 110 -2t156 -2h199q65 0 197 5t180 5q32 0 49 -10q14 -9 15 -14.5t-5 -34.5q-18 -101 -18 -262q-37 0 -49.5 4t-14.5 14q0 2 -1 5q-22 112 -42 148
q-35 60 -125 68l-34 1h-142q-169 0 -211 -11q-19 -6 -24.5 -21.5t-5.5 -53.5q0 -145 4 -431q0 -13 7.5 -22.5t18.5 -9.5z" />
    <glyph glyph-name="F" unicode="F" horiz-adv-x="1126" 
d="M117 74h63q19 0 25.5 7t9.5 34q18 148 18 493v205q0 262 -6 348q-5 63 -24 81.5t-97 33.5q-4 22 3 49q0 8 22 8q6 0 37.5 -1t79.5 -2.5t84 -2.5h370q254 0 312 14q5 2 10.5 -5.5t5.5 -16.5q-1 -58 -2 -121.5t-1.5 -98.5t-0.5 -57q0 -15 -29 -10q-14 3 -20.5 5.5t-8.5 4.5
t-3 7q-18 94 -38.5 132t-68.5 54q-66 20 -240 20q-120 0 -172 -12q-12 -4 -17.5 -20t-10.5 -56q-6 -54 -9 -118t-4 -121.5t-0.5 -101t1 -81t0.5 -38.5q-1 -8 3.5 -14.5t8.5 -6.5q1 0 18 -0.5t55.5 -1t92.5 -0.5q103 0 225 8q33 3 44.5 20t33.5 93q5 5 33 10.5t32 1.5
q0 -30 -2 -86t-2 -84q0 -31 6.5 -100.5t6.5 -85.5q-8 -3 -34 -4t-32 2q-1 4 -5 20.5t-5.5 21.5t-5 18t-6.5 18.5t-8 14.5t-10.5 14t-12.5 9q-33 16 -81.5 22.5t-162.5 6.5q-108 0 -178 -4q-12 -1 -16.5 -19t-4.5 -63v-162q0 -98 11 -194q7 -56 45 -73.5t135 -20.5
q10 0 15 -7t3 -12l-16 -55h-47q-42 0 -109.5 4t-109.5 4q-37 0 -82 -2t-75.5 -4t-31.5 -2q-17 0 -20 18q-11 40 0 62z" />
    <glyph glyph-name="G" unicode="G" horiz-adv-x="1540" 
d="M86 672q0 296 205 485q63 59 141.5 97t190.5 69q142 41 317 41q55 0 132 -9.5t130 -25.5q20 -4 21 0l20 33q2 6 21 6l41 -4q3 0 6.5 -4t3.5 -10q8 -187 28 -291q6 -37 3 -47q-6 -6 -23 -6h-29q-13 0 -20 16q-45 119 -150.5 193.5t-267.5 74.5q-202 0 -350 -129
q-39 -36 -72.5 -79t-66.5 -104.5t-52.5 -143t-19.5 -172.5q0 -266 174 -435q56 -54 126 -92t139 -55.5t121.5 -24t100.5 -6.5q46 0 97.5 14t74.5 33q56 41 56 264q0 106 -5 148.5t-20 61.5t-53 26q-7 1 -62.5 8t-68.5 10q-21 11 -23 13q-5 10 -10 39q0 16 10 16
q62 0 159.5 -4t137.5 -4q64 0 134 4t77 4q3 -3 1 -36.5t-5 -41.5q-9 -1 -35 -5t-45 -5q-14 -63 -14 -508q0 -27 -7 -42t-24 -30q-20 -18 -57 -18q-80 0 -162 -6q-160 -13 -219 -13q-389 0 -606 205q-93 85 -147 210.5t-54 279.5z" />
    <glyph glyph-name="H" unicode="H" horiz-adv-x="1728" 
d="M446 715h596q246 0 258 2q14 2 18.5 15.5t4.5 58.5v176q0 165 -2 200q-1 51 -26.5 67t-125.5 34q-3 3 2.5 31.5t8.5 31.5q37 0 109.5 -1t109.5 -1q49 0 110 6q86 4 95 4q20 0 24 -6q14 -32 14 -51q-89 -14 -113 -29t-28 -63q-8 -172 -8 -322v-368q0 -195 10 -342
q3 -44 28 -59.5t118 -24.5q5 -8 -4.5 -37.5t-18.5 -30.5h-268q-51 0 -88 -1.5t-54.5 -3t-21.5 -1.5q-18 0 -18 6l2 60q72 9 100 20t33 29q12 43 12 295v165q0 29 -10 39q-7 5 -22 7t-68 3t-164 1h-303q-272 0 -316 -7q-20 -3 -25 -12.5t-5 -32.5q0 -222 6 -360
q3 -92 18 -107q22 -26 127 -45q19 -3 19 -10q0 -3 1 -19t1 -28t-2 -14q-6 0 -124 5t-175 5q-47 -1 -83.5 -3t-53 -3.5t-17.5 -1.5q-10 0 -14 4t-10.5 28t-4.5 29q82 20 105 37.5t28 61.5q9 70 9 315v375q0 208 -4 334q-3 50 -26 67.5t-116 28.5q-2 5 1 22.5t9 30.5q2 6 13 6
q39 0 104.5 -1t91.5 -1q80 0 117 2q17 0 54 3.5t55 4.5q4 -3 5.5 -33t-1.5 -34q-65 -6 -91 -20t-32 -48q-10 -52 -10 -317q0 -127 5 -149.5t31 -22.5z" />
    <glyph glyph-name="I" unicode="I" horiz-adv-x="718" 
d="M659 1325l15 -49q-92 -9 -135.5 -18t-57 -20t-16.5 -32q-14 -68 -14 -356v-410q0 -178 10 -295q3 -36 14 -48t37 -17q10 -2 53.5 -7t52.5 -7q23 -7 23 -13q0 -10 -6.5 -31t-9.5 -26q-250 6 -326 4q-42 0 -89.5 -1.5t-78 -3.5t-33.5 -3q-20 0 -24 16q-11 35 -8 51
q112 3 152 16.5t46 53.5q0 2 2.5 33.5t4.5 61t3.5 95t1.5 144.5v489q0 205 -9.5 249t-61.5 54q-98 9 -111 9q-12 0 -12 12q0 11 10 31q10 18 17 20q16 2 53 2q2 0 69.5 -1t130.5 -1q255 5 267 6q19 0 23.5 -1.5t6.5 -6.5z" />
    <glyph glyph-name="J" unicode="J" horiz-adv-x="653" 
d="M586 1272l-60 -8q-56 -6 -72.5 -16t-19.5 -38q-8 -98 -8 -358v-260q0 -57 -1 -288.5t-1 -319.5q0 -98 -39 -168q-43 -78 -126.5 -144t-176.5 -112q-52 -25 -100 -25q-40 0 -80 16.5t-66 38.5q-20 20 -20 41q0 22 10 35q22 26 68 62q17 13 38 -2q87 -54 164 -54
q58 0 99 41q26 22 38 61.5t13 112.5q8 200 8 455v416q0 262 -4 368q-2 35 -4 52.5t-10 35.5t-16 24t-31 13t-45 9.5t-68 5.5q0 15 12 51q5 14 29 14q16 0 87.5 -1t104.5 -1q45 0 135 4t115 4q11 0 14 -10z" />
    <glyph glyph-name="K" unicode="K" horiz-adv-x="1466" 
d="M246 367v510q0 222 -8 286t-33 78q-29 21 -115 27q0 14 5 36.5t11 26.5q71 0 207 -4q64 1 117.5 3.5t82 4.5t34.5 2q14 0 18 -8q3 -6 5 -25t1 -28q-71 -9 -127 -27q-19 -9 -24.5 -58.5t-5.5 -193.5v-270q0 -15 2.5 -20t9.5 -5q3 0 7 1.5t9.5 5l11 7t14.5 10.5t16 12.5
t19 15t21 16.5q306 252 484 430q36 34 25 48q-2 3 -7 3q-20 1 -59.5 5.5t-55.5 5.5l-4 55q2 9 15 12q63 -1 122.5 -0.5t118 1.5t101.5 2t73 2t33 1q6 0 8 -2.5t2 -11.5q-6 -31 -9.5 -39.5t-10.5 -9.5q-57 -8 -102 -24t-67 -30t-61 -42q-175 -126 -503 -410q-9 -8 -11 -19
t5 -20q73 -79 280.5 -266t247.5 -225q92 -83 138 -117.5t77 -40.5q14 -4 41.5 -10t38.5 -9q23 -6 20 -22l-14 -43q-180 9 -479 6l8 61q16 8 61 17q13 2 14 10.5t-12 20.5q-72 68 -194.5 181t-213 196.5t-112.5 105.5q-63 61 -96 61q-12 0 -12 -30v-181q0 -302 24 -338
q9 -14 31.5 -21.5t43 -10t71.5 -6.5q8 -4 8 -15l-6 -57q-204 6 -273 6q-38 0 -127.5 -3t-95.5 -3q-4 6 -0.5 33t6.5 30q13 4 46 10t51 11q23 4 33.5 23.5t15 78t4.5 187.5z" />
    <glyph glyph-name="L" unicode="L" horiz-adv-x="1171" 
d="M1071 326q8 0 29 -6.5t28 -10.5q10 -10 7 -22q-44 -149 -62 -260q-5 -27 -35 -31q-20 -2 -129 -2q-9 0 -166.5 3t-363.5 3q-66 0 -240 -12q-23 -2 -39 -2q-5 6 -11 30t-5 33q81 10 119 28.5t49 61.5q14 54 14 314v419q0 255 -10 330q-3 25 -15 35.5t-45 14.5t-108 3
q-5 0 -8 8t0 17l16 37q2 10 8 10q158 0 191 2q162 3 319 12q6 -4 10.5 -25.5t4.5 -35.5q-102 -12 -139 -30t-44 -76q-13 -130 -10 -365l2 -248q2 -353 6 -424q3 -42 39 -51q47 -16 191 -16q63 0 102 2.5t88 12t84.5 33t59.5 60.5q34 52 53 137q3 11 10 11z" />
    <glyph glyph-name="M" unicode="M" horiz-adv-x="1849" 
d="M481 37l4 -47q-189 9 -389 6q-17 0 -22 8q-4 9 -5.5 31t1.5 26q76 9 106 32.5t37 88.5q17 154 31 594l14 400q1 36 -10 52.5t-49 26t-123 13.5q0 8 6 28t12 29q7 10 25 10q22 0 100.5 -3t108.5 -3h102q5 -45 19 -82q68 -155 226 -450.5t261 -466.5q3 -4 10 -3t10 9
q302 571 465 915q10 20 13 78q90 -1 202 2.5t140 3.5q7 -5 8.5 -31.5t-0.5 -31.5q-102 -7 -134 -25t-34 -65q-3 -117 2 -480q0 -386 2 -464q1 -30 2 -47t5 -35t6.5 -27t12 -19t17 -14t25 -9.5t32.5 -8t43 -6.5q4 -1 7.5 -19.5t3.5 -32.5q0 -16 -11 -16h-147q-161 0 -299 -12
l2 43q1 15 3.5 18.5t10.5 5.5q66 17 81.5 32.5t23.5 68.5q6 59 22 966q2 11 -6 11q-5 0 -6 -4q-13 -23 -77 -157.5t-153 -323t-128 -269.5q-46 -93 -81 -167t-51 -110t-18 -40q-29 -56 -36 -62q-5 -4 -11 -4q-14 0 -25 20q-3 5 -90 189q-285 602 -446 919q-2 -158 -2 -690
q0 -245 12 -319q6 -25 29 -37.5t73 -18.5q22 -3 29 -8t8 -18z" />
    <glyph glyph-name="N" unicode="N" horiz-adv-x="1675" 
d="M47 1284v53q188 -8 285 -8q19 0 28 -6q12 -12 23 -37q11 -22 55.5 -77.5t79.5 -88.5q422 -422 832 -807q0 22 1 168.5t1 233.5q0 285 -11 428q-5 85 -53 100q-25 10 -121 19q-10 5 -10 10l-2 57h229q42 0 119.5 3t106.5 3q15 0 18 -10l12 -43q-94 -20 -135 -45
q-29 -15 -41.5 -86t-19.5 -279q-6 -279 -6 -591q0 -77 3 -179t3 -108q-3 -16 -41 -33q-18 -4 -29 10q-82 121 -206 255.5t-320 328.5q-58 58 -231 229.5t-269 268.5q-10 -192 -10 -377q0 -461 27 -539q10 -32 48.5 -49t112.5 -31l15 -49q1 -4 -5.5 -10t-11.5 -6
q-43 0 -130.5 4t-129.5 4q-41 0 -98 -3t-70 -3l-16 59q64 16 93.5 32t38.5 33t15 56q25 212 25 528v228q0 160 -6 206.5t-31 71.5q-27 28 -59 42t-93 20q-16 5 -16 14z" />
    <glyph glyph-name="O" unicode="O" horiz-adv-x="1603" 
d="M809 1366q138 0 268 -52.5t227.5 -141.5t156.5 -214t59 -262q0 -174 -67.5 -312.5t-164.5 -233.5t-217.5 -141t-218.5 -46q-164 0 -326.5 69t-265.5 185q-78 86 -125 212.5t-47 252.5q0 135 57 265t172 233q96 87 227 136.5t265 49.5zM745 1292q-170 0 -307 -149
q-74 -85 -106.5 -205t-32.5 -236q0 -141 47 -262.5t133 -208.5q185 -188 402 -188q81 0 157.5 35.5t139.5 102.5t101 178t38 249q0 311 -191 520q-68 73 -165 118.5t-216 45.5z" />
    <glyph glyph-name="P" unicode="P" horiz-adv-x="1226" 
d="M94 6l-6 49q90 13 119.5 29.5t36.5 69.5q10 82 10 323v330q0 197 -5 295t-22 129q-12 24 -34.5 30.5t-100.5 6.5q-12 0 -12 16q0 21 18 51q15 0 99.5 -4t124.5 -4q177 0 282 6q234 0 397 -121q54 -40 89.5 -98.5t47 -103t11.5 -80.5q0 -94 -34 -161t-105 -138
q-83 -83 -213 -120.5t-267 -37.5h-98q-18 0 -18 -55q0 -108 12 -228q3 -46 18 -69.5t54 -32.5q7 -3 26.5 -6.5t50.5 -9t56 -11.5q10 0 13 -2t3 -10q0 -27 -6 -51q-108 0 -215 1t-111 1q-117 0 -209 -10q-6 0 -8.5 3t-3.5 13zM946 913q0 20 -0.5 33.5t-7 53.5t-18.5 70
t-38.5 69.5t-63.5 64.5t-97 43.5t-135 18.5q-113 0 -133 -25q-19 -11 -21 -47q-3 -56 -7.5 -282.5t-4.5 -313.5q0 -20 4.5 -26t19.5 -11q45 -18 103 -18q109 0 176 24q90 35 156.5 125t66.5 221z" />
    <glyph glyph-name="Q" unicode="Q" horiz-adv-x="1605" 
d="M811 1364q140 0 282.5 -50t245.5 -155q96 -96 139.5 -221t43.5 -246q0 -162 -62.5 -308.5t-183.5 -238.5q-40 -31 -78 -56t-69.5 -42t-51.5 -26.5t-44.5 -20t-28.5 -12.5q-6 -3 -12 -15.5t-3 -19.5q48 -106 141 -189.5t199 -123.5q150 -58 266 -52q87 2 140 15
q20 0 28 -19q2 -4 2 -7v-5.5t-2.5 -6t-4 -5t-7 -7.5t-8.5 -10q-37 -13 -127.5 -27t-157.5 -14q-111 0 -235 31q-154 40 -289 162q-66 59 -174 211q-20 31 -46 46.5t-69 29.5q-75 19 -171.5 59.5t-160.5 97.5q-40 37 -76 82t-72 107.5t-57.5 143t-21.5 167.5q0 340 262 557
q85 69 214.5 118.5t248.5 49.5zM750 1286q-129 0 -248 -98q-107 -88 -156 -218t-49 -313q0 -100 31 -213.5t90 -191.5q46 -62 107 -108.5t120 -70.5t107 -35t84 -11q50 0 143 38t162 111q176 188 176 475q0 275 -150 445q-86 97 -184.5 143.5t-232.5 46.5z" />
    <glyph glyph-name="R" unicode="R" horiz-adv-x="1359" 
d="M96 1266l-6 47q-3 10 8 14q225 4 287 10q141 9 205 9q226 0 356 -93q71 -50 108.5 -120.5t37.5 -145.5q0 -175 -218 -301q-19 -13 -14 -31q10 -44 46.5 -126.5t94.5 -172.5q74 -115 160 -194.5t211 -141.5q24 -12 21 -28q-1 -12 -6.5 -24.5t-8.5 -12.5q-134 13 -237.5 59
t-192.5 129q-58 57 -106 133t-113 199q-36 73 -69.5 93t-127.5 20q-74 0 -98 -6q-26 -9 -26 -31q0 -236 8 -395q3 -42 20 -56q6 -5 19 -10t32.5 -10t35.5 -8.5t39.5 -8t31.5 -6.5q0 -7 -5.5 -27t-8.5 -26q-2 -4 -29 -4q-4 0 -114.5 1t-160.5 1q-44 0 -86 -3t-45 -3
q-30 0 -32 4q-13 13 -13 59q103 20 117 50q27 39 27 446v242q0 164 -4 364q-1 33 -10.5 48t-37.5 27.5t-96 29.5zM895 981q0 122 -85.5 209.5t-219.5 87.5q-89 0 -137 -23q-22 -10 -29 -36q-17 -105 -14 -353q0 -91 2 -137t4.5 -54.5t7.5 -12.5q18 -7 65 -7q125 0 199.5 22
t122.5 79q84 98 84 225z" />
    <glyph glyph-name="S" unicode="S" horiz-adv-x="1122" 
d="M150 -47q-11 0 -21 12q-11 19 -14 74q-4 99 -33 303q-7 17 6 20q42 7 45 7q8 0 12.5 -5t8.5 -20q21 -80 59 -131q51 -74 145.5 -125t192.5 -51q136 0 222.5 80.5t86.5 206.5q0 106 -92 172q-33 26 -86.5 52t-169.5 70t-188.5 84t-118.5 93q-32 36 -54 94.5t-22 111.5
q0 200 172 293q44 26 127 48t174 22q98 0 197 -16q32 -7 57 -7q23 0 49 41q39 4 51 -2q-8 -151 17 -321q6 -17 -6 -25q-14 -14 -47 -22q-7 -2 -13 10q-2 6 -8.5 27t-8.5 28t-8.5 25t-10.5 26t-11 22.5t-14 23t-16.5 19t-20.5 19.5q-31 33 -102 55.5t-146 22.5
q-115 0 -185.5 -66t-70.5 -169q0 -87 55 -150q40 -40 96 -70.5t167 -70.5q218 -80 307 -160q59 -53 83.5 -113t24.5 -137q0 -106 -49.5 -188t-130.5 -127q-62 -33 -169.5 -53.5t-170.5 -20.5q-74 0 -264 31q-21 5 -37 -4q-11 -5 -41 -27q-14 -12 -26 -12z" />
    <glyph glyph-name="T" unicode="T" horiz-adv-x="1456" 
d="M418 8l-6 45q18 2 61 8.5t57 8.5q42 8 62 22.5t26 46.5q19 138 19 463v209q0 442 -10 442h-166q-88 0 -158.5 -9t-100 -18.5t-40.5 -17.5q-17 -11 -30 -38.5t-38 -98.5q0 -4 -6 -5.5t-12 1.5q-35 22 -51 43q60 122 116 303q11 3 39 -4q17 -5 19 -14q0 -53 18 -58
q24 -6 94 -6q61 -2 351 -2q395 0 514 4q80 3 114 13q21 7 37 57q2 8 10 8q25 0 54 -18q6 -3 0 -25q-20 -51 -30.5 -96t-14 -76t-9.5 -109q0 -16 -22 -16q-17 0 -37 4q-10 3 -10 12q0 8 2 53t2 54q0 28 -33 39q-16 7 -89 13.5t-173 6.5h-133q-14 0 -21 -11.5t-8 -41.5
q0 -8 -1.5 -54.5t-3 -139.5t-1.5 -213v-207q0 -355 14 -420q10 -57 45 -74q48 -26 176 -37q9 0 12 -1.5t1 -6.5l-8 -41q-3 -12 -19 -12q-3 0 -122.5 3t-178.5 3q-47 0 -114 -2t-117 -4t-54 -2q-23 0 -26 16z" />
    <glyph glyph-name="U" unicode="U" horiz-adv-x="1538" 
d="M1493 1321l-18 -53q-13 -4 -80 -15q-20 -10 -27 -34q-18 -66 -31 -527q-5 -193 -26.5 -296.5t-87.5 -200.5q-72 -106 -202 -169t-267 -63q-132 0 -240 44t-162 102q-74 76 -103.5 172t-31.5 219q-4 188 4 399q10 280 0 320q-7 26 -35.5 37.5t-101.5 19.5l4 45q0 9 7 11.5
t28 2.5q17 0 95.5 -3.5t103.5 -2.5q44 0 131.5 4t136.5 4q10 0 10 -6q0 -51 -6 -57q-100 -11 -134 -25.5t-46 -52.5q-15 -72 -17 -207q-1 -35 -3 -129.5t-3.5 -178t-1.5 -144.5q0 -251 137 -361q113 -94 305 -94q121 0 190.5 36t113.5 93q58 77 82 191t24 282q0 438 -6 504
q-6 50 -39.5 61t-155.5 11q-6 0 -12 9t-4 15q3 5 12.5 19.5t12.5 19.5q8 8 47 8q5 0 76.5 -1t101.5 -1q136 0 213 6q12 0 6 -14z" />
    <glyph glyph-name="V" unicode="V" horiz-adv-x="1536" 
d="M1503 1266l-61 -4q-29 -4 -47 -15q-58 -91 -123 -227q-49 -101 -182 -400t-203 -468q-10 -24 -39 -70q-7 -11 -51 -102q-7 -15 -19 -15q-38 0 -41 17q-4 7 -75 180q-302 730 -402 932q-55 113 -74 136q-25 30 -75 39q-16 3 -52 7l21 51q4 10 16 10q76 -8 219 -8
q28 0 88.5 2t90.5 2q13 0 6 -37q-3 -14 -6.5 -18t-12.5 -6q-56 -9 -69 -22t-4 -48q42 -116 147 -360q157 -365 262 -584q3 -7 11 -7.5t12 5.5q62 117 276 631q109 260 139 350q6 11 -10 16.5t-57 8.5l-66 4q-6 0 -10.5 4.5t-1.5 11.5q12 34 19 42.5t24 8.5q19 0 83.5 -2
t98.5 -2q33 0 85 2t71 2q20 0 25 -17q2 -6 6 -34q0 -16 -19 -16z" />
    <glyph glyph-name="W" unicode="W" horiz-adv-x="2152" 
d="M676 -12q-26 82 -107 284q-238 598 -342 842q-17 41 -24.5 58t-20.5 38.5t-20.5 27.5t-24 14.5t-32 10.5t-44.5 5q-9 1 -11.5 3.5t-2.5 8.5q0 1 19 39q7 12 30 12q19 0 84 -1t88 -1q36 0 108 2t109 2q7 0 12 -17t5 -34q0 -14 -10 -16q-65 -6 -87.5 -14.5t-19.5 -26.5
q3 -24 21 -76q78 -212 185.5 -474t168.5 -396q3 -8 11 -10t11 5q104 235 267 664q8 21 -2 49q-15 46 -80 219q-13 36 -33.5 45.5t-91.5 12.5q-15 0 -15 10q8 59 33 59q20 0 87.5 -2t109.5 -2q60 0 122.5 2t69.5 2q10 -3 15.5 -32.5t-2.5 -32.5q-84 -9 -100 -20.5t-3 -53.5
q52 -158 159.5 -439t190.5 -481q2 -5 5.5 -6t7 2t6.5 9q55 132 115.5 284.5t135.5 358.5t91 286q7 47 -35 54q-75 5 -100 8q-7 3 -4 14q3 31 8 43t16 12q9 0 45 -1.5l84 -3.5t64 -3q39 0 93 2t56 2q34 0 37 -16l6 -45q0 -8 -8 -8q-77 1 -104 -29t-98 -187q-3 -7 -5 -10
q-83 -179 -350 -860q-5 -10 -22.5 -45.5t-35.5 -73.5t-30 -69q-13 -23 -33 -23q-18 0 -27.5 10t-17.5 33q-24 78 -63 185q-116 336 -240 637q-194 -450 -264 -627q-10 -26 -43 -103.5t-47 -113.5q-6 -14 -15 -17q-13 -8 -39 -8q-16 0 -22 23z" />
    <glyph glyph-name="X" unicode="X" horiz-adv-x="1515" 
d="M1014 1270l-4 59q13 0 122.5 -1t131.5 -1q90 4 139 4q18 0 28 -34q0 -1 5 -19q6 -15 -13 -18q-77 -6 -114 -24.5t-97 -82.5q-213 -223 -362 -424q-13 -16 0 -33q275 -388 389 -524q55 -66 88.5 -82.5t132.5 -30.5l-4 -51q1 -9 -1.5 -11.5t-10.5 -2.5l-106 2
q-107 2 -193 2q-58 0 -118 -3t-62 -3q-21 0 -25 6q-12 14 -12 57q0 6 10 6q5 2 19.5 4t34.5 5.5t32 5.5q29 5 35.5 15t-10.5 32q-23 35 -152.5 213.5t-179.5 245.5q-233 -280 -299 -381q-51 -77 -51 -103q0 -32 110 -32q16 -2 19 -11q2 -9 1 -34.5t-5 -28.5q-119 8 -291 8
q-79 0 -119 -6q-9 0 -14 10q-4 40 2 59q91 10 145 66q54 57 133.5 148t188.5 218.5t116 135.5q7 4 7.5 17t-5.5 20q-15 20 -96.5 134.5t-170.5 235.5t-146 193q-22 13 -46.5 17.5t-80.5 4.5q-15 0 -15 11q-2 16 3 40.5t16 24.5q256 0 309 4q16 1 65.5 3.5t69.5 2.5
q23 0 25 -10l10 -51q6 -16 -14 -16h-95q-25 0 -30 -9.5t6 -29.5q73 -127 321 -449q232 292 283 361q50 65 47 90q0 21 -82 28q-20 0 -20 17z" />
    <glyph glyph-name="Y" unicode="Y" horiz-adv-x="1337" 
d="M526 1323q0 -52 -14 -59q-8 -1 -25 -3.5t-31 -4.5t-26 -5q-31 -5 -20 -30q39 -70 101.5 -167t110.5 -168.5t52 -78.5q3 -3 16.5 -20t20.5 -23q17 -9 39 24q172 243 233 342q45 72 45 97q0 28 -117 33l-2 53q-1 8 2 13t7 5q16 0 84.5 -1.5t113.5 -0.5q160 4 170 4
q27 0 35 -8q2 -9 3 -33.5t-3 -31.5q-73 -3 -107.5 -21.5t-76.5 -67.5q-175 -203 -338 -450q-34 -49 -41.5 -75t-7.5 -103v-129q0 -138 6 -240q1 -27 3 -41t11 -27.5t19.5 -18.5t38 -11t56.5 -9t84 -8h1q1 -5 -5 -28t-10 -33q-8 -8 -34 -8q-245 10 -330 10q-29 0 -92.5 -3
t-89.5 -3q-21 0 -23 8q-8 32 -8 51q0 8 8 8q80 9 118 18.5t48 29.5q11 15 14.5 67t3.5 186v207q0 55 -8 81.5t-39 76.5q-62 102 -118.5 190.5t-94 144.5t-65.5 96t-44.5 63.5t-19.5 27.5q-11 11 -108 8q-10 0 -13 11q-1 9 -1 26t1 23q3 16 13 16q36 0 123.5 -3t109.5 -3
q69 0 135 8q54 4 72 4q14 0 14 -16z" />
    <glyph glyph-name="Z" unicode="Z" horiz-adv-x="1499" 
d="M838 0h-197q-158 0 -308 -4t-177 -4q-24 0 -43 35q-10 17 2 26q63 63 223 244q128 145 394 465.5t370 456.5q7 7 0.5 14.5t-17.5 7.5q-113 10 -286 10q-208 0 -340 -12q-65 -6 -108.5 -35t-82.5 -80q-38 -52 -116 -190l-11 2q-29 7 -35.5 13t-3.5 16q13 56 48.5 162.5
t60 173.5t37.5 100q8 16 14 16q8 0 26.5 -4.5t22.5 -7.5q-2 -43 -1 -56t7 -14q105 -6 310 -6h303q93 0 223.5 4t157.5 4h73q11 0 9 -16q-13 -51 -54 -94q-236 -252 -497 -582q-399 -493 -447 -555q37 -14 353 -14q198 0 301.5 10.5t142 27.5t70.5 54q40 47 120 238
q5 14 43 14q10 0 13 -2.5t2 -9.5q-35 -189 -90 -365q-28 -97 -37 -100q-27 -11 -56 -11q0 41 -3.5 51t-18.5 13q-35 4 -397 4z" />
    <glyph glyph-name="bracketleft" unicode="[" horiz-adv-x="686" 
d="M582 -360q0 -10 -10 -32.5t-23 -23.5q-231 -14 -277 -4q-42 11 -51 64q-9 39 -10.5 155t1.5 318t3 276q0 251 27 940q1 24 12 51t20 35q12 8 113 18t188 11q16 0 27 -55q3 -17 -14 -19q-145 -11 -170 -16q-24 -6 -34.5 -14.5t-14.5 -28.5q-5 -33 -12.5 -134t-16 -323
t-10.5 -481q-5 -609 18 -670q6 -21 15.5 -29.5t29.5 -11.5q35 -6 176 -6q6 0 9.5 -6.5t3.5 -13.5z" />
    <glyph glyph-name="backslash" unicode="\" horiz-adv-x="747" 
d="M549 -150q-12 0 -20 17t-23 76q-278 985 -420 1423q8 7 42 25.5t44 21.5q24 3 29 -20q341 -1173 446 -1514q-1 -12 -35.5 -20.5t-62.5 -8.5z" />
    <glyph glyph-name="bracketright" unicode="]" horiz-adv-x="686" 
d="M137 1382q0 17 4 26t9 12t16 5q118 15 260 15q47 0 53 -105q2 -76 1 -159t-3 -288t-2 -353q0 -225 -10.5 -490t-18.5 -348q-7 -55 -24 -75t-51 -23q-119 -15 -252 -15q-19 0 -23 13q-10 45 -10 57q120 12 180 24q33 8 45 19.5t15 40.5q4 36 10.5 116t14 266t7.5 378v147
v135v115v105t-0.5 86t-1.5 78t-2 60.5t-2.5 52.5t-3.5 38q-2 20 -7 28.5t-19 8.5q-30 1 -60 0.5t-67 -1.5t-41 -1q-10 0 -13.5 6.5t-3.5 25.5z" />
    <glyph glyph-name="asciicircum" unicode="^" horiz-adv-x="1126" 
d="M545 1348q8 0 22 -21q69 -129 199 -381.5t188 -361.5q11 -22 10.5 -32t-12.5 -17q-55 -25 -100 -31q-310 631 -320 651q-237 -471 -315 -647q-3 -7 -43.5 5.5t-54.5 21.5q-21 14 -10 40q14 35 385 734q6 11 18 21t21 14t12 4z" />
    <glyph glyph-name="underscore" unicode="_" horiz-adv-x="1064" 
d="M1065 -160v-106h-1065v106h1065z" />
    <glyph glyph-name="grave" unicode="`" horiz-adv-x="851" 
d="M313 1313q14 0 31 -25q32 -56 89 -181t69 -161q1 -4 -10 -9t-26 -8.5t-28 -4.5q-20 21 -60.5 72.5t-97.5 127.5t-81 107q-3 4 -1.5 14.5t7.5 16.5q14 11 55 31t53 20z" />
    <glyph glyph-name="a" unicode="a" horiz-adv-x="839" 
d="M258 596l-106 -33q-18 -6 -37 -6q-6 0 -15.5 10t-9.5 17q0 21 16 47q27 39 110.5 93.5t129.5 70.5q68 24 113 24q107 0 170 -74q39 -41 39 -98q0 -74 -3 -216t-3 -208q0 -147 51 -147q22 0 100 26q4 3 12.5 -5t8.5 -13l-5 -37q0 -14 -12 -20q-21 -13 -99.5 -33
t-127.5 -21q-64 0 -84 107q-235 -103 -260 -103q-59 0 -117 43q-23 21 -40 61.5t-17 96.5q0 62 88 107q139 73 352 108q4 27 4 148q0 118 -35 149q-13 13 -46.5 23t-67.5 10q-54 0 -82 -14q-15 -7 -15 -86q0 -23 -12 -27zM334 82q38 0 129 41q22 16 32 27t13 28q6 75 6 131
q0 25 -10 25q-177 -29 -242 -80q-20 -13 -20 -59q0 -56 20.5 -84.5t71.5 -28.5z" />
    <glyph glyph-name="b" unicode="b" horiz-adv-x="1001" 
d="M930 463q0 -158 -75.5 -262.5t-219.5 -180.5q-58 -32 -146 -32q-70 0 -151 6q-85 3 -135 -4q-25 -7 -41 6q-19 26 -23 96.5t-4 325.5v422q0 268 -2 297q-5 47 -18.5 70.5t-65.5 62.5q-24 24 2 43q3 2 65.5 40t110.5 64.5t60 26.5t12 -70q0 -3 -5 -202t-5 -429q0 -6 9 -11
t15 -3q243 90 265 92q51 2 113 -21t106 -67q63 -62 98 -134.5t35 -135.5zM774 377q0 123 -86 219q-55 65 -109 85.5t-116 20.5q-49 0 -96 -13.5t-64 -26.5q-16 -13 -18 -46q-6 -99 -6 -274q0 -150 67 -209q84 -76 162 -76q74 0 143 56q65 53 94 114.5t29 149.5z" />
    <glyph glyph-name="c" unicode="c" horiz-adv-x="788" 
d="M549 821q55 0 109.5 -18t84.5 -49q15 -15 15 -29q0 -20 -21.5 -42.5t-44.5 -35.5q-32 -16 -47 -8q-12 4 -45 27q-83 51 -154 51q-86 0 -137 -51q-69 -69 -69 -242q0 -85 20 -149.5t45 -92.5q42 -49 94.5 -71.5t96.5 -22.5q42 0 104.5 26t114.5 58q5 2 14.5 -3t9.5 -9
q0 -12 -6.5 -34.5t-15.5 -29.5q-20 -17 -78 -46t-109 -48q-61 -20 -114 -20q-56 0 -119.5 22t-110.5 59q-42 36 -77 105.5t-35 157.5q0 69 12 125t34 94t36 56t36 39l5 5q59 61 182 127q90 49 170 49z" />
    <glyph glyph-name="d" unicode="d" horiz-adv-x="1032" 
d="M74 340q0 187 151 328q58 53 151 97t163 44q34 0 79 -6.5t66 -14.5q5 -2 13 3.5t8 13.5q4 58 4 143q2 183 -7 277q-1 16 -6 23.5t-25.5 14t-66.5 13.5q-15 3 -18 16l-4 17q-3 11 6 14q155 64 239 115q9 6 27 6q14 -4 14 -33q0 -38 -6 -371t-6 -473v-248q0 -158 12 -217
q4 -30 27 -30q28 0 92 28q21 4 23 -4q10 -33 10 -59q0 -15 -22 -22q-2 -1 -3 -1q-48 -14 -140 -34.5t-107 -20.5q-11 0 -23.5 12.5t-15.5 28.5q-4 58 -4 102q-110 -54 -196 -88t-108 -34q-58 0 -115.5 28t-97.5 66q-55 52 -84.5 127t-29.5 139zM449 715q-31 0 -73.5 -16
t-72.5 -46q-33 -33 -53.5 -84.5t-20.5 -111.5q0 -189 113 -291q69 -60 166 -60q32 0 87 14.5t79 31.5q15 7 19.5 13t6.5 17q7 65 6.5 215.5t-8.5 206.5q-1 12 -2.5 18t-8.5 14.5t-21 18.5q-91 60 -217 60z" />
    <glyph glyph-name="e" unicode="e" horiz-adv-x="815" 
d="M471 813q47 0 95.5 -22t76.5 -52q58 -58 80 -133q6 1 24.5 4t25.5 3.5t15 -1.5q9 -6 3 -18q-4 -17 -14.5 -37.5t-22.5 -24.5q-52 -12 -247 -52.5t-245 -55.5q-14 -3 -14 -37q4 -145 72.5 -216t177.5 -71q127 0 243 101q9 9 28 6q4 -2 5 -4q-2 -60 -18 -76
q-110 -93 -254 -135q-34 -10 -76 -10q-65 0 -125 24t-88.5 46.5t-46.5 43.5q-34 36 -63 102.5t-29 153.5q0 126 61 228.5t154 167.5q39 28 89.5 46.5t92.5 18.5zM563 584q0 46 -51.5 98.5t-110.5 52.5q-25 0 -51 -20q-44 -30 -68.5 -96t-21.5 -134q50 14 144 34t137 32
q22 3 22 33z" />
    <glyph glyph-name="f" unicode="f" horiz-adv-x="583" 
d="M580 680h-54q-8 0 -61.5 1t-102.5 1q-8 0 -11.5 -4.5t-6 -25.5t-2.5 -66v-373q0 -58 3 -87t8 -38.5t16 -9.5q7 0 55.5 3t56.5 3q17 0 17 -47q0 -27 -4.5 -32t-24.5 -5h-215q-24 0 -97.5 -5t-86.5 -5q-8 0 -10 3t-1 13q4 29 9 37t16 10q22 6 34 9t25 11t18.5 12.5
t12.5 19.5t8.5 25.5t3.5 37.5t2 49v66v358q0 25 -9.5 33.5t-43.5 11.5l-59 6q-6 0 -12 5t-3 10l19 32q9 21 20 23q1 0 19 4.5t37 8.5t32 5v111q0 132 25.5 218.5t97.5 158.5q93 93 230 147q73 25 114 25q43 0 88 -19t60 -45q10 -15 10 -35q0 -26 -49 -79q-13 -13 -31 -13
q-21 0 -84 39q-41 25 -63.5 34t-50.5 9q-54 0 -101 -47q-44 -44 -64 -150.5t-20 -326.5q0 -11 7.5 -18t15.5 -7q28 0 73.5 3t80 5.5t36.5 2.5q10 0 20.5 -8.5t12.5 -16.5q6 -18 6 -68q0 -20 -22 -20z" />
    <glyph glyph-name="g" unicode="g" horiz-adv-x="874" 
d="M461 836q72 0 155 -45q13 -9 35 -9q17 0 96 12.5t101 12.5q11 0 25 -10t16 -17q1 -4 4.5 -30.5t3.5 -32.5q0 -24 -35 -27h-174q55 -87 55 -178q0 -105 -71.5 -195.5t-190.5 -136.5q-83 -32 -170 -78q-16 -10 -16 -26q0 -26 30 -41t74 -15q13 0 88.5 2.5t83.5 2.5
q149 0 234 -62q57 -42 57 -143q0 -48 -15.5 -81.5t-58.5 -86.5q-48 -58 -103 -99.5t-81 -54t-67 -28.5q-36 -12 -96.5 -21.5t-104.5 -9.5q-153 0 -232 58t-79 130q0 109 79 160q91 66 152 107q-75 33 -106 58.5t-31 67.5q0 24 14 43q29 26 195 107q-99 25 -166 84
q-42 38 -66 96t-24 119q0 170 157 283q127 84 232 84zM606 440q0 129 -51 209q-26 41 -72.5 71t-109.5 30q-54 0 -105 -45q-53 -42 -53 -146q0 -63 25.5 -129t66.5 -102q83 -72 152 -72q64 0 105.5 44t41.5 140zM420 -453q174 0 258 78q72 61 72 125q0 18 -2 30t-12 28.5
t-29 31.5q-61 45 -177 45t-208 -18q-33 -7 -78 -49q-37 -31 -55.5 -67t-18.5 -62q0 -17 11 -38.5t36 -46t78 -41t125 -16.5z" />
    <glyph glyph-name="h" unicode="h" horiz-adv-x="1052" 
d="M61 -10l-12 33q-8 13 2 16q33 15 47 22t31 22.5t21 26.5t9.5 40t6 57.5t0.5 83.5v817q0 50 -1 71t-11 43.5t-20.5 33t-43.5 40.5q-14 11 2 27q26 21 207 123q19 8 29 -2q4 -8 4 -23q0 -63 -3 -198t-3 -209v-301q0 -5 4.5 -10.5t7.5 -2.5q17 7 102.5 45t114.5 48
q61 20 113 20q66 0 112 -26t70 -74.5t33.5 -103t9.5 -124.5q0 -22 -3 -139.5t-3 -191.5q0 -52 13.5 -67t74.5 -32q13 -3 16.5 -5.5t3.5 -8.5v-31q0 -9 -2.5 -11.5t-11.5 -2.5h-145q-69 0 -207 -12q-7 0 -9 4t-2 22q-4 27 5 33q2 2 24.5 10.5t32.5 14.5q28 13 37 28.5
t14 53.5q8 74 8 231q0 130 -19.5 188.5t-57.5 89.5q-52 39 -123 39q-95 0 -193 -55q-14 -6 -19 -19.5t-5 -43.5v-220q0 -143 12 -223q5 -38 22 -50t84 -19q11 0 13 -52q0 -10 -2.5 -13t-8.5 -3q-259 0 -364 -14q-15 -2 -17 4z" />
    <glyph glyph-name="i" unicode="i" horiz-adv-x="505" 
d="M299 1280q40 0 65 -28t25 -66q0 -50 -30 -80.5t-72 -30.5q-37 0 -63.5 26.5t-26.5 67.5q0 50 32 80.5t70 30.5zM188 432l-6 217q-1 6 -8 10t-31 9.5t-71 13.5q-12 3 -4 16q11 28 15 35t11 8q41 14 119.5 43.5t122.5 44.5q4 2 10 2q4 0 4 -16q-18 -313 -18 -534
q0 -153 2 -166q2 -23 7.5 -31.5t20.5 -7.5q63 4 87 4q4 0 10 -7t6 -12l-8 -53q0 -12 -17 -12q-27 0 -86.5 2t-93.5 2q-40 0 -82.5 -3t-69.5 -6l-26 -3q-14 0 -16 10q-5 18 -5 47q0 10 11 10q57 6 75 18t27 54q6 32 11.5 125.5t2.5 179.5z" />
    <glyph glyph-name="j" unicode="j" horiz-adv-x="458" 
d="M274 1284q41 0 71 -35t30 -69q0 -44 -32.5 -76.5t-72.5 -32.5q-35 0 -66.5 31.5t-31.5 66.5q0 49 27 82t75 33zM326 344v-405q0 -108 -17 -163.5t-57 -107.5q-49 -62 -132 -122t-143 -81q-40 -12 -77 -12q-23 0 -60.5 12t-46.5 29q-17 34 -2 55q11 15 43 44t43 30
q13 3 31 -6q4 -2 33.5 -14.5t48.5 -18.5t30 -6q41 0 72 23q28 24 43 53t19 84q18 184 18 459v122q0 228 -2 265q-1 32 -7 45t-25.5 21t-69.5 16q-5 1 -3.5 23t7.5 26q206 89 233 108q13 10 25 6t12 -26q0 -3 -8 -170.5t-8 -288.5z" />
    <glyph glyph-name="k" unicode="k" horiz-adv-x="987" 
d="M37 8l6 29q3 20 14 22q51 11 66.5 18t21.5 23q23 80 23 535q0 45 1 164t0.5 204t-3.5 160q-1 48 -7 67t-20 32q-11 9 -24.5 20t-22 18t-12.5 11q-10 8 -10.5 20t4.5 17t39 20.5t70.5 31.5t73.5 31.5t40 16.5q15 5 22 -2.5t7 -28.5q0 -205 -2 -311l-9 -637q0 -25 13 -25
q14 0 57 37q26 19 113.5 97.5t124.5 119.5q9 10 3.5 17.5t-18.5 7.5h-59q-13 0 -10 14l10 41q3 17 14 17q231 4 359 16q12 0 12 -8q0 -25 -4 -39q-5 -18 -27 -21q-93 -12 -172 -65q-61 -45 -229 -180q-12 -12 -13 -20.5t13 -28.5q33 -36 124 -128.5t144 -142.5
q76 -73 107.5 -91t111.5 -30q7 -1 8.5 -9t1.5 -40q0 -10 -2 -13t-10 -3q-61 0 -100 2q-42 3 -262 0q-10 0 -13 8l-10 25q-8 25 2 28q54 6 54 18q1 5 -7 13q-88 88 -272 276q-37 37 -55 37q-8 0 -11 -39q-2 -31 -2 -151q0 -135 27 -135q9 0 43 2t43 2t10.5 -3.5t1.5 -19.5
q0 -31 -6 -49q-5 -10 -20 -10q-2 0 -20.5 1t-54.5 2t-83 1q-43 0 -115.5 -2t-87.5 -2q-7 0 -9.5 2t-2.5 10z" />
    <glyph glyph-name="l" unicode="l" horiz-adv-x="493" 
d="M43 -6l2 16q0 30 10 37q25 10 49 19q29 10 38.5 21t11.5 32q18 321 18 772q0 189 -4 311q-1 43 -20.5 54.5t-92.5 17.5q-5 1 -4 8t8 37q3 9 21 12q129 46 248 103q4 2 8 2q6 -2 6 -17q-25 -364 -25 -1044q0 -106 1.5 -160t8.5 -89.5t17.5 -44.5t30.5 -9q17 0 51 2t35 2
q13 0 10 -13q-3 -25 -10 -55q0 -8 -15 -8q-72 0 -210 -4.5t-183 -11.5q-10 0 -10 10z" />
    <glyph glyph-name="m" unicode="m" horiz-adv-x="1556" 
d="M985 51v-51q-301 0 -383 -8q-6 0 -6 6q0 29 2 39q0 11 6 14q58 17 73 27.5t17 32.5q15 103 15 370q0 63 -6 92.5t-21 51.5q-51 55 -141 55q-78 0 -187 -74q-21 -15 -24 -41q-4 -78 -4 -258q0 -65 0.5 -97.5t4.5 -64.5t8 -43t17 -22.5t25.5 -13.5t38.5 -5q16 0 16 -12
q0 -6 -2.5 -27.5t-3.5 -21.5q-6 0 -79 -1t-95 -1q-93 0 -166 -10q-4 1 -6 21t0 36q8 2 31 11.5t28 11.5q23 8 25 36q10 62 10 252q0 147 -6 222q-3 24 -11 30.5t-40 12.5q-33 4 -41 16q-3 3 -7 18.5t-1 18.5q154 113 196 135q19 12 37 12q19 0 19 -18l-2 -150q13 8 60 37.5
t90.5 55t74.5 40.5q36 19 71 19q77 0 129.5 -36t100.5 -107q17 10 50 28t44.5 24.5t32.5 18t32 16.5t25 11.5t27 11.5q67 27 121 27q29 0 65 -13t62 -36q21 -18 34 -38.5t26.5 -77.5t16.5 -145q2 -104 2 -284q0 -95 9 -113q9 -15 33.5 -22.5t91.5 -18.5q10 0 10 -12
q0 -6 -6.5 -28.5t-10.5 -22.5h-139q-64 0 -188 -11q-9 0 -12 9q-7 21 -7 37q0 10 7 12q46 16 51 45q14 82 14 274q0 206 -51 271q-20 30 -51 41.5t-84 11.5q-86 0 -179 -57q-12 -7 -15 -14t-3 -25q-2 -103 0 -259t8 -208q3 -23 18.5 -29.5t92.5 -17.5q10 0 10 -17z" />
    <glyph glyph-name="n" unicode="n" horiz-adv-x="1038" 
d="M72 2l4 45q51 19 70.5 36t23.5 56q14 83 14 283q0 73 -6 190q0 15 -18 24.5t-84 25.5q-1 2 -4 4.5t-3.5 3.5t-1 5t1 9.5t3.5 15.5q0 8 18 17q61 28 120.5 59.5t68.5 38.5q9 6 22 6q8 0 14.5 -4t6.5 -10q4 -70 4 -109q0 -18 10 -18q91 51 180 92q60 29 115 29
q82 0 139 -45q76 -56 92 -203q4 -41 4 -178q0 -88 1 -181t1 -104q0 -20 9 -20q10 0 52.5 3.5t55.5 4.5q10 0 10 -21q0 -29 -10 -49q-4 -10 -16 -10q-104 0 -200 -5t-122 -5q-22 0 -24 8l-11 41q47 18 65.5 36.5t24.5 59.5q13 77 13 281q0 99 -7.5 142.5t-41.5 78.5
q-48 51 -138 51q-35 0 -85.5 -17t-86.5 -38q-19 -15 -22 -49q-4 -72 -4 -476q0 -21 16 -28t94 -19q16 -3 13 -14l-13 -45h-174q-46 0 -109.5 -5t-78.5 -5q-6 0 -6 12z" />
    <glyph glyph-name="o" unicode="o" horiz-adv-x="978" 
d="M524 819q45 0 95.5 -16t101.5 -50t92 -81.5t66.5 -117.5t25.5 -151q0 -73 -20 -136.5t-50 -104t-52 -62.5t-38 -32q-144 -88 -274 -88q-69 0 -163.5 39t-147.5 110q-43 56 -64.5 128.5t-21.5 133.5q0 63 22.5 131t59.5 115q55 71 137 117q52 28 118.5 46.5t112.5 18.5z
M436 741q-62 0 -106 -47q-78 -78 -78 -272q0 -163 100 -272q88 -93 193 -93q62 0 100 35q88 88 88 244q0 100 -30.5 189t-92.5 145q-32 30 -79 50.5t-95 20.5z" />
    <glyph glyph-name="p" unicode="p" horiz-adv-x="1019" 
d="M31 -520l-15 47q41 5 68.5 17t41 32t19 36.5t9.5 41.5q16 140 16 471v225q0 206 -14 260q-3 18 -17 25t-61 10q-8 0 -16 10.5t-11 32.5q62 55 217 156q20 15 37 12q10 -2 10 -12v-139q253 104 289 104q55 0 114.5 -22.5t104.5 -65.5q123 -110 123 -291q0 -80 -39 -160.5
t-96 -130.5q-33 -29 -109.5 -73.5t-150.5 -71.5q-29 -10 -64 -10q-83 0 -149 20q-5 2 -11.5 -5t-7.5 -17q-4 -50 -4 -224q0 -88 4.5 -127t13 -49.5t29.5 -13.5q35 -2 117 -2q16 0 13 -15l-11 -34q-3 -15 -6.5 -19t-15.5 -4q-18 -1 -196.5 -10t-223.5 -10q-5 0 -8 6zM797 365
q0 144 -88 237q-89 98 -205 98q-45 0 -99.5 -19.5t-85.5 -45.5q-8 -5 -8 -49v-125q0 -100 17 -283q7 -26 26 -37q83 -55 195 -55q83 0 153 51q40 30 67.5 88.5t27.5 139.5z" />
    <glyph glyph-name="q" unicode="q" horiz-adv-x="985" 
d="M868 811q6 0 6 -12q-28 -259 -28 -615v-223q0 -268 12 -367q3 -21 23 -18q34 0 90 8q6 0 13 -5.5t7 -10.5q0 -48 -6 -72q-201 0 -444 -28q-2 4 -7 12t-8.5 15.5t-5.5 15.5q-3 4 1 11t9 9q7 2 51 12t70 15q15 3 21.5 8t7.5 18q16 144 16 336v115q0 5 -8 9t-16 1
q-187 -70 -240 -70q-62 0 -128.5 27.5t-104.5 58.5q-48 40 -86.5 119t-38.5 172q0 157 119 293q34 35 124 87t160 71q63 10 74 10q45 0 100.5 -12t75.5 -23q26 -15 51 -4q72 37 90 37zM473 727q-85 0 -151 -72q-30 -33 -52 -97.5t-22 -135.5q0 -96 28.5 -160.5t85.5 -114.5
q43 -39 96 -57t85 -18q16 0 58.5 13t64.5 26q25 13 30 43q4 50 4 168q0 81 -1 169.5t-1 94.5q0 38 -26 67q-71 74 -199 74z" />
    <glyph glyph-name="r" unicode="r" horiz-adv-x="718" 
d="M92 14l19 47q36 12 47 21t14 29q4 23 4 256v184q0 39 -13 53t-71 31q-11 4 -18 19.5t-4 25.5q37 24 114.5 70.5t110.5 68.5q16 8 24 8q7 0 12.5 -9.5t2.5 -22.5q-1 -17 -3 -48.5t-3 -58.5t0 -55q24 12 107 75t85 64q37 29 60 29q40 0 76 -31t36 -65q0 -22 -25 -57
t-44 -52q-21 -14 -35 -14q-15 0 -27 12q-33 47 -78 47q-56 0 -137 -68q-11 -9 -14.5 -37t-3.5 -100v-256q0 -75 8 -88q10 -16 37 -14l110 4q7 0 13 -6.5t4 -12.5l-13 -63h-270q-31 0 -74 -2t-45 -2q-15 0 -6 18z" />
    <glyph glyph-name="s" unicode="s" horiz-adv-x="720" 
d="M655 205q0 -97 -98 -168q-82 -55 -207 -55q-36 0 -176 18q-23 5 -37 4.5t-33 -8.5q-12 0 -18 4q-9 9 -4 23q13 97 0 225q3 13 6 14q15 7 49 14q29 -88 90 -159q69 -74 140 -74q42 0 84.5 33.5t42.5 85.5q0 26 -10.5 50t-22.5 39.5t-36.5 33.5t-38 25.5t-42 22t-33.5 17.5
q-1 1 -26 14.5t-36.5 21t-36.5 24t-39 32.5t-30.5 37t-24 46.5t-7.5 52.5q0 97 90 172q40 31 88.5 47t87.5 16q28 0 74.5 -3.5t60.5 -4.5q27 0 35 4q6 3 16 -2q6 -4 6 -12q3 -89 39 -205q0 -5 -7 -12t-11 -7q-26 0 -36.5 4.5t-23.5 24.5q-12 22 -20.5 36.5t-27 38
t-36.5 37.5t-45 25t-57 11q-33 0 -61.5 -28t-28.5 -79q0 -33 12.5 -59.5t40.5 -49t51 -35.5t64 -34q5 -3 25 -12.5t34.5 -17t38 -22t40 -28t36 -33.5t31.5 -40.5t20 -48t8 -56.5z" />
    <glyph glyph-name="t" unicode="t" horiz-adv-x="645" 
d="M317 944q7 0 7 -12q0 -15 -5.5 -80.5t-5.5 -73.5q52 0 155 5t136 5q14 0 18.5 -4.5t4.5 -17.5q0 -23 -13 -70q-4 -18 -30 -18q-21 -1 -112 -2.5t-153 -3.5q-9 0 -12 -29q-4 -61 -4 -418q0 -66 41 -102.5t111 -36.5q35 0 62.5 10t66.5 35q13 8 16 0q6 -24 6 -39
q0 -18 -14 -22q-50 -30 -81.5 -46.5t-80 -31.5t-94.5 -15q-36 0 -81.5 16t-74.5 50q-19 23 -24.5 55.5t-3.5 96.5q3 59 4.5 241t3.5 207q1 9 -5 18t-14 11q-70 0 -84 2q-4 0 -9 8.5t-1 11.5q114 102 248 236q11 14 22 14z" />
    <glyph glyph-name="u" unicode="u" horiz-adv-x="1026" 
d="M295 815q11 0 16 -8t8 -25q3 -33 -2 -143q-12 -288 -12 -410q0 -66 54 -101.5t112 -35.5q96 0 193 68q20 10 22 43q14 107 14 252q0 179 -20 215q-8 13 -28.5 20.5t-78.5 22.5q-13 3 -16 12q-8 24 -8 39q0 6 8 6q4 1 50 7t110.5 12t103.5 6q25 0 31 -25q4 -35 2 -90
q-1 -15 -3 -59t-3.5 -92t-1.5 -105v-199q0 -65 10 -125q3 -13 16 -10q4 1 20.5 4.5t41.5 9t45 9.5q5 2 13 -5t7 -14q-15 -69 -28 -69q-35 -3 -79.5 -11t-76.5 -15.5t-61 -15t-33 -8.5q-22 0 -29 11q-14 17 -14 26l4 88q-30 -15 -104.5 -53t-79.5 -41q-60 -31 -129 -31
q-125 0 -187 97q-24 40 -24 131q0 123 2 263t2 157q0 26 -12 39.5t-68 39.5q-19 11 -21 33q-1 15 1.5 20.5t11.5 8.5q11 2 110.5 26.5t110.5 24.5z" />
    <glyph glyph-name="v" unicode="v" horiz-adv-x="833" 
d="M389 786v-22q0 -16 -12 -25q-70 -34 -90 -51q-6 -2 -5 -18t15 -56q23 -80 70 -217t69 -182q10 -16 19 6q105 211 159 361q29 85 29 96q2 18 -18.5 29.5t-75.5 23.5q-10 2 4 37q4 13 7.5 16.5t10.5 3.5q38 0 112 3.5t101 3.5q14 0 25 -11q7 -7 12 -22q6 -15 -4 -29
q-23 -30 -48 -68t-54 -89.5t-48.5 -87.5t-52.5 -102.5t-45.5 -91.5t-47 -97t-38.5 -80q-36 -77 -45 -111q-6 -19 -16 -22q-25 -7 -43 -7q-9 0 -15.5 9.5t-15.5 33.5q-8 20 -36.5 100t-75 210t-86.5 237q-4 10 -12.5 32.5t-11 28.5t-9.5 22.5t-10 21l-10 15t-12.5 14t-14 10
t-18 10t-21.5 6.5q-1 0 4 14.5t11.5 29.5t10.5 15q197 0 320 7q10 0 12 -7z" />
    <glyph glyph-name="w" unicode="w" horiz-adv-x="1345" 
d="M367 774l12 -39q-61 -12 -73 -25t-3 -53q22 -88 164 -440q2 -8 8 -7t8 5q103 227 152 344q8 16 -2 55q-23 71 -40 87t-83 26q0 20 10 43q3 16 23 16q143 -2 309 5q3 -56 -8 -62q-54 -10 -67.5 -21.5t-4.5 -37.5q88 -278 158 -463q2 -5 8.5 -5t9.5 5q93 200 148 358
q36 109 34 121q0 26 -124 43q0 8 6 29.5t10 25.5q195 3 217 4q15 1 38.5 3t33.5 2q5 0 7 -0.5t3.5 -3.5t1.5 -9v-26q0 -10 -4 -15t-23 -12q-22 -11 -35 -29.5t-42 -72.5q-21 -42 -110 -237t-105 -230q-63 -139 -70 -160q-8 -25 -53 -25q-22 0 -29 23q-105 304 -170 465
q-2 5 -6 6.5t-6 -4.5q-140 -297 -209 -471q-8 -19 -23 -19q-18 0 -26 2q-20 7 -27 35q-100 281 -233 602q-27 64 -46.5 84t-68.5 27q-10 5 -8 12l14 35q2 14 14 14q54 0 148 3.5t143 3.5q10 0 13.5 -3.5t5.5 -13.5z" />
    <glyph glyph-name="x" unicode="x" horiz-adv-x="888" 
d="M51 743v29q0 16 10 16q51 -2 156 -2q27 0 86.5 2.5t97.5 2.5q5 -6 1.5 -30t-9.5 -28q-40 -12 -45.5 -23.5t10.5 -41.5q48 -91 113 -185q45 48 99.5 117t54.5 96q0 12 -14.5 20t-55.5 17q-1 5 8.5 26.5t14.5 28.5q36 0 178 5q92 6 106 6q9 0 4 -19q-9 -45 -28 -51
q-55 -16 -111 -72q-129 -129 -213 -227q-6 -9 2 -24q108 -189 180 -271q25 -32 60 -47t102 -31q19 -3 12 -20q-4 -6 -8 -12.5t-8.5 -13t-5.5 -7.5q-8 -10 -21 -10q-157 9 -194 8q-43 0 -99 -4t-61 -4q-27 38 -27 53q2 1 9.5 3.5t13 4.5t14.5 5.5t15 7.5t12 8.5t9 9.5t3 10
q0 18 -49 102.5t-76 120.5q-147 -172 -145 -221q0 -13 17.5 -27t41.5 -22q5 -5 4.5 -20.5t-4.5 -20.5q-3 -6 -14 -6q-133 0 -219 -8q-11 0 -15 6q-2 3 -8 15.5t-10 19.5q-4 11 10 28q3 2 24.5 23.5t41.5 38.5q140 140 233 240q11 13 -6 43q-112 191 -157 244.5t-121 74.5
q-19 6 -19 16z" />
    <glyph glyph-name="y" unicode="y" horiz-adv-x="884" 
d="M575 739q0 27 9 45q96 0 192 7q37 2 70 2q13 0 18 -7q6 -6 12.5 -28t4.5 -27q-54 -17 -82 -51t-76 -123q-197 -379 -291 -614q-116 -299 -135 -369q-12 -45 -12 -88q0 -17 -6 -23q-19 -12 -46 -12q-54 0 -90 31q-31 21 -8 65q11 16 105 193t100 201q12 33 0 77
q-94 305 -211 623q-15 39 -30 52t-54 22q-16 7 -16 14q0 3 1 7t4 14t5 20q4 10 8.5 12t15.5 2q82 0 177 4.5t122 4.5q18 0 21 -7q5 -8 10 -26t4 -25q-79 -24 -94 -39.5t-2 -66.5q101 -359 152 -459q124 229 202 446q19 52 8 70.5t-79 36.5q-9 2 -9 16z" />
    <glyph glyph-name="z" unicode="z" horiz-adv-x="870" 
d="M612 653h-100q-200 0 -287 -6q-9 0 -16.5 -1.5t-14.5 -6t-12 -7.5t-10.5 -11t-9 -13t-9 -16.5t-8 -17.5t-9 -21.5t-9.5 -22.5q-6 -20 -16 -20q-5 0 -23.5 9.5t-24.5 15.5q-10 14 -4 32q79 164 146 285q16 0 39 -10q6 -3 6 -15q0 -3 -1 -17t-1 -22q0 -14 49 -14
q370 0 483 12q11 1 25.5 3t19.5 2q4 0 13.5 -12.5t9.5 -16.5q-1 -4 -16.5 -24t-45.5 -53.5t-63 -66.5q-41 -40 -176.5 -193t-220.5 -255q-6 -6 -9 -13t-2.5 -12t4.5 -6q34 -15 240 -12q110 0 168 12q22 6 53 66q19 35 27 35q7 0 22.5 -15t18.5 -24q9 -15 0 -27
q-56 -112 -131 -291q-21 5 -35 19q-8 6 -8 14q0 34 12 70q-33 16 -420 14q-53 0 -92 -2t-57 -4t-19 -2q-10 0 -16 4q-7 4 -16 18t-13 23q146 129 293.5 280.5t265.5 296.5q10 11 10.5 24.5t-10.5 14.5z" />
    <glyph glyph-name="braceleft" unicode="{" horiz-adv-x="686" 
d="M557 -440q-165 0 -253.5 78.5t-88.5 234.5q0 42 25.5 194.5t25.5 194.5q0 98 -33 145.5t-118 77.5q-25 10 -40.5 28.5t-15.5 31.5q0 5 2 8.5t4 5.5t3 2q198 42 198 201q0 40 -20.5 189.5t-20.5 170.5q0 179 137 269q107 71 226 71q12 0 12 -10q0 -33 -12 -41
q-18 -15 -49 -20q-87 -19 -136 -79.5t-49 -146.5q0 -62 26 -188.5t26 -177.5q0 -75 -58 -144t-147 -112q120 -58 162.5 -127t42.5 -170q0 -36 -12 -96.5t-26 -117.5t-16 -67q-14 -77 -14 -133q0 -54 43.5 -104.5t98.5 -79t98 -29.5q24 -3 24 -18q0 -11 -16.5 -26t-28.5 -15z
" />
    <glyph glyph-name="bar" unicode="|" horiz-adv-x="569" 
d="M215 1597h137v-2129h-137v2129z" />
    <glyph glyph-name="braceright" unicode="}" horiz-adv-x="686" 
d="M129 1462q166 0 255 -77.5t89 -233.5q0 -43 -25.5 -196t-25.5 -195q0 -98 33 -145.5t118 -77.5q25 -8 40.5 -27.5t15.5 -32.5q0 -14 -8 -14q-199 -44 -199 -203q0 -39 20.5 -188.5t20.5 -171.5q0 -178 -135 -269q-110 -71 -228 -71q-12 0 -12 10q0 35 12 43q23 14 50 18
q90 19 138 78t48 148q0 64 -25.5 189.5t-25.5 176.5q0 75 58 143.5t146 112.5q-119 59 -161.5 128t-42.5 171q0 48 25.5 161.5t25.5 117.5q16 88 16 133q0 87 -79.5 150t-161.5 63q-10 0 -17.5 6.5t-7.5 11.5q0 10 16 25.5t27 15.5z" />
    <glyph glyph-name="asciitilde" unicode="~" horiz-adv-x="1267" 
d="M424 651q31 0 61 -7.5t50.5 -15.5t50.5 -28.5t42 -29.5t44.5 -37.5t40.5 -34.5q76 -62 114.5 -81.5t71.5 -19.5q49 0 72.5 57t23.5 177q0 14 32 6q23 -5 73 -23q3 -153 -53 -246t-181 -92q-53 0 -116 42t-154 126q-107 93 -186 93q-50 0 -82 -36t-43 -85.5t-11 -112.5
q-8 -12 -86 -12q-10 0 -14 5t-4 19q0 62 12.5 117.5t39.5 107t79 82t123 29.5z" />
    <glyph glyph-name="uni00A0" unicode="&#xa0;" horiz-adv-x="440" 
 />
    <glyph glyph-name="exclamdown" unicode="&#xa1;" horiz-adv-x="509" 
d="M383 670q0 -10 -14 -15q-8 -5 -27.5 -11t-26.5 -9q-21 -6 -30.5 -20t-18.5 -52q-3 -9 -23 -20t-28 -11q-18 0 -22 27q-27 73 -76 90q-17 8 -23.5 16.5t-9.5 30.5q-2 11 18 23q48 21 63 37.5t32 70.5q3 17 22 13q38 -3 57 -56q8 -19 22 -33t23 -18.5t37 -17.5
q11 -4 18 -18.5t7 -26.5zM211 -473q-9 0 -16 12q-52 75 -91 109q-10 10 -10 22q0 18 8 39q33 86 54 250q8 56 25 228.5t18 177.5q4 21 12 26q32 8 41 8q8 0 10 -2t2 -12q0 -19 19 -375q13 -238 53 -301q12 -16 12 -37q0 -8 -6 -14q-70 -67 -102 -121q-10 -10 -29 -10z" />
    <glyph glyph-name="cent" unicode="&#xa2;" horiz-adv-x="1003" 
d="M631 1010l-43 -641q49 0 98 16t79 32.5t91 55.5q5 3 15 -6.5t10 -20.5q0 -27 -21 -45q-144 -115 -278 -137l-13 -217q0 -8 -26.5 -13t-44.5 -5q-27 0 -27 30l18 203q-173 16 -260 100q-39 38 -71.5 107.5t-32.5 136.5q0 64 13.5 120t29.5 89.5t43.5 66.5t39.5 43.5
t32 26.5q43 36 126.5 76t145.5 55l12 189q0 8 2.5 11t14.5 9q21 5 75 -32l-14 -160q25 2 57 2q43 0 94 -17.5t70 -44.5q16 -26 -2 -57q-12 -23 -34.5 -40t-32.5 -17q-13 0 -43 30q-58 49 -123 54zM305 659q0 -91 55 -171t146 -105q5 69 14 194t16.5 231t12.5 202
q-82 -11 -160 -80q-34 -31 -59 -105.5t-25 -165.5z" />
    <glyph glyph-name="sterling" unicode="&#xa3;" horiz-adv-x="1003" 
d="M463 678h223q67 0 90 14q5 2 11.5 -5.5t5.5 -14.5q-28 -94 -86 -94l-263 2q1 -117 -45 -205.5t-127 -171.5q-12 -14 -4 -22q3 -3 8 -1q28 9 97.5 2.5t132.5 -28.5q110 -41 178 -41q164 0 203 161q13 35 28 35q18 0 35 -12t17 -27q1 -58 -61 -136t-120 -120
q-77 -55 -172 -55q-84 0 -245 84q-86 45 -140 45q-32 0 -60 -21t-63 -69q-15 -21 -34 -18q-22 3 -38.5 19t-17.5 42q0 36 105 117q59 39 101.5 115.5t41.5 175.5q0 93 -10 131h-203q-6 0 -13.5 9t-4.5 15q31 54 82 64q11 0 129 8q0 3 -3.5 55.5t-4.5 85.5q4 120 61 207
q50 78 104.5 129t139.5 109q87 53 170 53q39 0 84 -28t45 -64q0 -18 -12.5 -47t-20.5 -39q-13 -15 -23 -15q-11 0 -24 13q-65 55 -158 55q-90 0 -136 -72.5t-44 -177.5q2 -134 14 -242q0 -20 27 -20z" />
    <glyph glyph-name="currency" unicode="&#xa4;" horiz-adv-x="1003" 
d="M88 1079q0 9 8 13q59 39 94 47q126 -145 156 -183q41 28 94 46t92 18q105 0 177 -49q24 27 72.5 86t70.5 84q50 -33 69.5 -51t12.5 -25q-23 -26 -76 -86t-67 -76q86 -111 86 -237q0 -192 -97 -299q67 -73 156 -177q4 -5 -3 -15t-26 -25.5t-34 -27t-39 -28.5q-9 14 -71 98
t-67 91q-41 -35 -103 -56.5t-122 -21.5q-119 0 -192 61q-22 -23 -71 -83.5t-63 -78.5q-31 12 -59 32.5t-29 37.5q7 20 73 95l65 75q-72 88 -72 240q4 179 123 303q-26 32 -81.5 91.5t-68.5 74.5q-8 6 -8 26zM504 913q-81 0 -148 -53q-104 -80 -104 -248q0 -133 74 -214.5
t186 -78.5q92 0 152 60q42 39 65 107t23 149q0 117 -67 197.5t-181 80.5z" />
    <glyph glyph-name="yen" unicode="&#xa5;" horiz-adv-x="1003" 
d="M135 623l-4 47q-1 7 5.5 12.5t15.5 5.5l241 -6q-25 72 -100 210.5t-146 256.5q-32 57 -127 70q-8 0 -9.5 14t2 30t10.5 21q3 0 48.5 -4.5t94.5 -3.5q35 0 109 4t108 4q9 0 10.5 -16t-4 -32t-14.5 -17q-63 -17 -41 -48q18 -45 41.5 -98.5t71 -156t71.5 -154.5
q12 21 66.5 121t89 165.5t55.5 112.5q8 20 -6 33.5t-61 26.5q-9 13 -1.5 38t25.5 25q17 1 58 -3.5t63 -4.5q31 0 91 4t73 4q3 0 6.5 -15t2 -31t-10.5 -19q-64 -21 -93.5 -44t-78.5 -96q-36 -54 -108.5 -176.5t-123.5 -220.5h269l-13 -68q-3 -9 -10 -11.5t-27 -2.5l-229 2
v-141l272 2q3 0 8.5 -4.5t4.5 -9.5l-21 -66h-264q0 -163 8 -254q3 -29 19.5 -41t70.5 -18q36 -4 66 -4v-56q0 -10 -14 -10h-218q-42 0 -147.5 -5t-116.5 -5q-2 10 -2 43q2 18 10 18q66 7 95 14t40.5 17.5t14.5 32.5q16 94 16 264h-262q-4 -1 -6 1.5t-4 8.5q-5 20 -4 36t5 26
t9 10h264v143l-245 -2q-19 0 -19 21z" />
    <glyph glyph-name="brokenbar" unicode="&#xa6;" horiz-adv-x="569" 
d="M215 1438h137v-746h-137v746zM215 -373v746h137v-746h-137z" />
    <glyph glyph-name="section" unicode="&#xa7;" horiz-adv-x="903" 
d="M535 1184q47 0 99 -24.5t52 -57.5q0 -10 -11 -38.5t-24 -33.5q-19 -13 -49 2q-58 45 -137 45q-67 0 -103 -42t-40 -87q0 -41 32 -76q167 -170 241 -252t112 -141q73 -112 73 -235q0 -72 -27.5 -160t-62.5 -143q-115 -181 -225 -260q-78 -58 -146 -58q-56 0 -102.5 27
t-46.5 59q0 20 11 43.5t22 36.5q15 15 33 4q74 -49 137 -49q51 0 90.5 22.5t58.5 49.5q17 20 17 47q0 33 -41 71q-9 10 -91.5 107.5t-138.5 159.5q-168 189 -168 354q0 134 125 301q-4 12 -4 35q-1 61 46.5 123.5t107.5 103.5q92 66 160 66zM682 129q0 150 -94 287
q-40 55 -228 252q-79 82 -108 125q-22 -20 -37.5 -61.5t-15.5 -92.5q0 -159 200 -373q122 -133 163 -194t56 -117q64 79 64 174z" />
    <glyph glyph-name="dieresis" unicode="&#xa8;" horiz-adv-x="851" 
d="M596 1206q29 0 29 -6q13 -28 27.5 -40.5t45.5 -24.5q10 -5 9.5 -31t-9.5 -29q-32 -12 -45.5 -31.5t-25.5 -60.5q-3 -7 -30.5 -3.5t-31.5 17.5q-5 12 -9.5 20t-13 15.5t-13.5 11t-19.5 12t-22.5 13.5q-7 5 -7 28t7 27q33 15 45.5 27.5t30.5 46.5q5 8 33 8zM262 1204
q20 0 23 -6q15 -23 20.5 -30t18 -16.5t32.5 -16.5q9 0 8.5 -27t-8.5 -33q-20 -9 -32.5 -21.5t-18 -23.5t-20.5 -43q-1 -7 -25 -7t-27 7q-16 33 -32.5 49.5t-42.5 20.5q-8 2 -12 25t4 32q35 22 47.5 35.5t25.5 46.5q4 8 39 8z" />
    <glyph glyph-name="copyright" unicode="&#xa9;" horiz-adv-x="1558" 
d="M782 1343q195 0 352 -89.5t244.5 -245t87.5 -346.5q0 -186 -87.5 -341.5t-245.5 -247t-353 -91.5q-151 0 -280.5 53t-217.5 144t-138 216t-50 267q0 144 52.5 271t143.5 216.5t219 141.5t273 52zM782 1276q-173 0 -311.5 -80.5t-215.5 -220.5t-77 -311q0 -169 77 -310
t216.5 -224t312.5 -83q129 0 241 49t190 132t122.5 196.5t44.5 239.5q0 170 -76 309.5t-214 221t-310 81.5zM410 655q0 152 98 250q36 36 92.5 65.5t101.5 41.5q81 20 162 20q79 0 127 -16q23 -10 37 6q13 8 43 -2q18 -7 14 -14q-20 -38 -22.5 -99t2.5 -104q-1 -5 -26 -1.5
t-29 7.5q-26 87 -68 123.5t-129 36.5q-34 0 -74 -19t-78 -54.5t-63 -98t-25 -138.5q0 -73 27 -139.5t86.5 -113t140.5 -46.5q74 0 132 43t96 113q9 -5 13 -7.5l12 -7.5t11.5 -9t2.5 -7q-8 -40 -25 -83.5t-31 -69t-18 -25.5q-29 0 -93.5 -7t-103.5 -7q-105 0 -187 31.5
t-130 84t-72 115t-24 131.5z" />
    <glyph glyph-name="ordfeminine" unicode="&#xaa;" horiz-adv-x="657" 
d="M66 696q0 58 65 90q99 48 262 78q5 61 1.5 100t-23.5 60q-7 8 -28 15.5t-44 7.5q-29 0 -57 -7q-13 -6 -13 -65q0 -12 -10 -17l-80 -26q-27 -6 -35 -6q-5 0 -11.5 6t-6.5 14q0 24 23 53q26 31 74.5 65t74.5 42q49 22 104 22q58 0 104 -41.5t46 -101.5q0 -41 -5 -129.5
t-5 -136.5q0 -88 41 -88q11 0 24.5 2.5t22 5.5t19 7t12.5 5q3 2 10.5 -5t7.5 -11q-7 -47 -14 -51q-113 -45 -164 -45q-32 0 -49.5 15.5t-30.5 63.5q-9 -4 -52.5 -25.5t-78 -34.5t-55.5 -13q-57 0 -93 42t-36 109zM385 690l4 113q-102 -9 -160 -41q-32 -13 -32 -43
q0 -31 19 -55.5t54 -24.5q26 0 63.5 17t51.5 34z" />
    <glyph glyph-name="guillemotleft" unicode="&#xab;" horiz-adv-x="927" 
d="M754 750q11 0 33.5 -19.5t29.5 -32.5q6 -26 2 -28q-206 -206 -278 -291q38 -43 127 -142t118 -133q3 -3 3.5 -12t-3.5 -14q-9 -11 -37 -32t-38 -21q-260 305 -281 331q-11 19 23 60q163 193 282 325q7 9 19 9zM389 743q9 0 37.5 -15.5t40.5 -29.5q3 -7 0.5 -15.5
t-6.5 -12.5q-121 -135 -242 -283q35 -40 116.5 -140t108.5 -132q3 -4 2.5 -16t-4.5 -15l-51 -39q-17 -13 -35 2q-43 53 -127.5 166t-119.5 164q-7 18 6 37q14 18 256 319q10 10 18 10z" />
    <glyph glyph-name="logicalnot" unicode="&#xac;" horiz-adv-x="1343" 
d="M168 633l-4 41q-5 39 10 39l858 -2q30 0 44 -0.5t31 -2.5t23.5 -7.5t6.5 -14.5l6 -602q0 -20 -17 -23l-102 -6l2 484q0 43 -22.5 55t-77.5 12l-727 -4q-17 0 -22.5 5.5t-8.5 25.5z" />
    <glyph glyph-name="uni00AD" unicode="&#xad;" horiz-adv-x="667" 
d="M102 340q0 30 11.5 53.5t31.5 32.5q25 17 198.5 76.5t184.5 64.5q14 2 47 -16q7 -4 3 -29q-22 -68 -32 -86.5t-24 -21.5q-8 -2 -95 -22t-180 -42t-130 -33q-8 -2 -11.5 4t-3.5 19z" />
    <glyph glyph-name="registered" unicode="&#xae;" horiz-adv-x="665" 
d="M342 1372q114 0 192 -78t78 -198q0 -116 -80.5 -196.5t-191.5 -80.5q-117 0 -197 80t-80 197q0 116 81 196t198 80zM338 1323q-97 0 -159 -63.5t-62 -163.5t63 -164t160 -64q95 0 157 64t62 164q0 99 -62.5 163t-158.5 64zM219 977l-2 10q-2 15 0 17q26 3 29 20v160
q0 16 -25 22q-6 0 -6 6l-2 15q0 6 4 6q46 0 82 4q16 2 37 2q104 0 104 -74q0 -40 -45 -65q40 -100 88 -113q1 0 1.5 -5.5t-0.5 -11t-3 -5.5q-35 0 -55 6q-21 6 -38 22.5t-24 29t-20 38.5q-7 13 -16 16.5t-29 3.5q0 -41 2 -59q1 -6 2.5 -8t8 -4.5t22.5 -5.5q7 -2 4 -13
l-4 -14h-58h-47h-10zM379 1159q0 22 -13.5 37t-39.5 14q-13 0 -17 -2q-6 -6 -6 -8q0 -6 -2 -23t-2 -30v-37q53 -3 68 12q12 14 12 37z" />
    <glyph glyph-name="macron" unicode="&#xaf;" horiz-adv-x="851" 
d="M207 1057l-6 63q0 17 14 17h430q6 -10 6 -99q0 -12 -7 -15t-28 -3l-374 -2q-19 0 -26.5 7.5t-8.5 31.5z" />
    <glyph glyph-name="degree" unicode="&#xb0;" horiz-adv-x="622" 
d="M330 1327q96 0 158.5 -66t62.5 -165q0 -139 -105 -211q-35 -25 -79 -39.5t-70 -14.5q-97 0 -162 64.5t-65 165.5q0 91 47 156q31 40 95.5 75t117.5 35zM297 1243q-59 0 -92 -40t-33 -103q0 -71 46 -126t114 -54q55 0 86 44t31 103q0 68 -43.5 122t-108.5 54z" />
    <glyph glyph-name="plusminus" unicode="&#xb1;" horiz-adv-x="1343" 
d="M633 1120h86q15 0 17.5 -4t2.5 -26l-4 -406h412q12 0 15.5 -4t4.5 -21l2 -79h-168l-266 -2q0 -59 1 -210.5t1 -232.5q0 -9 -61 0l-29 4q-16 4 -21 11t-5 22l2 406h-435q-8 49 -8 92q0 9 4.5 11.5t18.5 2.5h420l-2 410q0 26 12 26zM176 -76l4 88q0 19 21 19h968
q9 -14 -12 -109z" />
    <glyph glyph-name="twosuperior" unicode="&#xb2;" 
d="M354 1493q95 0 157 -59.5t62 -153.5q0 -96 -67 -178q-19 -22 -103.5 -97.5t-121.5 -103.5q-7 -6 -3 -11t15 -5q35 0 221 12q22 1 35 16t33 58q3 9 10 6q7 -2 24.5 -20t14.5 -25q-3 -5 -25 -48t-42.5 -80.5t-24.5 -37.5q-416 8 -447 8q-7 0 -11 3t-1 7q25 71 49 88
q309 208 309 373q0 59 -31.5 96t-95.5 37q-84 0 -133 -84q-8 -16 -45 -16q-13 0 -16.5 2t-1.5 8q10 34 30.5 77t34.5 54q87 74 174 74z" />
    <glyph glyph-name="threesuperior" unicode="&#xb3;" 
d="M356 1493q80 0 132.5 -50t52.5 -126q0 -17 -6 -33t-11 -26.5t-22.5 -27t-24.5 -22.5t-33.5 -26.5t-33.5 -26.5q184 -49 184 -178q0 -71 -47 -130.5t-115 -92.5q-101 -52 -246 -52q-14 0 -40.5 8.5t-36.5 14.5q-13 8 -13 16q10 19 27 31q39 0 78 4.5t83.5 17.5t78 33.5
t55.5 56t22 81.5q0 48 -41 74t-102 26q-48 0 -82 -10q-12 0 -12 10q0 25 20.5 47.5t44.5 30.5q4 2 20 10.5t21.5 11.5t20 11t20.5 12.5t17.5 13t17 14.5t13.5 15t11.5 17t6 18t2.5 20q0 41 -29.5 68.5t-77.5 27.5q-53 0 -87 -28.5t-70 -83.5q-29 12 -29 41q0 23 12 41
q34 59 92.5 100t126.5 41z" />
    <glyph glyph-name="acute" unicode="&#xb4;" horiz-adv-x="851" 
d="M535 1294q26 0 114 -37q19 -11 8 -30q-22 -19 -140 -160t-122 -145q-9 -9 -14.5 -8t-18.5 16l-30 35q39 86 113.5 207.5t89.5 121.5z" />
    <glyph glyph-name="mu" unicode="&#xb5;" horiz-adv-x="1007" 
d="M416 -31q-59 0 -93.5 22.5t-62.5 71.5q-4 -148 -4 -338.5v-228.5q-20 -17 -72 -37t-69 -20q-6 0 -11 7t-4 17q2 24 9.5 120.5t10 128.5t8.5 113t8 128.5t4.5 116.5t2.5 133q0 24 2 160.5t1.5 249t-5.5 167.5q30 11 80 22t78 11q14 0 14 -20q0 -51 -8 -152
q-14 -165 -14 -332q0 -120 55 -166q35 -32 133 -32q45 0 101 34t82 86q16 30 21 72t5 119q0 160 -4 303q0 76 14 78q20 2 77.5 -2t66.5 -8q3 -51 -2.5 -201.5t-5.5 -173.5v-156q0 -34 1.5 -56t6 -49t16.5 -41t31 -14q39 0 92 82q11 -2 21.5 -17t9.5 -28q-7 -49 -67 -110.5
t-132 -61.5q-56 0 -89.5 51.5t-41.5 137.5q-39 -44 -99 -98t-91 -70q-40 -19 -76 -19z" />
    <glyph glyph-name="paragraph" unicode="&#xb6;" horiz-adv-x="1269" 
d="M86 610q0 147 52 273.5t143 220.5q101 105 273 171t415 66q141 0 190 -14q26 -8 8 -43q-21 -31 -73 -31q-20 1 -87 2t-94 2q-19 0 -27 -8t-9 -30q-21 -189 -21 -1117q0 -104 27 -110q78 -11 207 -8q37 2 52 -1.5t15 -19.5q0 -18 -23.5 -30t-58.5 -17q-53 -8 -131 -8
q-394 0 -608 168q-117 88 -183.5 227t-66.5 307zM524 627q0 -215 24.5 -357t67.5 -194q23 -26 58.5 -44.5t62.5 -23.5q13 -3 20 6t9 25q0 9 1.5 281.5t2 471.5t-1.5 338q-1 71 -6 92t-17 21q-40 0 -81 -24q-26 -14 -51 -47t-38 -74q-51 -150 -51 -471z" />
    <glyph glyph-name="periodcentered" unicode="&#xb7;" horiz-adv-x="450" 
d="M252 559q13 0 27 -51q8 -34 21 -48t60 -32q25 -7 25 -43q0 -14 -12 -20q-58 -12 -72.5 -29t-36.5 -96q-4 -11 -28 -11q-23 0 -35.5 18t-34.5 75q-7 17 -21.5 27t-48.5 22q-14 5 -22 17.5t-8 21.5q0 10 14.5 21.5t28.5 14.5q43 9 57 22t31 60q5 14 20 22.5t35 8.5z" />
    <glyph glyph-name="cedilla" unicode="&#xb8;" horiz-adv-x="851" 
d="M451 10h81l-90 -129q63 -23 96 -53.5t33 -81.5q0 -41 -31 -82.5t-75.5 -71.5t-82 -49.5t-63.5 -27.5l-38 47q57 29 106 72.5t49 68.5q0 31 -22.5 46.5t-89.5 33.5q-27 5 -27 16q0 17 12 31q74 87 142 180z" />
    <glyph glyph-name="onesuperior" unicode="&#xb9;" 
d="M457 846h100q2 -6 -3.5 -38t-12.5 -32q-250 0 -371 -20q-7 0 -13 9.5t-3 14.5q19 27 35.5 35.5t72.5 18.5q11 1 16 6t9.5 30t6 77.5t1.5 148.5q0 179 -4 229q-3 12 -8 15.5t-17 2.5q-100 -16 -110 -16q-30 40 -13 47q107 39 269 117q7 3 17.5 -6t8.5 -17
q-12 -162 -12 -309q0 -201 14 -289q2 -24 17 -24z" />
    <glyph glyph-name="ordmasculine" unicode="&#xba;" horiz-adv-x="722" 
d="M387 1124q43 0 88.5 -18t87 -52t68 -90.5t26.5 -125.5q0 -48 -14 -91t-35.5 -71.5t-38.5 -44.5t-32 -25q-37 -23 -93.5 -41t-95.5 -18q-54 0 -120.5 27.5t-108.5 82.5q-23 30 -38 77.5t-15 86.5q0 85 40 152.5t109 101.5q93 49 172 49zM330 1053q-40 0 -68 -32
t-38.5 -73.5t-10.5 -85.5q0 -115 66 -188q53 -53 114 -53q57 0 91 53t34 121q0 59 -19.5 119.5t-60.5 95.5q-47 43 -108 43z" />
    <glyph glyph-name="guillemotright" unicode="&#xbb;" horiz-adv-x="927" 
d="M174 25q-11 0 -34.5 19.5t-26.5 31.5q-7 23 -4 28q31 32 93 94.5t106.5 109.5t78.5 87q-51 60 -136.5 155.5t-107.5 121.5q-3 3 -3.5 12.5t3.5 15.5q11 11 38.5 31t35.5 19q220 -254 281 -332q14 -18 -21 -58q-211 -243 -284 -325q-7 -10 -19 -10zM539 31q-8 0 -36.5 16
t-39.5 29q-4 7 -2 15.5t6 12.5q163 185 244 285q-36 39 -118 140.5t-110 132.5q-3 4 -2.5 15.5t4.5 14.5l52 37q12 9 18.5 8t17.5 -10q192 -249 246 -330q11 -15 -6 -35q-41 -53 -129.5 -163t-126.5 -158q-10 -10 -18 -10z" />
    <glyph glyph-name="onequarter" unicode="&#xbc;" horiz-adv-x="1609" 
d="M1200 1323q8 0 33.5 -18.5t34.5 -30.5q-218 -330 -454.5 -707.5t-379.5 -634.5q-9 -16 -22 -16q-9 0 -40 23.5t-34 33.5q139 223 417 663t416 662q17 25 29 25zM473 641h98q2 -7 -4.5 -38.5t-11.5 -31.5q-248 0 -371 -20q-7 0 -13 9.5t-3 14.5q20 27 36 35t70 17
q13 2 18 6.5t10 31t6 76.5t1 148q0 181 -4 231q-2 12 -6.5 16t-17.5 3q-106 -17 -113 -17q-27 40 -10 47l270 117q6 3 16 -6t9 -16q-13 -176 -13 -310q0 -194 15 -288q1 -16 5 -20.5t13 -4.5zM1176 188l-359 13q0 50 8 63q46 55 189 211t168 176q23 23 62 48.5t56 25.5
q11 0 14 -26t1 -97q-4 -250 -4 -315q59 0 78.5 5.5t46.5 29.5q2 1 12.5 -2.5t20 -9.5t8.5 -11q-39 -115 -88 -115h-80q0 -13 1 -47t2.5 -83t2.5 -83q-5 -7 -61.5 -19.5t-67.5 -12.5q-5 0 -12.5 10t-6.5 20zM950 287h236l14 293q-192 -203 -250 -293z" />
    <glyph glyph-name="onehalf" unicode="&#xbd;" horiz-adv-x="1609" 
d="M1188 1323q6 0 32 -18.5t35 -30.5q-223 -335 -459.5 -710.5t-377.5 -631.5q-7 -16 -21 -16q-9 0 -38.5 23.5t-32.5 33.5q137 220 414.5 660.5t416.5 664.5q17 25 31 25zM471 641h100q2 -8 -3.5 -39t-12.5 -31q-248 0 -371 -20q-7 0 -13 9.5t-3 14.5q20 27 36 35t70 17
q13 2 18 6.5t10 31t6 76.5t1 148q0 181 -4 231q-2 12 -6.5 16t-17.5 3q-106 -17 -111 -17q-30 40 -12 47l270 117q6 3 16 -6t9 -16q-13 -176 -13 -310q0 -194 15 -288q2 -25 16 -25zM1190 721q93 0 155 -60t62 -153q0 -98 -70 -180q-16 -20 -98.5 -94t-124.5 -107
q-7 -6 -3 -10t15 -4q67 0 222 10q22 1 34 16t31 56q1 7 5 9t7 -1q7 -2 25.5 -20t15.5 -23q-5 -6 -27 -49t-43 -81t-24 -38q-416 8 -446 8q-6 0 -10 3t-3 9q24 66 50 88q311 204 311 371q0 59 -32.5 97t-96.5 38q-84 0 -131 -86q-8 -14 -45 -14q-15 0 -19 2t-2 8q12 36 32 77
t34 52q82 76 176 76z" />
    <glyph glyph-name="threequarters" unicode="&#xbe;" horiz-adv-x="1609" 
d="M1206 1323q7 0 33 -18.5t37 -30.5q-570 -849 -836 -1342q-7 -16 -20 -16q-11 0 -42 23.5t-32 33.5q149 242 427 681t405 644q17 25 28 25zM397 1288q80 0 133.5 -50t53.5 -126q0 -15 -3 -27.5t-11.5 -25.5t-14 -21.5t-21.5 -22.5t-23.5 -20t-29.5 -22.5l-30 -22.5
q184 -52 184 -178q0 -71 -47 -130.5t-115 -92.5q-97 -51 -246 -51q-13 0 -40.5 8t-36.5 14q-13 8 -13 17q3 6 13 16.5t16 13.5q31 0 63 3.5t69 11t68.5 22t58 34.5t41.5 51t15 69q0 50 -40.5 76t-102.5 26q-51 0 -82 -10q-12 0 -12 10q0 25 20.5 47.5t44.5 30.5
q87 45 114 70q36 33 36 73q0 41 -29.5 69t-77.5 28q-37 0 -67.5 -17.5t-48 -38t-41.5 -57.5q-29 12 -29 41q0 23 12 41q33 58 92.5 99.5t126.5 41.5zM1174 188l-359 13q0 53 8 63q38 48 184 207t171 180q25 24 64 49t56 25q11 0 14 -26t1 -97q-4 -250 -4 -315q61 0 81 5.5
t44 29.5q2 1 12.5 -2.5t20 -9.5t8.5 -11q-39 -115 -89 -115h-79q0 -13 1 -47t2.5 -83t2.5 -83q-5 -7 -61.5 -19.5t-67.5 -12.5q-5 0 -12.5 10t-6.5 20zM948 287h236l14 291q-188 -195 -250 -291z" />
    <glyph glyph-name="questiondown" unicode="&#xbf;" horiz-adv-x="663" 
d="M416 522q-24 0 -36.5 6.5t-19.5 26.5q-8 26 -20 40.5t-37 22.5q-21 8 -28.5 14.5t-8.5 20.5q-4 22 0.5 28.5t30.5 18.5q46 28 65 88q3 14 20 22.5t34 8.5q14 0 24 -24q16 -58 60 -82q14 -6 24 -13t12.5 -10t10.5 -14q7 -19 5.5 -25.5t-15.5 -15.5q-48 -21 -67 -37
t-28 -41q-6 -23 -11 -29t-15 -6zM297 -430q-67 0 -123 49.5t-83.5 112.5t-27.5 116q0 140 54 254q51 116 155 121q92 8 121 8q43 0 54.5 29.5t3.5 120.5q21 14 34 27q11 4 13 3t4 -12q9 -30 24 -106.5t15 -124.5q0 -19 -32.5 -65t-43.5 -46h-82q-47 0 -86.5 -6.5t-75 -22
t-56 -44t-20.5 -68.5q0 -167 209 -170q15 0 35.5 -21t20.5 -40q0 -43 -36 -79t-77 -36z" />
    <glyph glyph-name="Agrave" unicode="&#xc0;" horiz-adv-x="1456" 
d="M756 1366q11 0 16 -7t10 -24q22 -70 45 -137.5t37.5 -107.5t45.5 -121t48 -127q68 -186 259 -633q34 -77 69.5 -108.5t118.5 -47.5q2 0 -0.5 -14t-7 -29t-8.5 -18q-170 2 -279 2q-28 0 -60 -2t-53 -3.5t-28 -0.5q-12 0 -15 6q-14 43 -10 55q43 12 63 20t32 22t10.5 31.5
t-11.5 49.5q-12 51 -102 270q-13 31 -35 31q-281 0 -442 -8q-19 -2 -29 -10t-22 -33q-23 -49 -56 -142.5t-33 -129.5q0 -34 22.5 -52t96.5 -41q2 -9 -4 -31t-12 -26q-182 4 -260 0h-76q-10 0 -14 4q-6 11 -9.5 32.5t0.5 26.5q26 7 45.5 18.5t33 22.5t29 35.5t25 41.5
t29.5 57q50 99 410 970q11 25 47 123q2 12 12 17q36 18 62 18zM506 559q4 0 23 -1t53 -2t75 -1q38 0 209 6q8 0 13 10t2 17q-29 78 -66 181t-64 175.5t-55 145.5q-3 6 -11.5 3t-12.5 -12q-108 -251 -203 -499q-1 -3 2.5 -8.5t13 -10t21.5 -4.5zM561 1704q22 0 131 -101.5
t137 -136.5q2 -3 -8.5 -11t-29 -20.5t-21.5 -15.5q-157 74 -311 164q-7 5 -8 15.5t6 21.5q14 22 51.5 53t52.5 31z" />
    <glyph glyph-name="Aacute" unicode="&#xc1;" horiz-adv-x="1456" 
d="M756 1366q11 0 16 -7t10 -24q22 -70 45 -137.5t37.5 -107.5t45.5 -121t48 -127q68 -186 259 -633q34 -77 69.5 -108.5t118.5 -47.5q2 0 -0.5 -14t-7 -29t-8.5 -18q-170 2 -279 2q-28 0 -60 -2t-53 -3.5t-28 -0.5q-12 0 -15 6q-14 43 -10 55q43 12 63 20t32 22t10.5 31.5
t-11.5 49.5q-12 51 -102 270q-13 31 -35 31q-281 0 -442 -8q-19 -2 -29 -10t-22 -33q-23 -49 -56 -142.5t-33 -129.5q0 -34 22.5 -52t96.5 -41q2 -9 -4 -31t-12 -26q-182 4 -260 0h-76q-10 0 -14 4q-6 11 -9.5 32.5t0.5 26.5q26 7 45.5 18.5t33 22.5t29 35.5t25 41.5
t29.5 57q50 99 410 970q11 25 47 123q2 12 12 17q36 18 62 18zM506 559q4 0 23 -1t53 -2t75 -1q38 0 209 6q8 0 13 10t2 17q-29 78 -66 181t-64 175.5t-55 145.5q-3 6 -11.5 3t-12.5 -12q-108 -251 -203 -499q-1 -3 2.5 -8.5t13 -10t21.5 -4.5zM932 1686q22 0 55.5 -26.5
t54.5 -55.5q5 -3 3.5 -11.5t-7.5 -9.5q-36 -19 -185.5 -86t-186.5 -80q-8 6 -24 33.5t-11 32.5q95 78 258 192q16 11 43 11z" />
    <glyph glyph-name="Acircumflex" unicode="&#xc2;" horiz-adv-x="1456" 
d="M756 1366q11 0 16 -7t10 -24q22 -70 45 -137.5t37.5 -107.5t45.5 -121t48 -127q68 -186 259 -633q34 -77 69.5 -108.5t118.5 -47.5q2 0 -0.5 -14t-7 -29t-8.5 -18q-170 2 -279 2q-28 0 -60 -2t-53 -3.5t-28 -0.5q-12 0 -15 6q-14 43 -10 55q43 12 63 20t32 22t10.5 31.5
t-11.5 49.5q-12 51 -102 270q-13 31 -35 31q-281 0 -442 -8q-19 -2 -29 -10t-22 -33q-23 -49 -56 -142.5t-33 -129.5q0 -34 22.5 -52t96.5 -41q2 -9 -4 -31t-12 -26q-182 4 -260 0h-76q-10 0 -14 4q-6 11 -9.5 32.5t0.5 26.5q26 7 45.5 18.5t33 22.5t29 35.5t25 41.5
t29.5 57q50 99 410 970q11 25 47 123q2 12 12 17q36 18 62 18zM506 559q4 0 23 -1t53 -2t75 -1q38 0 209 6q8 0 13 10t2 17q-29 78 -66 181t-64 175.5t-55 145.5q-3 6 -11.5 3t-12.5 -12q-108 -251 -203 -499q-1 -3 2.5 -8.5t13 -10t21.5 -4.5zM756 1704q20 0 241 -221
q11 -7 -8 -29q-14 -7 -69 -29q-17 12 -52.5 40t-77 61t-51.5 41q-10 -6 -55 -39.5t-84.5 -61.5t-46.5 -28q-51 0 -92 28q-2 0 -2 3.5t1 7.5t3 6q17 15 213 178q54 43 80 43z" />
    <glyph glyph-name="Atilde" unicode="&#xc3;" horiz-adv-x="1456" 
d="M756 1366q11 0 16 -7t10 -24q22 -70 45 -137.5t37.5 -107.5t45.5 -121t48 -127q68 -186 259 -633q34 -77 69.5 -108.5t118.5 -47.5q2 0 -0.5 -14t-7 -29t-8.5 -18q-170 2 -279 2q-28 0 -60 -2t-53 -3.5t-28 -0.5q-12 0 -15 6q-14 43 -10 55q43 12 63 20t32 22t10.5 31.5
t-11.5 49.5q-12 51 -102 270q-13 31 -35 31q-281 0 -442 -8q-19 -2 -29 -10t-22 -33q-23 -49 -56 -142.5t-33 -129.5q0 -34 22.5 -52t96.5 -41q2 -9 -4 -31t-12 -26q-182 4 -260 0h-76q-10 0 -14 4q-6 11 -9.5 32.5t0.5 26.5q26 7 45.5 18.5t33 22.5t29 35.5t25 41.5
t29.5 57q50 99 410 970q11 25 47 123q2 12 12 17q36 18 62 18zM506 559q4 0 23 -1t53 -2t75 -1q38 0 209 6q8 0 13 10t2 17q-29 78 -66 181t-64 175.5t-55 145.5q-3 6 -11.5 3t-12.5 -12q-108 -251 -203 -499q-1 -3 2.5 -8.5t13 -10t21.5 -4.5zM670 1634q28 0 84.5 -17.5
t81.5 -17.5q28 0 52.5 20t61.5 64q1 -1 15.5 -10.5t23 -19t4.5 -15.5q-14 -24 -58 -75t-73 -68q-46 -22 -112 -8q-93 24 -121 24t-50.5 -30.5t-29.5 -55.5q-10 -2 -49 -2q-17 0 -19 2.5t4 16.5q38 92 58 122q48 70 127 70z" />
    <glyph glyph-name="Adieresis" unicode="&#xc4;" horiz-adv-x="1456" 
d="M756 1366q10 0 14.5 -6t8.5 -21q1 -3 1 -4q28 -90 54 -162.5t63.5 -172t58.5 -158.5q70 -187 261 -633q35 -78 69.5 -109t118.5 -47q2 0 -0.5 -14t-7 -29t-8.5 -18q-170 2 -279 2q-28 0 -60 -2t-53 -3.5t-28 -0.5q-12 0 -15 6q-5 10 -9 30.5t-1 24.5q43 12 63 20t32 22
t10.5 31.5t-11.5 49.5q-12 51 -102 270q-13 31 -35 31q-281 0 -442 -8q-21 -2 -31 -9.5t-20 -33.5q-23 -49 -56 -142.5t-33 -129.5q0 -35 21.5 -52.5t95.5 -40.5q3 -9 -3 -31t-13 -26q-182 4 -258 0h-76q-10 0 -14 4q-6 10 -10 32t-1 27q26 7 45.5 18.5t33 22.5t29 35.5
t25 41.5t29.5 57q26 51 95.5 213.5t180.5 429.5t136 327q28 67 45 123q2 10 12 17q45 18 64 18zM506 559q4 0 22 -1t52 -2t75 -1q38 0 209 6q9 0 14.5 10.5t2.5 16.5q-31 82 -90.5 246t-96.5 256q-1 4 -5.5 4t-9.5 -3.5t-7 -9.5q-111 -253 -203 -499q-1 -3 2.5 -8.5t13 -10
t21.5 -4.5zM922 1681q29 0 32 -6q15 -31 29.5 -44t46.5 -25q12 -6 11.5 -34.5t-11.5 -31.5q-34 -14 -49 -34.5t-27 -59.5q-3 -10 -32 -6t-33 22q-10 26 -26.5 40t-53.5 32q-9 6 -10 30t8 29q38 18 51.5 31t30.5 49q3 8 33 8zM543 1677q22 0 22 -6q24 -34 35.5 -44.5
t40.5 -20.5q11 0 10.5 -29t-10.5 -35q-32 -17 -44.5 -32.5t-31.5 -59.5q-1 -10 -26.5 -10t-28.5 10q-16 33 -33 49.5t-45 20.5q-8 2 -13 28t5 35q28 19 36.5 25.5t20 21.5t21.5 39q4 8 41 8z" />
    <glyph glyph-name="Aring" unicode="&#xc5;" horiz-adv-x="1456" 
d="M756 1366q10 0 14.5 -6t8.5 -21q1 -3 1 -4q28 -90 54 -162.5t63.5 -172t58.5 -158.5q70 -187 261 -633q35 -78 69.5 -109t118.5 -47q2 0 -0.5 -14t-8 -29t-10.5 -18q-170 2 -278 2q-28 0 -59.5 -2t-52 -3.5t-27.5 -0.5q-12 0 -15 6q-5 10 -9 30.5t-1 24.5q43 12 63 20
t32 22t10.5 31.5t-11.5 49.5q-12 51 -102 270q-5 12 -15 21.5t-20 9.5q-281 0 -442 -8q-21 -2 -31 -9.5t-20 -33.5q-23 -49 -56 -142.5t-33 -129.5q0 -35 21.5 -52.5t95.5 -40.5q3 -9 -3 -31t-13 -26q-182 4 -258 0h-76q-10 0 -14 4q-6 10 -10 32t-1 27q26 7 46 19t33 22
t29.5 36t24 40.5t29.5 57.5q26 51 95.5 213.5t180.5 429.5t136 327q28 67 45 123q2 10 12 17q45 18 64 18zM506 559q4 0 22 -1t52 -2t75 -1q38 0 209 6q9 0 14.5 10.5t2.5 16.5q-31 82 -90.5 246t-96.5 256q-1 4 -5.5 4t-9.5 -3.5t-7 -9.5q-108 -251 -203 -499
q-1 -3 2.5 -8.5t13 -10t21.5 -4.5zM741 1767q73 0 121.5 -49t48.5 -121q0 -59 -24 -93t-76 -60q-57 -37 -96 -37q-67 0 -117.5 46t-50.5 114q0 123 127 180q50 20 67 20zM725 1690q-34 0 -61 -26t-27 -62q0 -59 28.5 -87t77.5 -30q39 -1 59.5 26.5t20.5 67.5
q0 50 -29.5 80.5t-68.5 30.5z" />
    <glyph glyph-name="AE" unicode="&#xc6;" horiz-adv-x="1968" 
d="M670 1282l6 55q40 -1 105.5 -2.5t123 -2.5t117.5 -1h362q61 0 185.5 6t187.5 6q39 0 51 -10q16 -9 13 -35q-19 -134 -19 -272q0 -11 -30 -8q-19 0 -25 4t-8 14q-7 42 -11 61t-12 48.5t-16.5 42t-23 29.5t-33.5 23.5t-45.5 11.5t-61.5 5h-143q-165 0 -205 -8
q-20 -1 -25.5 -17t-5.5 -63q0 -38 -1.5 -198t-0.5 -264q0 -14 1 -19.5t6 -9.5t16 -4h133q132 0 190 4q56 2 84 6t48.5 20t29 39t18.5 72q6 6 41 14q18 0 22.5 -2.5t4.5 -13.5q-15 -108 -15.5 -192t13.5 -197q-21 -8 -47 -8q-17 0 -23 18q-3 11 -9.5 41.5t-8.5 38.5
q-7 38 -33 52.5t-88 19.5q-30 4 -219 4q-127 0 -145 -4q-5 -1 -10.5 -29t-9 -89t-3.5 -142q0 -104 4 -142t21 -65q15 -23 66.5 -33t191.5 -10q97 0 159 7t106.5 21t72.5 44.5t45 66.5t36 98q21 4 52 -2q6 -4 6 -16q-3 -70 -21.5 -153t-40.5 -132q-13 -16 -26 -16
q-27 0 -97 2q-132 4 -376 4q-263 0 -498 -10q-2 14 -2 57q2 6 10 10q66 10 85 25.5t22 50.5q10 130 10 420q0 22 -3.5 26.5t-19.5 6.5q-49 4 -107 5t-145.5 0t-95.5 -1q-38 0 -61 -43q-111 -187 -170 -320q-41 -81 -19.5 -116.5t131.5 -44.5q6 -4 5.5 -35.5t-17.5 -32.5
q-113 2 -293 2q-23 0 -65.5 -1t-46.5 -1q-16 0 -19 8q-11 56 -8 66q71 9 103.5 35.5t95.5 125.5q57 93 277 453.5t331 542.5q12 31 -12 31q-95 3 -142 6q-26 2 -26 16zM666 674h292q12 0 15 7.5t4 31.5v8l12 510q0 19 -12.5 20t-18.5 -14q-175 -269 -319 -530
q-6 -11 1.5 -22t25.5 -11z" />
    <glyph glyph-name="Ccedilla" unicode="&#xc7;" horiz-adv-x="1384" 
d="M881 -33l-58 -78q123 -40 123 -131q0 -41 -29.5 -82t-72.5 -70.5t-78.5 -48.5t-60.5 -28l-39 45q56 29 103.5 72.5t47.5 68.5q0 31 -21 45.5t-85 32.5q-27 5 -27 17q0 15 12 32q3 5 21 26t42 50.5t40 50.5q-147 6 -268 49.5t-202 111t-137 155.5t-81 180t-25 188
q0 290 176 482q70 77 162.5 120.5t210.5 75.5q134 35 297 35q68 0 140.5 -12.5t109.5 -30.5q24 -4 36 -1.5t48 17.5q5 2 24 -4q10 -3 15.5 -5.5t7 -4.5t0.5 -4q-53 -111 -35 -311q0 -6 -31 -11q-32 -7 -37 7q-8 37 -36 131q-11 29 -24 46.5t-40 35.5q-37 24 -110.5 46.5
t-165.5 22.5q-236 0 -394 -186q-64 -77 -102.5 -194t-38.5 -263q0 -73 16 -148t58 -157.5t105.5 -145.5t168.5 -104t236 -41q178 0 293 115q62 60 96 147q4 14 16 4q32 -19 29 -43q-14 -64 -44.5 -139.5t-53.5 -109.5q-15 -23 -37 -23q-18 -1 -130.5 -16.5t-170.5 -16.5z
" />
    <glyph glyph-name="Egrave" unicode="&#xc8;" horiz-adv-x="1224" 
d="M438 711h131q137 0 213 6q66 4 92 13.5t39.5 34t26.5 89.5q7 4 33.5 7t34.5 1q-1 -10 -9 -95t-8 -122q2 -54 15 -186q-24 -6 -48 -6q-14 -3 -18 12q-13 30 -25 80q-9 42 -33 59t-85 21q-45 4 -217 4q-112 0 -136 -4q-13 -3 -20 -13q-18 -36 -18 -252q0 -126 3 -170
t17 -67q21 -29 79.5 -39t188.5 -10q80 0 130.5 4t101 17.5t82 39.5t58.5 69.5t46 108.5q13 3 49 -4q6 -2 6 -14q-3 -68 -22.5 -153.5t-40.5 -131.5q-13 -16 -27 -16q-28 0 -96 2q-122 4 -375 4q-106 0 -489 -14q-3 1 -4.5 25t0.5 36q0 2 8 10q46 8 68.5 16.5t28.5 17.5t7 26
q15 116 15 372v353q0 285 -15 375q-4 22 -26 26q-9 4 -24 8t-41.5 9.5t-43.5 9.5q-2 2 -2 8l4 49q0 8 10 8h72q24 0 110 -2t156 -2h199q65 0 197 5t180 5q32 0 49 -10q14 -9 15 -14.5t-5 -34.5q-18 -101 -18 -262q-37 0 -49.5 4t-14.5 14q0 2 -1 5q-22 112 -42 148
q-35 60 -125 68l-34 1h-142q-169 0 -211 -11q-19 -6 -24.5 -21.5t-5.5 -53.5q0 -145 4 -431q0 -13 7.5 -22.5t18.5 -9.5zM471 1700q22 0 131 -101t137 -135q3 -4 -17 -19t-42 -30q-219 110 -311 166q-15 11 -2 37q14 22 51.5 52t52.5 30z" />
    <glyph glyph-name="Eacute" unicode="&#xc9;" horiz-adv-x="1224" 
d="M438 711h131q137 0 213 6q66 4 92 13.5t39.5 34t26.5 89.5q7 4 33.5 7t34.5 1q-1 -10 -9 -95t-8 -122q2 -54 15 -186q-24 -6 -48 -6q-14 -3 -18 12q-13 30 -25 80q-9 42 -33 59t-85 21q-45 4 -217 4q-112 0 -136 -4q-13 -3 -20 -13q-18 -36 -18 -252q0 -126 3 -170
t17 -67q21 -29 79.5 -39t188.5 -10q80 0 130.5 4t101 17.5t82 39.5t58.5 69.5t46 108.5q13 3 49 -4q6 -2 6 -14q-3 -68 -22.5 -153.5t-40.5 -131.5q-13 -16 -27 -16q-28 0 -96 2q-122 4 -375 4q-106 0 -489 -14q-3 1 -4.5 25t0.5 36q0 2 8 10q46 8 68.5 16.5t28.5 17.5t7 26
q15 116 15 372v353q0 285 -15 375q-4 22 -26 26q-9 4 -24 8t-41.5 9.5t-43.5 9.5q-2 2 -2 8l4 49q0 8 10 8h72q24 0 110 -2t156 -2h199q65 0 197 5t180 5q32 0 49 -10q14 -9 15 -14.5t-5 -34.5q-18 -101 -18 -262q-37 0 -49.5 4t-14.5 14q0 2 -1 5q-22 112 -42 148
q-35 60 -125 68l-34 1h-142q-169 0 -211 -11q-19 -6 -24.5 -21.5t-5.5 -53.5q0 -145 4 -431q0 -13 7.5 -22.5t18.5 -9.5zM819 1683q22 0 56 -26.5t55 -54.5q5 -3 4.5 -11.5t-6.5 -11.5q-33 -17 -182.5 -83t-192.5 -83q-43 58 -35 66q96 80 258 194q23 10 43 10z" />
    <glyph glyph-name="Ecircumflex" unicode="&#xca;" horiz-adv-x="1224" 
d="M438 711h131q137 0 213 6q66 4 92 13.5t39.5 34t26.5 89.5q7 4 33.5 7t34.5 1q-1 -10 -9 -95t-8 -122q2 -54 15 -186q-24 -6 -48 -6q-14 -3 -18 12q-13 30 -25 80q-9 42 -33 59t-85 21q-45 4 -217 4q-112 0 -136 -4q-13 -3 -20 -13q-18 -36 -18 -252q0 -126 3 -170
t17 -67q21 -29 79.5 -39t188.5 -10q80 0 130.5 4t101 17.5t82 39.5t58.5 69.5t46 108.5q13 3 49 -4q6 -2 6 -14q-3 -68 -22.5 -153.5t-40.5 -131.5q-13 -16 -27 -16q-28 0 -96 2q-122 4 -375 4q-106 0 -489 -14q-3 1 -4.5 25t0.5 36q0 2 8 10q46 8 68.5 16.5t28.5 17.5t7 26
q15 116 15 372v353q0 285 -15 375q-4 22 -26 26q-9 4 -24 8t-41.5 9.5t-43.5 9.5q-2 2 -2 8l4 49q0 8 10 8h72q24 0 110 -2t156 -2h199q65 0 197 5t180 5q32 0 49 -10q14 -9 15 -14.5t-5 -34.5q-18 -101 -18 -262q-37 0 -49.5 4t-14.5 14q0 2 -1 5q-22 112 -42 148
q-35 60 -125 68l-34 1h-142q-169 0 -211 -11q-19 -6 -24.5 -21.5t-5.5 -53.5q0 -145 4 -431q0 -13 7.5 -22.5t18.5 -9.5zM659 1702q21 0 242 -221q10 -8 -8 -29q-30 -15 -72 -29q-23 16 -98.5 77.5t-79.5 64.5q-10 -6 -55.5 -39.5t-85 -61.5t-45.5 -28q-47 0 -92 28
q-3 2 -2 8t4 9q18 19 211 178q58 43 81 43z" />
    <glyph glyph-name="Edieresis" unicode="&#xcb;" horiz-adv-x="1224" 
d="M438 711h131q137 0 213 6q66 4 92 13.5t39.5 34t26.5 89.5q7 4 33.5 7t34.5 1q-1 -10 -9 -95t-8 -122q2 -54 15 -186q-24 -6 -48 -6q-14 -3 -18 12q-13 30 -25 80q-9 42 -33 59t-85 21q-45 4 -217 4q-112 0 -136 -4q-13 -3 -20 -13q-18 -36 -18 -252q0 -126 3 -170
t17 -67q21 -29 80 -39t188 -10q80 0 130.5 4t101 17.5t82 39.5t58.5 69.5t46 108.5q13 3 49 -4q6 -2 6 -14q-3 -68 -22.5 -153.5t-40.5 -131.5q-13 -16 -27 -16q-28 0 -96 2q-122 4 -375 4q-106 0 -489 -14q-3 1 -4.5 25t0.5 36q0 2 8 10q46 8 68.5 16.5t28.5 17.5t7 26
q15 116 15 372v353q0 285 -15 375q-4 22 -26 26q-9 4 -24 8t-41.5 9.5t-43.5 9.5q-4 4 -2 8l4 49q0 8 10 8h70q26 0 112 -2t156 -2h199q65 0 197 5t180 5q32 0 49 -10q14 -9 15 -14.5t-5 -34.5q-18 -101 -18 -262q-37 0 -49.5 4t-14.5 14q0 2 -1 5q-22 112 -42 148
q-35 60 -125 68l-34 1h-142q-169 0 -211 -11q-19 -6 -24.5 -21.5t-5.5 -53.5q0 -145 4 -431q0 -13 7.5 -22.5t18.5 -9.5zM823 1661q31 0 31 -4q15 -30 30 -44t48 -28q10 -5 9.5 -32.5t-11.5 -32.5q-34 -14 -48 -34t-26 -61q-2 -9 -32.5 -4.5t-35.5 21.5q-11 27 -26 41.5
t-51 29.5q-10 6 -10.5 31t8.5 29q36 19 49 31.5t30 48.5q3 8 35 8zM442 1659q22 0 25 -6q28 -42 40 -52q13 -9 34 -16q11 0 10.5 -27.5t-10.5 -35.5q-31 -16 -42.5 -31t-31.5 -59q-1 -10 -26.5 -10t-28.5 10q-20 33 -36.5 48.5t-43.5 18.5q-8 2 -12 28.5t6 37.5q43 29 55 43
q12 16 22 41q5 10 39 10z" />
    <glyph glyph-name="Igrave" unicode="&#xcc;" horiz-adv-x="718" 
d="M659 1325l15 -49q-92 -9 -135.5 -18t-57 -20t-16.5 -32q-14 -68 -14 -356v-410q0 -178 10 -295q3 -36 14 -48t37 -17q10 -2 53.5 -7t52.5 -7q23 -7 23 -13q0 -10 -6.5 -31t-9.5 -26q-250 6 -326 4q-42 0 -89.5 -1.5t-78 -3.5t-33.5 -3q-20 0 -24 16q-11 35 -8 51
q112 3 152 16.5t46 53.5q0 2 2.5 33.5t4.5 61t3.5 95t1.5 144.5v489q0 205 -9.5 249t-61.5 54q-98 9 -111 9q-12 0 -12 12q0 11 10 31q10 18 17 20q16 2 53 2q2 0 69.5 -1t130.5 -1q255 5 267 6q19 0 23.5 -1.5t6.5 -6.5zM190 1692q22 0 131.5 -101.5t137.5 -136.5
q1 -1 -1 -3.5t-6.5 -6.5t-9 -7.5t-11.5 -8t-11.5 -7.5t-11.5 -8t-9 -6q-157 74 -311 164q-7 5 -8 15.5t6 21.5q14 22 51.5 53t52.5 31z" />
    <glyph glyph-name="Iacute" unicode="&#xcd;" horiz-adv-x="718" 
d="M659 1325l15 -49q-92 -9 -135.5 -18t-57 -20t-16.5 -32q-14 -68 -14 -356v-410q0 -178 10 -295q3 -36 14 -48t37 -17q10 -2 53.5 -7t52.5 -7q23 -7 23 -13q0 -10 -6.5 -31t-9.5 -26q-250 6 -326 4q-42 0 -89.5 -1.5t-78 -3.5t-33.5 -3q-20 0 -24 16q-11 35 -8 51
q112 3 152 16.5t46 53.5q0 2 2.5 33.5t4.5 61t3.5 95t1.5 144.5v489q0 205 -9.5 249t-61.5 54q-98 9 -111 9q-12 0 -12 12q0 11 10 31q10 18 17 20q16 2 53 2q2 0 69.5 -1t130.5 -1q255 5 267 6q19 0 23.5 -1.5t6.5 -6.5zM575 1686q23 0 56.5 -26.5t54.5 -55.5
q5 -3 4.5 -11.5t-6.5 -9.5q-37 -20 -187 -86.5t-188 -79.5q-8 8 -24 34.5t-11 31.5q44 36 103.5 80.5t105.5 76.5t49 35q19 11 43 11z" />
    <glyph glyph-name="Icircumflex" unicode="&#xce;" horiz-adv-x="718" 
d="M659 1325l15 -49q-92 -9 -135.5 -18t-57 -20t-16.5 -32q-14 -68 -14 -356v-410q0 -178 10 -295q3 -36 14 -48t37 -17q10 -2 53.5 -7t52.5 -7q23 -7 23 -13q0 -10 -6.5 -31t-9.5 -26q-250 6 -326 4q-42 0 -89.5 -1.5t-78 -3.5t-33.5 -3q-20 0 -24 16q-11 35 -8 51
q112 3 152 16.5t46 53.5q0 2 2.5 33.5t4.5 61t3.5 95t1.5 144.5v489q0 205 -9.5 249t-61.5 54q-98 9 -111 9q-12 0 -12 12q0 11 10 31q10 18 17 20q16 2 53 2q2 0 69.5 -1t130.5 -1q255 5 267 6q19 0 23.5 -1.5t6.5 -6.5zM385 1704q23 0 244 -221q10 -8 -11 -29
q-14 -7 -69 -29q-17 12 -52.5 40t-76 60.5t-51.5 41.5q-10 -6 -55.5 -39.5t-85 -61.5t-46.5 -28q-51 0 -92 28q-2 0 -2 3.5t1 7.5t3 6q17 15 213 178q54 43 80 43z" />
    <glyph glyph-name="Idieresis" unicode="&#xcf;" horiz-adv-x="718" 
d="M659 1325l15 -49q-92 -9 -135.5 -18t-57 -20t-16.5 -32q-14 -68 -14 -356v-410q0 -178 10 -295q3 -36 14 -48t37 -17q10 -2 53.5 -7t52.5 -7q23 -7 23 -13q0 -10 -6.5 -31t-9.5 -26q-250 6 -326 4q-42 0 -89.5 -1.5t-77.5 -3.5t-32 -3q-18 0 -26 16q-8 27 -8 51
q112 3 152 16.5t46 53.5q12 99 12 334v489q0 205 -9.5 249t-59.5 54q-97 8 -113 9q-10 0 -10 12q0 10 8 31q10 18 19 20q14 2 53 2q1 0 68.5 -1t129.5 -1q255 5 267 6q19 0 23.5 -1.5t6.5 -6.5zM553 1673q31 0 31 -4q15 -30 30 -44t48 -28q10 -6 9 -33t-12 -32
q-34 -14 -47.5 -33.5t-25.5 -60.5q-2 -10 -32.5 -6t-35.5 22q-11 27 -26.5 42t-51.5 30q-10 6 -10.5 30.5t8.5 28.5q36 17 49 30.5t31 49.5q3 8 35 8zM174 1671q20 0 23 -8q27 -41 39 -50q12 -8 34 -16q11 0 10.5 -27.5t-10.5 -35.5q-30 -17 -42 -32.5t-31 -59.5
q-2 -10 -27.5 -9.5t-28.5 9.5q-19 34 -35.5 50t-42.5 19q-8 2 -13 28.5t5 37.5q27 17 36.5 24t20.5 21.5t21 38.5q5 10 41 10z" />
    <glyph glyph-name="Eth" unicode="&#xd0;" horiz-adv-x="1622" 
d="M283 631h-138q-48 0 -53 10q-5 8 -8.5 43.5t2.5 36.5h197q0 433 -7 481q-3 24 -24 37.5t-82 20.5q-11 1 -14.5 6t-3.5 18l-2 45q45 0 130.5 2.5t118.5 3.5q70 1 168 4.5t146 3.5q394 0 602 -190q223 -201 223 -485q0 -102 -47.5 -221.5t-147.5 -213.5
q-102 -94 -179.5 -137t-172.5 -71q-72 -22 -137 -27.5t-184 -5.5q-62 0 -202.5 4t-156.5 4q-24 0 -80.5 -1t-70.5 -1q-3 3 -5 30t1 33q72 23 93.5 38t22.5 44q11 177 11 488zM455 721h329q36 0 46.5 -5t13.5 -18q11 -51 8 -59q-10 -6 -125 -6h-272q3 -391 28 -508
q5 -21 29 -31q84 -31 182 -31q201 0 369 107q128 82 194 215.5t66 292.5q0 150 -55.5 264.5t-137.5 185.5q-160 140 -417 140q-60 0 -137.5 -13.5t-92.5 -25.5q-12 -10 -12 -43q-16 -147 -16 -465z" />
    <glyph glyph-name="Ntilde" unicode="&#xd1;" horiz-adv-x="1675" 
d="M47 1284v53q188 -8 285 -8q19 0 28 -6q12 -12 23 -37q11 -22 55.5 -77.5t79.5 -88.5q422 -422 832 -807q0 22 1 168.5t1 233.5q0 285 -11 428q-5 85 -53 100q-25 10 -121 19q-10 5 -10 10l-2 57h229q42 0 119.5 3t106.5 3q15 0 18 -10l12 -43q-94 -20 -135 -45
q-29 -15 -41.5 -86t-19.5 -279q-6 -279 -6 -591q0 -77 3 -179t3 -108q-3 -16 -41 -33q-18 -4 -29 10q-82 121 -206 255.5t-320 328.5q-58 58 -231 229.5t-269 268.5q-10 -192 -10 -377q0 -461 27 -539q10 -32 48.5 -49t112.5 -31l15 -49q1 -4 -5.5 -10t-11.5 -6
q-43 0 -130.5 4t-129.5 4q-41 0 -98 -3t-70 -3l-16 59q64 16 93.5 32t38.5 33t15 56q25 212 25 528v228q0 160 -6 206.5t-31 71.5q-27 28 -59 42t-93 20q-16 5 -16 14zM784 1636q28 0 85 -18t81 -19q27 0 51.5 20t63.5 64q1 -1 15.5 -10.5t23 -19t4.5 -15.5
q-14 -25 -58.5 -75.5t-74.5 -67.5q-43 -22 -111 -8q-103 25 -121 26q-29 0 -50 -30t-29 -56q-12 -2 -52 -2q-17 0 -18.5 2.5t6.5 16.5q36 94 59 126q47 66 125 66z" />
    <glyph glyph-name="Ograve" unicode="&#xd2;" horiz-adv-x="1603" 
d="M809 1366q138 0 268 -52.5t227.5 -141.5t156.5 -214t59 -262q0 -174 -67.5 -312.5t-164.5 -233.5t-217.5 -141t-218.5 -46q-164 0 -326.5 69t-265.5 185q-78 86 -125 212.5t-47 252.5q0 135 57 265t172 233q96 87 227 136.5t265 49.5zM745 1292q-170 0 -307 -149
q-74 -85 -106.5 -205t-32.5 -236q0 -141 47 -262.5t133 -208.5q185 -188 402 -188q81 0 157.5 35.5t139.5 102.5t101 178t38 249q0 311 -191 520q-68 73 -165 118.5t-216 45.5zM639 1704q21 0 132 -103.5t134 -134.5q2 -3 -7.5 -11t-29 -21.5t-20.5 -14.5q-49 22 -152.5 77
t-158.5 87q-7 5 -8 15.5t6 21.5q14 22 51.5 53t52.5 31z" />
    <glyph glyph-name="Oacute" unicode="&#xd3;" horiz-adv-x="1603" 
d="M809 1366q138 0 268 -52.5t227.5 -141.5t156.5 -214t59 -262q0 -174 -67.5 -312.5t-164.5 -233.5t-217.5 -141t-218.5 -46q-164 0 -326.5 69t-265.5 185q-78 86 -125 212.5t-47 252.5q0 135 57 265t172 233q96 87 227 136.5t265 49.5zM745 1292q-170 0 -307 -149
q-74 -85 -106.5 -205t-32.5 -236q0 -141 47 -262.5t133 -208.5q185 -188 402 -188q81 0 157.5 35.5t139.5 102.5t101 178t38 249q0 311 -191 520q-68 73 -165 118.5t-216 45.5zM1004 1702q22 0 55.5 -26.5t54.5 -55.5q3 -3 2.5 -11.5t-6.5 -9.5q-37 -20 -187 -86t-188 -79
q-7 7 -23 33.5t-12 31.5q44 36 103.5 80.5t105.5 77t49 35.5q18 10 46 10z" />
    <glyph glyph-name="Ocircumflex" unicode="&#xd4;" horiz-adv-x="1603" 
d="M809 1366q138 0 268 -52.5t227.5 -141.5t156.5 -214t59 -262q0 -174 -67.5 -312.5t-164.5 -233.5t-217.5 -141t-218.5 -46q-164 0 -326.5 69t-265.5 185q-78 86 -125 212.5t-47 252.5q0 135 57 265t172 233q96 87 227 136.5t265 49.5zM745 1292q-170 0 -307 -149
q-74 -85 -106.5 -205t-32.5 -236q0 -141 47 -262.5t133 -208.5q185 -188 402 -188q81 0 157.5 35.5t139.5 102.5t101 178t38 249q0 311 -191 520q-68 73 -165 118.5t-216 45.5zM831 1704q21 0 242 -221q10 -8 -8 -29q-30 -15 -72 -29q-49 34 -178 142q-10 -6 -55.5 -39.5
t-85 -61.5t-45.5 -28q-53 0 -94 28q-1 1 -1 3.5t1.5 7t3.5 6.5q19 18 211 178q58 43 81 43z" />
    <glyph glyph-name="Otilde" unicode="&#xd5;" horiz-adv-x="1603" 
d="M809 1366q138 0 268 -52.5t227.5 -141.5t156.5 -214t59 -262q0 -174 -67.5 -312.5t-164.5 -233.5t-217.5 -141t-218.5 -46q-164 0 -326.5 69t-265.5 185q-78 86 -125 212.5t-47 252.5q0 135 57 265t172 233q96 87 227 136.5t265 49.5zM745 1292q-170 0 -307 -149
q-74 -85 -106.5 -205t-32.5 -236q0 -141 47 -262.5t133 -208.5q185 -188 402 -188q81 0 157.5 35.5t139.5 102.5t101 178t38 249q0 311 -191 520q-68 73 -165 118.5t-216 45.5zM745 1649q28 0 85 -18t81 -19q27 0 51.5 20t63.5 64q1 -1 15.5 -10.5t23 -19t4.5 -15.5
q-14 -25 -58.5 -76t-74.5 -68q-43 -22 -111 -8q-100 26 -120 27q-29 0 -50.5 -30t-29.5 -56q-12 -2 -50 -2q-17 0 -18.5 2t4.5 16q36 94 58 126q49 66 126 67z" />
    <glyph glyph-name="Odieresis" unicode="&#xd6;" horiz-adv-x="1603" 
d="M809 1366q138 0 268 -52.5t227.5 -141.5t156.5 -214t59 -262q0 -174 -67.5 -312.5t-164.5 -233.5t-217.5 -141t-218.5 -46q-165 0 -326.5 69t-265.5 185q-78 86 -125 212.5t-47 252.5q0 135 57 265t172 233q96 87 227 136.5t265 49.5zM743 1292q-171 0 -305 -149
q-74 -85 -106.5 -205t-32.5 -236q0 -141 47 -262.5t133 -208.5q185 -188 402 -188q81 0 157.5 35.5t139.5 102.5t101 178t38 249q0 311 -191 520q-68 73 -165 118.5t-218 45.5zM995 1686q31 0 33 -5q15 -31 29.5 -44t46.5 -27q12 -5 11.5 -33t-11.5 -33q-35 -14 -50 -34
t-26 -60q-3 -9 -32 -5t-33 21q-11 27 -27.5 42t-52.5 30q-9 6 -10 30t8 29q38 19 51.5 32.5t28.5 47.5q6 9 34 9zM616 1683q20 0 23 -6q17 -26 23 -34t19 -17t34 -16q10 -1 9 -28.5t-9 -35.5q-31 -17 -44 -32t-32 -58q-1 -10 -26.5 -10t-28.5 10q-20 34 -36 49.5t-42 18.5
q-8 2 -13 28t5 37q26 16 36 23.5t20.5 22t20.5 38.5q5 10 41 10z" />
    <glyph glyph-name="multiply" unicode="&#xd7;" horiz-adv-x="1343" 
d="M211 825l51 60q14 12 27 2q18 -9 90 -83t158.5 -166.5t117.5 -121.5q339 345 363 369q33 27 57 10q46 -26 66 -49q-190 -176 -416 -406q196 -196 354 -358q23 -23 15 -43q-8 -14 -26.5 -37t-29.5 -27l-18 -8q-32 33 -113 117t-150.5 155t-117.5 117q-22 -24 -86.5 -91.5
t-128.5 -137t-127 -139.5q-15 -18 -31 -8q-21 19 -40.5 46.5t-16.5 34.5q32 36 187 191.5t173 179.5q-40 60 -354 359q-11 16 -4 34z" />
    <glyph glyph-name="Oslash" unicode="&#xd8;" horiz-adv-x="1603" 
d="M850 -37q-227 0 -444 127l-142 -188q-8 -8 -37 22q-32 34 -22 47l133 174q-117 87 -184.5 238t-67.5 299q0 136 57 265.5t174 232.5q96 87 227.5 136.5t262.5 49.5q208 0 397 -117l119 144q3 7 12.5 6.5t38.5 -10.5q15 -5 22 -7.5t11.5 -5.5t4 -5t-2.5 -5l-135 -170
q117 -96 181.5 -223.5t64.5 -276.5q0 -90 -20.5 -175t-56.5 -154t-74 -121.5t-83 -98.5q-92 -90 -213.5 -137t-222.5 -47zM291 700q0 -244 145 -428l682 867q-146 149 -362 149q-75 0 -162.5 -34t-159.5 -113q-78 -85 -110.5 -205.5t-32.5 -235.5zM1319 608q0 275 -150 463
l-675 -866q183 -164 383 -164q80 0 158 39.5t142 110t103 179.5t39 238z" />
    <glyph glyph-name="Ugrave" unicode="&#xd9;" horiz-adv-x="1538" 
d="M1493 1321l-18 -53q-13 -4 -80 -15q-20 -10 -27 -34q-18 -66 -31 -527q-5 -193 -26.5 -296.5t-87.5 -200.5q-72 -106 -202 -169t-267 -63q-132 0 -240 44t-162 102q-74 76 -103.5 172t-31.5 219q-4 188 4 399q10 280 0 320q-7 26 -35.5 37.5t-101.5 19.5l4 45q0 9 7 11.5
t28 2.5q17 0 95.5 -3.5t103.5 -2.5q44 0 131.5 4t136.5 4q10 0 10 -6q0 -51 -6 -57q-100 -11 -134 -25.5t-46 -52.5q-15 -72 -17 -207q-1 -35 -3 -129.5t-3.5 -178t-1.5 -144.5q0 -251 137 -361q113 -94 305 -94q121 0 190.5 36t113.5 93q58 77 82 191t24 282q0 438 -6 504
q-6 50 -39.5 61t-155.5 11q-6 0 -12 9t-4 15q3 5 12.5 19.5t12.5 19.5q8 8 47 8q5 0 76.5 -1t101.5 -1q136 0 213 6q12 0 6 -14zM649 1692q20 0 131 -102.5t138 -135.5q4 -7 -60 -47q-56 26 -159 80t-152 84q-7 5 -8 15.5t6 21.5q14 22 51.5 53t52.5 31z" />
    <glyph glyph-name="Uacute" unicode="&#xda;" horiz-adv-x="1538" 
d="M1493 1321l-18 -53q-13 -4 -80 -15q-20 -10 -27 -34q-18 -66 -31 -527q-5 -193 -26.5 -296.5t-87.5 -200.5q-72 -106 -202 -169t-267 -63q-132 0 -240 44t-162 102q-74 76 -103.5 172t-31.5 219q-4 188 4 399q10 280 0 320q-7 26 -35.5 37.5t-101.5 19.5l4 45q0 9 7 11.5
t28 2.5q17 0 95.5 -3.5t103.5 -2.5q44 0 131.5 4t136.5 4q10 0 10 -6q0 -51 -6 -57q-100 -11 -134 -25.5t-46 -52.5q-15 -72 -17 -207q-1 -35 -3 -129.5t-3.5 -178t-1.5 -144.5q0 -251 137 -361q113 -94 305 -94q121 0 190.5 36t113.5 93q58 77 82 191t24 282q0 438 -6 504
q-6 50 -39.5 61t-155.5 11q-6 0 -12 9t-4 15q3 5 12.5 19.5t12.5 19.5q8 8 47 8q5 0 76.5 -1t101.5 -1q136 0 213 6q12 0 6 -14zM993 1686q21 0 55.5 -27t55.5 -55q4 -3 3.5 -11.5t-5.5 -11.5q-38 -20 -188 -85.5t-187 -78.5q-8 8 -24 34t-11 30q96 80 258 194q16 11 43 11z
" />
    <glyph glyph-name="Ucircumflex" unicode="&#xdb;" horiz-adv-x="1538" 
d="M1493 1321l-18 -53q-13 -4 -80 -15q-20 -10 -27 -34q-18 -66 -31 -527q-5 -193 -26.5 -296.5t-87.5 -200.5q-72 -106 -202 -169t-267 -63q-132 0 -240 44t-162 102q-74 76 -103.5 172t-31.5 219q-4 188 4 399q10 280 0 320q-7 26 -35.5 37.5t-101.5 19.5l4 45q0 9 7 11.5
t28 2.5q17 0 95.5 -3.5t103.5 -2.5q44 0 131.5 4t136.5 4q10 0 10 -6q0 -51 -6 -57q-100 -11 -134 -25.5t-46 -52.5q-15 -72 -17 -207q-1 -35 -3 -129.5t-3.5 -178t-1.5 -144.5q0 -251 137 -361q113 -94 305 -94q121 0 190.5 36t113.5 93q58 77 82 191t24 282q0 438 -6 504
q-6 50 -39.5 61t-155.5 11q-6 0 -12 9t-4 15q3 5 12.5 19.5t12.5 19.5q8 8 47 8q5 0 76.5 -1t101.5 -1q136 0 213 6q12 0 6 -14zM823 1702q19 0 242 -219q6 -8 4.5 -12.5t-12.5 -18.5q-64 -26 -72 -27q-66 48 -178 142q-8 -5 -55 -40.5t-86 -63t-45 -27.5q-48 0 -93 28
q-3 2 -2 9t4 10q10 10 53.5 46.5t96.5 80t63 51.5q52 41 80 41z" />
    <glyph glyph-name="Udieresis" unicode="&#xdc;" horiz-adv-x="1538" 
d="M1493 1321l-18 -53q-35 -8 -80 -15q-7 -2 -15.5 -11t-11.5 -23q-21 -73 -31 -527q-5 -191 -27 -295.5t-87 -201.5q-72 -106 -202 -169t-267 -63q-134 0 -241 44t-161 102q-74 76 -103.5 172t-31.5 219q-4 188 4 399q10 280 0 320q-7 26 -35.5 37.5t-101.5 19.5l4 45
q0 9 7 11.5t28 2.5q17 0 95.5 -3.5t103.5 -2.5q44 0 131.5 4t136.5 4q10 0 10 -6q0 -51 -6 -57q-100 -11 -134 -25.5t-46 -52.5q-15 -72 -17 -207q-1 -35 -3 -129.5t-3.5 -178t-1.5 -144.5q0 -251 137 -361q113 -94 305 -94q121 0 190.5 36t113.5 93q58 77 82 191t24 282
q0 438 -6 504q-6 50 -39.5 61t-155.5 11q-6 0 -12 9t-4 15q3 5 12.5 19.5t12.5 19.5q8 8 47 8q5 0 76.5 -1t101.5 -1q136 0 213 6q12 0 6 -14zM1001 1700q31 0 31 -4q15 -31 30.5 -45.5t47.5 -26.5q12 -6 11.5 -34t-11.5 -31q-35 -14 -49.5 -34t-26.5 -61q-3 -10 -32 -5.5
t-33 22.5q-12 27 -28 41.5t-52 29.5q-10 6 -10.5 31t8.5 29q37 17 50 30t30 50q5 8 34 8zM623 1698q19 0 22 -8q13 -20 17.5 -26.5t13.5 -16t18.5 -14t24.5 -9.5q11 0 10.5 -27.5t-10.5 -35.5q-30 -17 -42.5 -33t-31.5 -60q-2 -10 -27 -9.5t-28 9.5q-20 35 -36 51t-42 19
q-8 2 -13 28.5t5 35.5q3 2 14 9.5t13 9.5t10 8t10 9t8 9t8.5 11.5t6.5 13t8 16.5q5 10 41 10z" />
    <glyph glyph-name="Yacute" unicode="&#xdd;" horiz-adv-x="1337" 
d="M526 1323q0 -52 -14 -59q-8 -1 -25 -3.5t-31 -4.5t-26 -5q-31 -5 -20 -30q39 -70 101.5 -167t110.5 -168.5t52 -78.5q3 -3 16.5 -20t20.5 -23q17 -9 39 24q172 243 233 342q45 72 45 97q0 28 -117 33l-2 53q-1 8 2 13t7 5q16 0 84.5 -1.5t113.5 -0.5q160 4 170 4
q27 0 35 -8q2 -9 3 -33.5t-3 -31.5q-73 -3 -107.5 -21.5t-76.5 -67.5q-175 -203 -338 -450q-34 -49 -41.5 -75t-7.5 -103v-129q0 -138 6 -240q1 -27 3 -41t11 -27.5t19.5 -18.5t38 -11t56.5 -9t84 -8h1q1 -5 -5 -28t-10 -33q-8 -8 -34 -8q-245 10 -330 10q-29 0 -92.5 -3
t-89.5 -3q-21 0 -23 8q-8 32 -8 51q0 8 8 8q80 9 118 18.5t48 29.5q11 15 14.5 67t3.5 186v207q0 55 -8 81.5t-39 76.5q-62 102 -118.5 190.5t-94 144.5t-65.5 96t-44.5 63.5t-19.5 27.5q-11 11 -108 8q-10 0 -13 11q-1 9 -1 26t1 23q3 16 13 16q36 0 123.5 -3t109.5 -3
q69 0 135 8q54 4 72 4q14 0 14 -16zM915 1651q21 0 55.5 -27t55.5 -55q5 -3 3.5 -11.5t-7.5 -9.5q-34 -19 -183.5 -85.5t-189.5 -80.5q-7 5 -24 32.5t-13 31.5q86 72 260 194q16 11 43 11z" />
    <glyph glyph-name="Thorn" unicode="&#xde;" horiz-adv-x="1185" 
d="M436 1067l154 2q232 0 375 -106q69 -51 101 -122t32 -141q0 -80 -31.5 -143.5t-95.5 -124.5q-148 -141 -418 -141q-18 0 -37.5 1t-43 2.5t-36.5 2.5v-71.5t5 -53t8.5 -40.5t19 -27t27.5 -19t42.5 -10t56 -8t75.5 -5q3 -2 1 -26.5t-5 -32.5q-2 -4 -21 -4h-315
q-13 0 -209 -8q-12 0 -17 26l-4 35q103 12 131 27t31 63q6 61 6 334v326q0 371 -12 426q-5 35 -51 35q-8 1 -45 3t-47 3q-21 3 -21 12q0 23 12 47q3 8 13 8q8 0 97.5 -4t150.5 -4q100 0 202 10q19 0 19 -6q2 -11 2.5 -31.5t-2.5 -27.5q-38 -3 -60 -6.5t-40.5 -13.5
t-27 -21.5t-14.5 -37t-7 -52.5t-1 -76zM893 702q0 20 -4.5 48t-24.5 74t-52 81.5t-95 62.5t-146 27q-64 0 -110 -20q-13 -5 -18.5 -11.5t-6.5 -25.5q-5 -134 -2 -506q0 -26 17 -43q7 -8 46.5 -15t94.5 -7q78 0 119 16q80 36 131 116t51 203z" />
    <glyph glyph-name="germandbls" unicode="&#xdf;" horiz-adv-x="985" 
d="M184 831v95q0 237 97 352q37 48 100.5 90.5t120.5 65.5q61 22 131 22q124 0 201 -74q34 -32 57.5 -81.5t23.5 -104.5q0 -108 -73 -195q-74 -84 -160 -176q-29 -39 -29 -67q0 -31 45 -70q116 -94 177 -173.5t61 -172.5q0 -162 -123 -246q-95 -67 -180 -108
q-47 -19 -68 -19q-39 0 -78 23q-12 6 -18 19.5t-2 23.5q14 41 35 71q13 14 19.5 17.5t19.5 -0.5q62 -32 112 -35q70 0 105 35q39 43 39 143q0 30 -10 60.5t-22 53.5t-39 53.5t-43 47t-53 46.5t-50 40t-52 39q-17 12 -31 31t-14 31q0 24 6 51q15 36 33 47q123 103 183 180
q37 50 56 109t19 104q0 89 -59 153t-156 64q-101 0 -147 -73q-57 -87 -73.5 -227.5t-16.5 -407.5v-381q0 -53 0.5 -80.5t4 -54t6.5 -36.5t14 -21.5t21 -15.5t32 -11q4 -1 5 -3.5t-0.5 -12t-7.5 -29.5q-3 -14 -8 -18.5t-18 -4.5q-29 0 -90.5 1t-91.5 1q-26 0 -75.5 -2
t-60.5 -2q-8 0 -18 61q82 20 100 28.5t21 27.5q16 86 14 575q-65 7 -88 12q-7 1 -12.5 20t-3.5 32q61 30 94 41q18 9 18 36z" />
    <glyph glyph-name="agrave" unicode="&#xe0;" horiz-adv-x="839" 
d="M258 596l-106 -33q-18 -6 -37 -6q-6 0 -15.5 10t-9.5 17q0 21 16 47q27 39 110.5 93.5t129.5 70.5q68 24 113 24q107 0 170 -74q39 -41 39 -98q0 -74 -3 -216t-3 -208q0 -147 51 -147q22 0 100 26q4 3 12.5 -5t8.5 -13l-5 -37q0 -14 -12 -20q-21 -13 -99.5 -33
t-127.5 -21q-64 0 -84 107q-235 -103 -260 -103q-59 0 -117 43q-23 21 -40 61.5t-17 96.5q0 62 88 107q139 73 352 108q4 27 4 148q0 118 -35 149q-13 13 -46.5 23t-67.5 10q-54 0 -82 -14q-15 -7 -15 -86q0 -23 -12 -27zM334 82q38 0 129 41q22 16 32 27t13 28q6 75 6 131
q0 25 -10 25q-177 -29 -242 -80q-20 -13 -20 -59q0 -56 20.5 -84.5t71.5 -28.5zM315 1313q16 0 33 -25q32 -56 89 -181t69 -161q1 -4 -10 -9t-26 -8.5t-28 -4.5q-20 21 -60.5 72.5t-97.5 127.5t-81 107q-3 4 -1.5 14.5t7.5 16.5q14 10 54.5 30.5t51.5 20.5z" />
    <glyph glyph-name="aacute" unicode="&#xe1;" horiz-adv-x="839" 
d="M258 596l-106 -33q-18 -6 -37 -6q-6 0 -15.5 10t-9.5 17q0 21 16 47q27 39 110.5 93.5t129.5 70.5q68 24 113 24q107 0 170 -74q39 -41 39 -98q0 -74 -3 -216t-3 -208q0 -147 51 -147q22 0 100 26q4 3 12.5 -5t8.5 -13l-5 -37q0 -14 -12 -20q-21 -13 -99.5 -33
t-127.5 -21q-64 0 -84 107q-235 -103 -260 -103q-59 0 -117 43q-23 21 -40 61.5t-17 96.5q0 62 88 107q139 73 352 108q4 27 4 148q0 118 -35 149q-13 13 -46.5 23t-67.5 10q-54 0 -82 -14q-15 -7 -15 -86q0 -23 -12 -27zM334 82q38 0 129 41q22 16 32 27t13 28q6 75 6 131
q0 25 -10 25q-177 -29 -242 -80q-20 -13 -20 -59q0 -56 20.5 -84.5t71.5 -28.5zM530 1294q22 0 115 -37q17 -11 6 -30q-21 -19 -137 -158t-123 -145q-9 -9 -15 -8t-18 16l-30 35q40 86 114 206.5t88 120.5z" />
    <glyph glyph-name="acircumflex" unicode="&#xe2;" horiz-adv-x="839" 
d="M258 596l-106 -33q-18 -6 -37 -6q-6 0 -15.5 10t-9.5 17q0 21 16 47q27 39 110.5 93.5t129.5 70.5q68 24 113 24q107 0 170 -74q39 -41 39 -98q0 -74 -3 -216t-3 -208q0 -147 51 -147q22 0 100 26q4 3 12.5 -5t8.5 -13l-5 -37q0 -14 -12 -20q-21 -13 -99.5 -33
t-127.5 -21q-64 0 -84 107q-235 -103 -260 -103q-59 0 -117 43q-23 21 -40 61.5t-17 96.5q0 62 88 107q139 73 352 108q4 27 4 148q0 118 -35 149q-13 13 -46.5 23t-67.5 10q-54 0 -82 -14q-15 -7 -15 -86q0 -23 -12 -27zM334 82q38 0 129 41q22 16 32 27t13 28q6 75 6 131
q0 25 -10 25q-177 -29 -242 -80q-20 -13 -20 -59q0 -56 20.5 -84.5t71.5 -28.5zM442 1288q3 0 7 -3.5t10 -12.5t13 -19t17.5 -28t20.5 -35t25 -43.5t28.5 -50t33.5 -59t38 -66.5q3 -4 0 -11.5t-6 -9.5q-8 -7 -51 -26q-15 -4 -31 12q-10 12 -61 96.5t-64 104.5
q-12 -16 -71 -101.5t-72 -99.5q-35 0 -80 20q-1 0 -3 4t-2.5 9t1.5 8q6 9 50 71.5t83 117t49 67.5l4 4q48 49 61 51z" />
    <glyph glyph-name="atilde" unicode="&#xe3;" horiz-adv-x="839" 
d="M258 596l-106 -33q-18 -6 -37 -6q-6 0 -15.5 10t-9.5 17q0 21 16 47q27 39 110.5 93.5t129.5 70.5q68 24 113 24q107 0 170 -74q39 -41 39 -98q0 -74 -3 -216t-3 -208q0 -147 51 -147q22 0 100 26q4 3 12.5 -5t8.5 -13l-5 -37q0 -14 -12 -20q-21 -13 -99.5 -33
t-127.5 -21q-64 0 -84 107q-235 -103 -260 -103q-59 0 -117 43q-23 21 -40 61.5t-17 96.5q0 62 88 107q139 73 352 108q4 27 4 148q0 118 -35 149q-13 13 -46.5 23t-67.5 10q-54 0 -82 -14q-15 -7 -15 -86q0 -23 -12 -27zM334 82q38 0 129 41q22 16 32 27t13 28q6 75 6 131
q0 25 -10 25q-177 -29 -242 -80q-20 -13 -20 -59q0 -56 20.5 -84.5t71.5 -28.5zM367 1155q25 0 79 -17.5t80 -17.5q41 0 107 80q50 -33 43 -43q-22 -32 -60.5 -77.5t-66.5 -61.5q-38 -20 -105 -8q-99 24 -116 24q-40 0 -80 -80q-10 -4 -43 -4q-17 0 -19.5 2.5t2.5 14.5
q37 93 60 125q47 62 119 63z" />
    <glyph glyph-name="adieresis" unicode="&#xe4;" horiz-adv-x="839" 
d="M258 596l-108 -33q-18 -6 -37 -6q-6 0 -15.5 10t-9.5 17q0 21 16 47q27 40 111 94.5t131 69.5q65 24 113 24q107 0 170 -74q39 -41 39 -98q0 -74 -3 -216t-3 -208q0 -147 51 -147q22 0 100 26q4 3 12.5 -5t8.5 -13l-5 -37q0 -14 -12 -20q-21 -13 -99.5 -33t-127.5 -21
q-64 0 -84 107q-235 -103 -260 -103q-59 0 -117 43q-23 21 -40 61.5t-17 96.5q0 62 88 107q139 73 352 108q4 27 4 148q0 118 -35 149q-13 13 -46.5 23t-67.5 10q-54 0 -82 -14q-15 -7 -15 -86q0 -23 -12 -27zM334 82q38 0 129 41q22 16 32 27t13 28q6 75 6 131q0 25 -10 25
q-177 -29 -242 -80q-20 -13 -20 -59q0 -56 20.5 -84.5t71.5 -28.5zM588 1206q25 0 28 -6q13 -26 28 -38.5t46 -26.5q9 -5 8.5 -31t-8.5 -29q-33 -13 -47.5 -33t-24.5 -57q-3 -9 -30 -5.5t-31 17.5q-5 12 -9.5 20t-13 15.5t-13.5 11t-19.5 12t-22.5 13.5q-7 5 -7 28t7 27
q33 15 45.5 27.5t30.5 46.5q5 8 33 8zM254 1204q18 0 22 -4q14 -23 20.5 -31.5t19 -17.5t32.5 -16q9 0 8.5 -26.5t-8.5 -31.5q-28 -14 -40 -30t-32 -58q-2 -9 -25 -9t-26 9q-16 32 -32.5 48t-42.5 20q-8 2 -12.5 25t3.5 32q44 29 54 42.5t20 39.5q4 8 39 8z" />
    <glyph glyph-name="aring" unicode="&#xe5;" horiz-adv-x="839" 
d="M258 596l-106 -33q-18 -6 -37 -6q-6 0 -15.5 10t-9.5 17q0 21 16 47q27 39 110.5 93.5t129.5 70.5q68 24 113 24q107 0 170 -74q39 -41 39 -98q0 -74 -3 -216t-3 -208q0 -147 51 -147q22 0 100 26q4 3 12.5 -5t8.5 -13l-5 -37q0 -14 -12 -20q-21 -13 -99.5 -33
t-127.5 -21q-64 0 -84 107q-235 -103 -260 -103q-59 0 -117 43q-23 21 -40 61.5t-17 96.5q0 62 88 107q139 73 352 108q4 27 4 148q0 118 -35 149q-13 13 -46.5 23t-67.5 10q-54 0 -82 -14q-15 -7 -15 -86q0 -23 -12 -27zM334 82q38 0 129 41q22 16 32 27t13 28q6 75 6 131
q0 25 -10 25q-177 -29 -242 -80q-20 -13 -20 -59q0 -56 20.5 -84.5t71.5 -28.5zM430 1276q68 0 114 -46.5t46 -115.5q0 -54 -23 -86.5t-73 -60.5q-54 -33 -88 -33q-63 0 -110.5 43t-47.5 106q0 121 119 174q45 19 63 19zM412 1202q-31 0 -55.5 -24.5t-24.5 -59.5
q0 -55 26.5 -81.5t73.5 -28.5q36 -1 56 25.5t20 64.5q0 47 -29 75.5t-67 28.5z" />
    <glyph glyph-name="ae" unicode="&#xe6;" horiz-adv-x="1189" 
d="M256 692v-74q0 -20 -23.5 -31.5t-121.5 -37.5q-13 -4 -21 1t-8 17q0 49 53 105q61 65 174 112q60 27 121 27q149 0 211 -111q15 9 43.5 29t42.5 29q29 20 75.5 35.5t94.5 15.5q68 0 121 -33t84 -96l24 14q8 8 19 0q16 -16 16 -53q0 -28 -80 -76q-70 -40 -226 -120
t-185 -99q-6 -118 55.5 -183t177.5 -65q114 0 211 119q14 21 27 21q10 0 19 -13.5t9 -27.5q0 -13 -8 -21q-45 -51 -110.5 -102.5t-120.5 -77.5q-52 -25 -101 -25q-95 0 -163 37t-123 115q-190 -115 -219 -127q-46 -21 -74 -21q-75 0 -127.5 51t-52.5 124q0 64 41 118
q14 20 39 31q57 26 169 66.5t201 66.5q1 139 -9 186t-46 72q-47 35 -119 35q-52 0 -90 -33zM821 719q-56 0 -100 -41q-31 -27 -39 -51t-10 -70q-2 -35 -2 -133q188 83 248 135q2 1 7 5.5t7 6.5l6 6t6 7t4 7.5t3 9t1 9.5q0 40 -32.5 74.5t-98.5 34.5zM342 100q68 0 154 66
q24 17 22 55q0 21 -0.5 52.5t-0.5 49t1 23.5q-42 -1 -127.5 -24t-118.5 -39q-22 -12 -29 -26.5t-7 -45.5q0 -49 25.5 -80t80.5 -31z" />
    <glyph glyph-name="ccedilla" unicode="&#xe7;" horiz-adv-x="788" 
d="M500 -6l-70 -107q119 -41 119 -131q0 -41 -29.5 -82.5t-72.5 -71t-79 -48t-61 -27.5l-41 45q56 27 105 71t49 70q0 31 -21.5 45.5t-85.5 32.5q-28 7 -28 16q0 19 12 33q9 9 117 142q-62 2 -123 23.5t-105 57.5q-41 34 -76.5 106t-35.5 157q0 69 12 125t34 94t36 56t36 39
l5 5q59 61 182 127q90 49 170 49q55 0 109 -18t85 -49q15 -15 15 -29q0 -21 -21 -43t-45 -35q-33 -18 -47 -8q-10 3 -47 27q-82 49 -152 49q-86 0 -137 -51q-69 -69 -69 -242q0 -84 20.5 -148t44.5 -92q41 -50 93 -72t96 -22q43 0 103.5 25t100.5 53q5 2 15 -3t10 -11
q0 -12 -7 -34.5t-16 -27.5q-28 -23 -99.5 -58t-100.5 -38z" />
    <glyph glyph-name="egrave" unicode="&#xe8;" horiz-adv-x="815" 
d="M471 813q47 0 95.5 -22t76.5 -52q58 -58 80 -133q6 1 24.5 4t25.5 3.5t15 -1.5q9 -6 3 -18q-4 -17 -14.5 -37.5t-22.5 -24.5q-52 -12 -247 -52.5t-245 -55.5q-14 -3 -14 -37q4 -145 72.5 -216t177.5 -71q127 0 243 101q9 9 28 6q4 -2 5 -4q-2 -60 -18 -76
q-110 -93 -254 -135q-34 -10 -76 -10q-65 0 -125 24t-88.5 46.5t-46.5 43.5q-34 36 -63 102.5t-29 153.5q0 126 61 228.5t154 167.5q39 28 89.5 46.5t92.5 18.5zM563 584q0 46 -51.5 98.5t-110.5 52.5q-25 0 -51 -20q-44 -30 -68.5 -96t-21.5 -134q50 14 144 34t137 32
q22 3 22 33zM324 1313q16 0 32 -27q32 -55 89 -180t69 -162q1 -3 -9.5 -7.5t-25.5 -8.5t-28 -6q-30 33 -240 309q-3 4 -1.5 14.5t7.5 16.5q14 10 55 30.5t52 20.5z" />
    <glyph glyph-name="eacute" unicode="&#xe9;" horiz-adv-x="815" 
d="M471 813q47 0 95.5 -22t76.5 -52q58 -58 80 -133q6 1 24.5 4t25.5 3.5t15 -1.5q9 -6 3 -18q-4 -17 -14.5 -37.5t-22.5 -24.5q-52 -12 -247 -52.5t-245 -55.5q-14 -3 -14 -37q4 -145 72.5 -216t177.5 -71q127 0 243 101q9 9 28 6q4 -2 5 -4q-2 -60 -18 -76
q-110 -93 -254 -135q-34 -10 -76 -10q-65 0 -125 24t-88.5 46.5t-46.5 43.5q-34 36 -63 102.5t-29 153.5q0 126 61 228.5t154 167.5q39 28 89.5 46.5t92.5 18.5zM563 584q0 46 -51.5 98.5t-110.5 52.5q-25 0 -51 -20q-44 -30 -68.5 -96t-21.5 -134q50 14 144 34t137 32
q22 3 22 33zM551 1294q23 0 115 -37q19 -12 8 -30q-22 -19 -139.5 -159t-124.5 -146q-7 -9 -13 -8t-18 16l-31 35q39 86 113.5 207.5t89.5 121.5z" />
    <glyph glyph-name="ecircumflex" unicode="&#xea;" horiz-adv-x="815" 
d="M471 813q47 0 95.5 -22t76.5 -52q58 -58 80 -133q6 1 24.5 4t25.5 3.5t15 -1.5q9 -6 3 -18q-4 -17 -14.5 -37.5t-22.5 -24.5q-52 -12 -247 -52.5t-245 -55.5q-14 -3 -14 -37q4 -145 72.5 -216t177.5 -71q127 0 243 101q9 9 28 6q4 -2 5 -4q-2 -60 -18 -76
q-110 -93 -254 -135q-34 -10 -76 -10q-65 0 -125 24t-88.5 46.5t-46.5 43.5q-34 36 -63 102.5t-29 153.5q0 126 61 228.5t154 167.5q39 28 89.5 46.5t92.5 18.5zM563 584q0 46 -51.5 98.5t-110.5 52.5q-25 0 -51 -20q-44 -30 -68.5 -96t-21.5 -134q50 14 144 34t137 32
q22 3 22 33zM477 1288q3 0 7 -3.5t10 -12.5t13 -19t17.5 -28t20.5 -35t25 -43.5t28.5 -50t33.5 -59t38 -66.5q3 -5 1 -13t-5 -10q-20 -12 -54 -26q-16 0 -30 14q-10 11 -62 97.5t-63 103.5q-8 -11 -69.5 -100t-74.5 -103q-35 0 -77 20q-4 2 -7 10t0 13q182 254 183 256l4 4
q48 49 61 51z" />
    <glyph glyph-name="edieresis" unicode="&#xeb;" horiz-adv-x="815" 
d="M471 813q47 0 95.5 -22t76.5 -52q58 -58 80 -133q6 1 24.5 4t25.5 3.5t15 -1.5q9 -6 3 -18q-4 -17 -14.5 -37.5t-22.5 -24.5q-52 -12 -247 -52.5t-245 -55.5q-14 -3 -14 -37q4 -145 72.5 -216t177.5 -71q127 0 243 101q9 9 28 6q4 -2 5 -4q-2 -60 -18 -76
q-110 -93 -254 -135q-34 -10 -76 -10q-65 0 -125 24t-88.5 46.5t-46.5 43.5q-34 36 -63 102.5t-29 153.5q0 126 61 228.5t154 167.5q39 28 89.5 46.5t92.5 18.5zM563 584q0 46 -51.5 98.5t-110.5 52.5q-25 0 -51 -20q-44 -30 -68.5 -96t-21.5 -134q50 14 144 34t137 32
q22 3 22 33zM612 1204q29 0 31 -4q13 -27 28 -40t46 -25q9 -5 8.5 -32t-8.5 -30q-33 -13 -47.5 -33t-24.5 -57q-2 -8 -30 -4.5t-33 18.5t-13 25.5t-13 14.5t-23.5 14.5t-26.5 15.5q-8 6 -8.5 29t6.5 26q35 17 48 29.5t30 46.5q3 6 30 6zM281 1204q20 0 20 -6q16 -23 22 -31
t19 -17t33 -15q9 0 8.5 -27t-8.5 -33q-29 -14 -41 -30t-31 -58q-3 -9 -26 -9t-27 9q-16 32 -33 48t-43 20q-8 2 -11.5 26t5.5 33q42 27 52 41q11 15 22 41q4 8 39 8z" />
    <glyph glyph-name="igrave" unicode="&#xec;" horiz-adv-x="505" 
d="M350 815q-18 -313 -18 -534q0 -141 2 -166q3 -24 8.5 -32t19.5 -7q63 4 87 4q5 0 11 -7.5t5 -11.5l-6 -53q-2 -12 -17 -12q-29 0 -88.5 2t-93.5 2q-40 0 -82.5 -3t-69.5 -6l-26 -3q-14 0 -16 10q-5 18 -5 47q0 10 11 10q57 6 75 18t27 54q14 77 14 305q0 174 -6 217
q-1 6 -8 10t-31 9.5t-71 13.5q-12 3 -4 16q11 28 15 35t11 8q41 14 119.5 43.5t122.5 44.5q4 2 10 2q4 0 4 -16zM145 1313q15 0 31 -27q32 -55 89 -180t69 -162q1 -3 -10 -7.5t-26 -8.5t-28 -6q-16 17 -47.5 57t-58.5 76t-71.5 94.5t-61.5 81.5q-3 4 -1.5 14.5t7.5 16.5
q14 11 55 31t53 20z" />
    <glyph glyph-name="iacute" unicode="&#xed;" horiz-adv-x="505" 
d="M350 815q-18 -313 -18 -534q0 -141 2 -166q3 -24 8.5 -32t19.5 -7q63 4 87 4q5 0 11 -7.5t5 -11.5l-6 -53q-2 -12 -17 -12q-29 0 -88.5 2t-93.5 2q-40 0 -82.5 -3t-69.5 -6l-26 -3q-14 0 -16 10q-5 18 -5 47q0 10 11 10q57 6 75 18t27 54q14 77 14 305q0 174 -6 217
q-1 6 -8 10t-31 9.5t-71 13.5q-12 3 -4 16q11 28 15 35t11 8q41 14 119.5 43.5t122.5 44.5q4 2 10 2q4 0 4 -16zM354 1294q24 0 117 -37q17 -11 6 -30q-21 -18 -137.5 -158t-124.5 -147q-7 -9 -13 -8t-18 16l-32 35q41 87 115 208t87 121z" />
    <glyph glyph-name="icircumflex" unicode="&#xee;" horiz-adv-x="505" 
d="M350 815q-18 -313 -18 -534q0 -141 2 -166q3 -24 8.5 -32t19.5 -7q63 4 87 4q5 0 11 -7.5t5 -11.5l-6 -53q-2 -12 -17 -12q-29 0 -88.5 2t-93.5 2q-40 0 -82.5 -3t-69.5 -6l-26 -3q-14 0 -16 10q-5 18 -5 47q0 10 11 10q57 6 75 18t27 54q14 77 14 305q0 174 -6 217
q-1 6 -8 10t-31 9.5t-71 13.5q-12 3 -4 16q11 28 15 35t11 8q41 14 119.5 43.5t122.5 44.5q4 2 10 2q4 0 4 -16zM279 1288q5 0 14 -11t27 -41.5t35 -60.5t52 -92t64 -112q4 -5 2 -13t-6 -10q-21 -13 -53 -26q-15 0 -29 14q-10 11 -62 97.5t-63 103.5q-7 -10 -69.5 -99
t-75.5 -104q-36 0 -78 20q-4 2 -6 9.5t2 13.5q100 140 180 256q52 55 66 55z" />
    <glyph glyph-name="idieresis" unicode="&#xef;" horiz-adv-x="505" 
d="M350 815q-18 -313 -18 -534q0 -141 2 -166q3 -24 8.5 -32t19.5 -7q63 4 87 4q5 0 11 -7.5t5 -11.5l-6 -53q-2 -12 -17 -12q-29 0 -88.5 2t-93.5 2q-40 0 -82.5 -3t-69.5 -6l-26 -3q-14 0 -16 10q-5 18 -5 47q0 10 11 10q57 6 75 18t27 54q14 77 14 305q0 174 -6 217
q-1 6 -8 10t-31 9.5t-71 13.5q-11 3 -6 16q12 28 16.5 35t11.5 8q41 14 119.5 43.5t122.5 44.5q4 2 10 2q4 0 4 -16zM416 1204q28 0 30 -4q13 -27 28 -40t46 -25q9 -5 8.5 -32t-8.5 -30q-33 -13 -47 -32.5t-24 -57.5q-2 -8 -30.5 -4.5t-33.5 18.5t-13 25.5t-13 14.5
t-23.5 14.5t-26.5 15.5q-8 6 -8.5 29t8.5 26q34 17 46.5 29.5t29.5 46.5q3 6 31 6zM84 1204q20 0 20 -6q16 -23 22 -31t19 -17t33 -15q9 0 8.5 -27t-8.5 -33q-29 -14 -41 -30t-31 -58q-3 -9 -25.5 -9t-25.5 9q-20 34 -35.5 49t-42.5 19q-7 2 -10.5 26t4.5 33q36 22 48 35
t26 47q4 8 39 8z" />
    <glyph glyph-name="eth" unicode="&#xf0;" horiz-adv-x="937" 
d="M72 393q0 109 58.5 206.5t154.5 148.5q46 24 111 43.5t104 19.5q96 0 186 -35q-11 70 -52.5 163t-96.5 161q-32 -21 -226 -146q-28 -15 -37 -6q-7 6 -24 31q-6 9 0.5 16t34.5 27l207 139q-53 64 -155 120.5t-190 78.5q-8 6 -8.5 7.5t4.5 16.5q13 23 29 23
q100 0 216.5 -50.5t203.5 -127.5q26 18 86.5 60t103.5 71q6 -3 22.5 -23.5t22.5 -31.5q4 -18 -22 -33q-92 -60 -158 -105q230 -280 230 -651q0 -88 -11.5 -159.5t-28.5 -116.5t-42.5 -82t-46.5 -55.5t-48 -36.5q-53 -35 -120.5 -58.5t-122.5 -23.5q-61 0 -153.5 39
t-145.5 104q-43 55 -64.5 127t-21.5 139zM250 420q0 -160 92 -264q81 -86 188 -86q52 0 91 36q41 41 69.5 136t28.5 247q0 72 -15 111.5t-61 73.5q-81 63 -201 63q-29 0 -61 -13.5t-51 -37.5q-43 -46 -61.5 -106t-18.5 -160z" />
    <glyph glyph-name="ntilde" unicode="&#xf1;" horiz-adv-x="1038" 
d="M72 2l4 45q51 19 70.5 36t23.5 56q14 83 14 283q0 73 -6 190q0 15 -18 24.5t-84 25.5q-1 2 -4 4.5t-3.5 3.5t-1 5t1 9.5t3.5 15.5q0 8 18 17q61 28 120.5 59.5t68.5 38.5q9 6 22 6q8 0 14.5 -4t6.5 -10q4 -70 4 -109q0 -18 10 -18q91 51 180 92q60 29 115 29
q82 0 139 -45q76 -56 92 -203q4 -41 4 -178q0 -88 1 -181t1 -104q0 -20 9 -20q10 0 52.5 3.5t55.5 4.5q10 0 10 -21q0 -29 -10 -49q-4 -10 -16 -10q-104 0 -200 -5t-122 -5q-22 0 -24 8l-11 41q47 18 65.5 36.5t24.5 59.5q13 77 13 281q0 99 -7.5 142.5t-41.5 78.5
q-48 51 -138 51q-35 0 -85.5 -17t-86.5 -38q-19 -15 -22 -49q-4 -72 -4 -476q0 -21 16 -28t94 -19q16 -3 13 -14l-13 -45h-174q-46 0 -109.5 -5t-78.5 -5q-6 0 -6 12zM455 1155q27 0 80.5 -17.5t78.5 -17.5q43 0 109 80q2 -2 9 -6.5t12.5 -8.5t12 -10t8 -10t-0.5 -8
q-15 -25 -57 -74t-70 -65q-38 -20 -105 -8q-93 24 -116 24q-40 0 -80 -80q-8 -4 -43 -4q-17 0 -18.5 2.5t4.5 14.5q35 95 61 129q45 58 115 59z" />
    <glyph glyph-name="ograve" unicode="&#xf2;" horiz-adv-x="978" 
d="M524 819q45 0 95.5 -16t101.5 -50t92 -81.5t66.5 -117.5t25.5 -151q0 -73 -20 -136.5t-50 -104t-52 -62.5t-38 -32q-144 -88 -274 -88q-69 0 -163.5 39t-147.5 110q-43 56 -64.5 128.5t-21.5 133.5q0 63 22.5 131t59.5 115q55 71 137 117q52 28 118.5 46.5t112.5 18.5z
M436 741q-62 0 -106 -47q-78 -78 -78 -272q0 -163 100 -272q88 -93 193 -93q62 0 100 35q88 88 88 244q0 100 -30.5 189t-92.5 145q-32 30 -79 50.5t-95 20.5zM377 1313q14 0 33 -27q32 -54 87 -178.5t68 -163.5q2 -3 -8 -7q-21 -10 -55 -15q-48 52 -238 309q-3 4 -1.5 14.5
t7.5 16.5q12 10 53 30.5t54 20.5z" />
    <glyph glyph-name="oacute" unicode="&#xf3;" horiz-adv-x="978" 
d="M524 819q45 0 95.5 -16t101.5 -50t92 -81.5t66.5 -117.5t25.5 -151q0 -73 -20 -136.5t-50 -104t-52 -62.5t-38 -32q-144 -88 -274 -88q-69 0 -163.5 39t-147.5 110q-43 56 -64.5 128.5t-21.5 133.5q0 63 22.5 131t59.5 115q55 71 137 117q52 28 118.5 46.5t112.5 18.5z
M436 741q-62 0 -106 -47q-78 -78 -78 -272q0 -163 100 -272q88 -93 193 -93q62 0 100 35q88 88 88 244q0 100 -30.5 189t-92.5 145q-32 30 -79 50.5t-95 20.5zM598 1294q27 0 115 -37q19 -11 8 -30q-22 -19 -140 -160t-122 -145q-9 -9 -14.5 -8t-18.5 16l-31 35
q39 86 113.5 207.5t89.5 121.5z" />
    <glyph glyph-name="ocircumflex" unicode="&#xf4;" horiz-adv-x="978" 
d="M524 819q45 0 95.5 -16t101.5 -50t92 -81.5t66.5 -117.5t25.5 -151q0 -73 -20 -136.5t-50 -104t-52 -62.5t-38 -32q-144 -88 -274 -88q-69 0 -163.5 39t-147.5 110q-43 56 -64.5 128.5t-21.5 133.5q0 63 22.5 131t59.5 115q55 71 137 117q52 28 118.5 46.5t112.5 18.5z
M436 741q-62 0 -106 -47q-78 -78 -78 -272q0 -163 100 -272q88 -93 193 -93q62 0 100 35q88 88 88 244q0 100 -30.5 189t-92.5 145q-32 30 -79 50.5t-95 20.5zM510 1288q3 0 7.5 -3.5t11 -12.5t13 -19t17.5 -28t20.5 -34.5t25 -43.5t29 -50.5t34 -59.5t37.5 -66
q3 -4 0 -11.5t-7 -9.5q-15 -13 -53 -28q-15 0 -29 14q-10 11 -61 97.5t-63 103.5q-10 -14 -43.5 -61.5t-63 -89t-39.5 -52.5q-36 0 -78 20q-4 2 -6 9.5t2 13.5q100 140 180 256q52 55 66 55z" />
    <glyph glyph-name="otilde" unicode="&#xf5;" horiz-adv-x="978" 
d="M524 819q45 0 95.5 -16t101.5 -50t92 -81.5t66.5 -117.5t25.5 -151q0 -73 -20 -136.5t-50 -104t-52 -62.5t-38 -32q-144 -88 -274 -88q-69 0 -163.5 39t-147.5 110q-43 56 -64.5 128.5t-21.5 133.5q0 63 22.5 131t59.5 115q55 71 137 117q52 28 118.5 46.5t112.5 18.5z
M436 741q-62 0 -106 -47q-78 -78 -78 -272q0 -163 100 -272q88 -93 193 -93q62 0 100 35q88 88 88 244q0 100 -30.5 189t-92.5 145q-32 30 -79 50.5t-95 20.5zM428 1155q26 0 81 -17.5t81 -17.5q40 0 106 80l10 -6q10 -6 13.5 -9t12.5 -10t8 -9.5t-1 -8.5
q-22 -32 -60.5 -77.5t-66.5 -61.5q-45 -22 -106 -8q-93 24 -117 24q-19 0 -37 -18t-27 -34t-14 -28q-10 -4 -45 -4q-17 0 -18.5 2.5t4.5 14.5q37 93 59 124q46 63 117 64z" />
    <glyph glyph-name="odieresis" unicode="&#xf6;" horiz-adv-x="978" 
d="M524 819q45 0 95.5 -16t101.5 -50t92 -81.5t66.5 -117.5t25.5 -151q0 -73 -20 -136.5t-50 -104t-52 -62.5t-38 -32q-144 -88 -274 -88q-69 0 -163.5 39t-147.5 110q-43 56 -64.5 128.5t-21.5 133.5q0 63 22.5 131t59.5 115q55 71 137 117q52 28 118.5 46.5t112.5 18.5z
M436 741q-62 0 -106 -47q-78 -78 -78 -272q0 -163 100 -272q88 -93 193 -93q62 0 100 35q88 88 88 244q0 100 -30.5 189t-92.5 145q-32 30 -79 50.5t-95 20.5zM659 1204q29 0 29 -4q13 -27 28 -40t48 -25q9 -5 8.5 -32t-8.5 -30q-33 -13 -47.5 -32.5t-26.5 -57.5
q-3 -8 -30 -4.5t-31 18.5q-6 15 -14 25t-13.5 14.5t-22.5 14.5t-26 16q-8 6 -8.5 29t6.5 26q34 17 46.5 29t31.5 47q3 6 30 6zM326 1204q19 0 22 -6q2 -3 7.5 -11.5t7 -10t6 -8t6.5 -8t6.5 -6t8 -6t8.5 -4.5t11 -5t13 -4q8 -1 7.5 -27t-7.5 -33q-21 -10 -34 -22.5
t-18.5 -22.5t-21.5 -43q-2 -9 -25 -9t-26 9q-16 32 -33 48t-43 20q-8 2 -12 26t6 33q42 27 52 41q10 15 20 41q4 8 39 8z" />
    <glyph glyph-name="divide" unicode="&#xf7;" horiz-adv-x="1343" 
d="M672 641q-23 0 -27 8q-28 48 -39.5 56.5t-54.5 21.5q-11 5 -18.5 18.5t-8 24t1.5 14.5q61 26 76.5 42.5t20.5 52.5q3 11 16 19.5t25.5 10.5t13.5 0q41 -60 57.5 -74t61.5 -20q4 -2 0.5 -31.5t-19.5 -35.5q-49 -27 -82 -95q-6 -12 -24 -12zM1141 399h-961q-5 0 -7.5 3
t-3 13.5t0.5 29t4 51.5q0 6 5 8t26 2h958q16 0 13 -27l-5 -47q-3 -21 -8 -27t-22 -6zM676 -29q-29 0 -33 11q-12 30 -30 51t-33 31t-43 24q-3 1 -5 13t-2.5 22t0.5 12q53 26 73 45t30 53q3 9 28 9.5t33 -11.5q21 -45 39 -60.5t62 -29.5q1 -1 1 -10t-1 -20t-2 -13
q-42 -24 -61 -47.5t-36 -73.5q-3 -6 -20 -6z" />
    <glyph glyph-name="oslash" unicode="&#xf8;" horiz-adv-x="980" 
d="M469 -18q-95 0 -197 57q-37 -47 -88 -123q-11 -19 -34 4q-40 36 -25 55q53 70 84 107q-65 57 -100 140t-35 171q0 64 22 130.5t60 115.5q31 42 60 67t73 50q52 27 117.5 45t115.5 18q100 0 197 -63q27 39 59 80q17 21 33 18q26 -2 42 -6.5t20 -9.5t1 -9q-58 -69 -94 -122
q127 -120 127 -306q0 -71 -19.5 -133.5t-49.5 -102.5t-51 -61t-37 -32q-149 -90 -281 -90zM465 748q-83 0 -139 -56q-47 -49 -66.5 -110.5t-19.5 -161.5q0 -120 57 -217q97 124 346 456q-25 38 -72.5 63.5t-105.5 25.5zM541 53q21 0 50.5 10.5t49.5 28.5q98 90 98 250
q0 180 -51 252q-124 -158 -346 -457q79 -84 199 -84z" />
    <glyph glyph-name="ugrave" unicode="&#xf9;" horiz-adv-x="1026" 
d="M295 815q11 0 16 -8t8 -25q3 -33 -2 -143q-12 -288 -12 -410q0 -66 54 -101.5t112 -35.5q96 0 193 68q20 10 22 43q14 107 14 252q0 179 -20 215q-8 13 -28.5 20.5t-78.5 22.5q-13 3 -16 12q-8 24 -8 39q0 6 8 6q4 1 50 7t110.5 12t103.5 6q25 0 31 -25q4 -35 2 -90
q-1 -15 -3 -59t-3.5 -92t-1.5 -105v-199q0 -65 10 -125q3 -13 16 -10q4 1 20.5 4.5t41.5 9t45 9.5q5 2 13 -5t7 -14q-15 -69 -28 -69q-35 -3 -79.5 -11t-76.5 -15.5t-61 -15t-33 -8.5q-22 0 -29 11q-14 17 -14 26l4 88q-30 -15 -104.5 -53t-79.5 -41q-60 -31 -129 -31
q-125 0 -187 97q-24 40 -24 131q0 123 2 263t2 157q0 26 -12 39.5t-68 39.5q-19 11 -21 33q-1 15 1.5 20.5t11.5 8.5q11 2 110.5 26.5t110.5 24.5zM367 1313q14 0 30 -27q33 -54 89 -178t69 -164q2 -3 -8 -7q-21 -10 -55 -15q-30 33 -240 309q-3 4 -1.5 14.5t7.5 16.5
q14 11 55.5 31t53.5 20z" />
    <glyph glyph-name="uacute" unicode="&#xfa;" horiz-adv-x="1026" 
d="M295 815q11 0 16 -8t8 -25q3 -33 -2 -143q-12 -288 -12 -410q0 -66 54 -101.5t112 -35.5q96 0 193 68q20 10 22 43q14 107 14 252q0 179 -20 215q-8 13 -28.5 20.5t-78.5 22.5q-13 3 -16 12q-8 24 -8 39q0 6 8 6q4 1 50 7t110.5 12t103.5 6q25 0 31 -25q4 -35 2 -90
q-1 -15 -3 -59t-3.5 -92t-1.5 -105v-199q0 -65 10 -125q3 -13 16 -10q4 1 20.5 4.5t41.5 9t45 9.5q5 2 13 -5t7 -14q-15 -69 -28 -69q-35 -3 -79.5 -11t-76.5 -15.5t-61 -15t-33 -8.5q-22 0 -29 11q-14 17 -14 26l4 88q-30 -15 -104.5 -53t-79.5 -41q-60 -31 -129 -31
q-125 0 -187 97q-24 40 -24 131q0 123 2 263t2 157q0 26 -12 39.5t-68 39.5q-19 11 -21 33q-1 15 1.5 20.5t11.5 8.5q11 2 110.5 26.5t110.5 24.5zM608 1294q24 0 117 -37q17 -11 6 -30q-22 -19 -140 -160t-122 -145q-9 -9 -14.5 -8t-18.5 16l-30 35q39 84 114 206.5
t88 122.5z" />
    <glyph glyph-name="ucircumflex" unicode="&#xfb;" horiz-adv-x="1026" 
d="M295 815q11 0 16 -8t8 -25q3 -33 -2 -143q-12 -288 -12 -410q0 -66 54 -101.5t112 -35.5q96 0 193 68q20 10 22 43q14 107 14 252q0 179 -20 215q-8 13 -28.5 20.5t-78.5 22.5q-13 3 -16 12q-8 24 -8 39q0 6 8 6q4 1 50 7t110.5 12t103.5 6q25 0 31 -25q4 -35 2 -90
q-1 -15 -3 -59t-3.5 -92t-1.5 -105v-199q0 -65 10 -125q3 -13 16 -10q4 1 20.5 4.5t41.5 9t45 9.5q5 2 13 -5t7 -14q-15 -69 -28 -69q-35 -3 -79.5 -11t-76.5 -15.5t-61 -15t-33 -8.5q-22 0 -29 11q-14 17 -14 26l4 88q-30 -15 -104.5 -53t-79.5 -41q-60 -31 -129 -31
q-125 0 -187 97q-24 40 -24 131q0 123 2 263t2 157q0 26 -12 39.5t-68 39.5q-19 11 -21 33q-1 15 1.5 20.5t11.5 8.5q11 2 110.5 26.5t110.5 24.5zM524 1288q3 0 7 -3.5t10 -12.5t13 -19t17.5 -28t20.5 -35t25 -43.5t28.5 -50t33.5 -59t38 -66.5q3 -5 1 -12t-5 -9
q-18 -14 -54 -28q-14 0 -28 14q-9 9 -34 49t-53.5 88t-39.5 64q-13 -17 -73 -103.5t-71 -99.5q-37 0 -79 20q-3 2 -5.5 9.5t0.5 13.5q182 254 183 256l4 4q48 49 61 51z" />
    <glyph glyph-name="udieresis" unicode="&#xfc;" horiz-adv-x="1026" 
d="M295 815q11 0 16 -8t8 -25q3 -33 -2 -143q-12 -288 -12 -410q0 -46 29 -78.5t65.5 -45.5t73.5 -13q92 0 193 68q18 11 20 43q14 107 14 252q0 179 -20 215q-8 13 -28.5 20.5t-78.5 22.5q-13 3 -16 12q-8 24 -8 39q0 6 8 6q4 1 50 7t110.5 12t103.5 6q25 0 31 -25
q4 -35 2 -90q-1 -15 -3 -59t-3.5 -92t-1.5 -105v-199q0 -65 10 -125q3 -13 16 -10q4 1 20.5 4.5t41.5 9t45 9.5q5 2 13 -5t7 -14q-15 -69 -28 -69q-35 -3 -79.5 -11t-76.5 -15.5t-61 -15t-33 -8.5q-22 0 -29 11q-14 17 -14 26l4 88q-30 -15 -104.5 -53t-79.5 -41
q-60 -31 -129 -31q-125 0 -187 97q-24 40 -24 131q0 123 2 263t2 157q0 26 -12 39.5t-68 39.5q-17 10 -21 33q-1 15 1.5 20.5t11.5 8.5q11 2 110.5 26.5t110.5 24.5zM666 1204q28 0 28 -4q13 -27 28 -40t46 -25q9 -5 9 -31t-9 -31q-33 -11 -46.5 -30.5t-25.5 -59.5
q-3 -8 -30 -4.5t-31 18.5q-5 12 -9.5 20t-13 15.5t-13.5 11t-19.5 12t-22.5 13.5t-8.5 27.5t8.5 25.5q34 17 46.5 29.5t29.5 46.5q4 6 33 6zM330 1204q19 0 22 -6q3 -4 8 -11t6.5 -9.5t6 -8t6.5 -7.5t6.5 -6t8 -6t8.5 -5t11 -5.5t13 -4.5q9 0 8.5 -27t-8.5 -33
q-21 -10 -34 -22.5t-18.5 -22.5t-21.5 -43q-2 -9 -25 -8.5t-26 8.5q-17 32 -33.5 48.5t-42.5 19.5q-8 2 -11.5 26t5.5 33q25 16 34.5 23.5t19.5 21.5t20 37q4 8 37 8z" />
    <glyph glyph-name="yacute" unicode="&#xfd;" horiz-adv-x="884" 
d="M575 739q0 27 9 45q96 0 192 7q37 2 70 2q13 0 18 -7q6 -6 12.5 -28t4.5 -27q-54 -17 -82 -51t-76 -123q-197 -379 -291 -614q-116 -299 -135 -369q-12 -45 -12 -88q0 -17 -6 -23q-19 -12 -46 -12q-54 0 -90 31q-31 21 -8 65q11 16 105 193t100 201q12 33 0 77
q-94 305 -211 623q-15 39 -30 52t-54 22q-16 7 -16 14q0 3 1 7t4 14t5 20q4 10 8.5 12t15.5 2q82 0 177 4.5t122 4.5q18 0 21 -7q5 -8 10 -26t4 -25q-79 -24 -94 -39.5t-2 -66.5q101 -359 152 -459q124 229 202 446q19 52 8 70.5t-79 36.5q-9 2 -9 16zM592 1294
q24 0 117 -37q17 -11 6 -30q-22 -19 -140 -160t-122 -145q-7 -9 -13.5 -8t-19.5 16l-31 35q39 86 113.5 207.5t89.5 121.5z" />
    <glyph glyph-name="thorn" unicode="&#xfe;" horiz-adv-x="985" 
d="M-2 -528l-8 59q81 15 102 33t27 71q22 165 22 474l-2 811q0 203 -10 258q-3 34 -21.5 45.5t-91.5 29.5q5 47 23 56q145 59 246 112q8 4 12 4q10 0 10 -10q-22 -327 -22 -704q196 98 295 98q124 0 221 -94q112 -109 112 -283q0 -93 -37.5 -171.5t-97.5 -133.5
q-73 -64 -241 -129q-41 -14 -80 -14q-81 0 -160 22q-14 -7 -14 -207q2 -141 8 -182q4 -24 15 -35.5t46 -18.5t103 -7q14 0 8 -15l-10 -33q-3 -16 -8.5 -20t-26.5 -4q-30 -1 -125 -6.5t-175 -9t-112 -3.5q-4 0 -8 7zM762 369q0 71 -20 127t-68 108q-89 96 -205 96
q-43 0 -95 -19t-71 -40q-18 -18 -18 -55v-123q0 -183 8 -254q5 -33 12.5 -47t30.5 -27q34 -23 88 -36t106 -13q70 0 132 37q49 32 74.5 88t25.5 158z" />
    <glyph glyph-name="ydieresis" unicode="&#xff;" horiz-adv-x="884" 
d="M575 739q0 27 9 45q92 0 192 7q37 2 68 2q15 0 20 -7q4 -5 10.5 -27.5t6.5 -27.5q-39 -12 -66.5 -36t-43.5 -50.5t-48 -87.5q-199 -384 -291 -616q-110 -280 -135 -367q-12 -45 -12 -90q0 -15 -6 -23q-20 -10 -46 -10q-53 0 -90 29q-32 25 -8 65q21 37 110 205t95 191
q12 33 0 77q-95 309 -211 621q-14 40 -29 52.5t-55 23.5q-16 7 -16 14q0 3 1 7t4 14t5 20q4 10 8.5 12t15.5 2q82 0 177.5 4.5t121.5 4.5q20 0 23 -7q16 -40 14 -51q-81 -24 -96 -39.5t0 -66.5q19 -78 70.5 -241.5t79.5 -217.5q132 243 202 446q19 52 8 70.5t-79 36.5
q-9 2 -9 16zM635 1204q29 0 29 -4q13 -28 28 -40.5t47 -24.5q9 -5 8 -31t-10 -31q-32 -11 -45.5 -30t-25.5 -60q-3 -8 -30.5 -4.5t-31.5 18.5q-5 12 -9.5 20t-13 15.5t-13.5 11t-19.5 12t-22.5 13.5t-8 27.5t8 25.5q34 17 46.5 29.5t29.5 46.5q4 6 33 6zM301 1204
q20 0 23 -6q15 -23 20.5 -30t18 -16.5t32.5 -16.5q9 0 8.5 -27t-8.5 -33q-29 -14 -40.5 -29.5t-30.5 -58.5q-2 -9 -25.5 -8.5t-26.5 8.5q-17 33 -33 49t-42 19q-8 2 -12.5 26t3.5 33q36 22 48.5 35.5t25.5 46.5q4 8 39 8z" />
    <glyph glyph-name="Amacron" unicode="&#x100;" horiz-adv-x="1456" 
d="M756 1366q11 0 16 -7t10 -24q22 -70 45 -137.5t37.5 -107.5t45.5 -121t48 -127q68 -186 259 -633q34 -77 69.5 -108.5t118.5 -47.5q2 0 -0.5 -14t-7 -29t-8.5 -18q-170 2 -279 2q-28 0 -60 -2t-53 -3.5t-28 -0.5q-12 0 -15 6q-14 43 -10 55q43 12 63 20t32 22t10.5 31.5
t-11.5 49.5q-12 51 -102 270q-13 31 -35 31q-281 0 -442 -8q-19 -2 -29 -10t-22 -33q-23 -49 -56 -142.5t-33 -129.5q0 -34 22.5 -52t96.5 -41q2 -9 -4 -31t-12 -26q-182 4 -260 0h-76q-10 0 -14 4q-6 11 -9.5 32.5t0.5 26.5q26 7 45.5 18.5t33 22.5t29 35.5t25 41.5
t29.5 57q50 99 410 970q11 25 47 123q2 12 12 17q36 18 62 18zM506 559q4 0 23 -1t53 -2t75 -1q38 0 209 6q8 0 13 10t2 17q-29 78 -66 181t-64 175.5t-55 145.5q-3 6 -11.5 3t-12.5 -12q-108 -251 -203 -499q-1 -3 2.5 -8.5t13 -10t21.5 -4.5zM502 1516l-4 63q0 20 14 20
h446q7 -12 7 -100q0 -11 -6 -15.5t-23 -4.5l-399 -2q-18 0 -26 7.5t-9 31.5z" />
    <glyph glyph-name="amacron" unicode="&#x101;" horiz-adv-x="839" 
d="M258 596l-106 -33q-18 -6 -37 -6q-6 0 -15.5 10t-9.5 17q0 21 16 47q27 39 110.5 93.5t129.5 70.5q68 24 113 24q107 0 170 -74q39 -41 39 -98q0 -74 -3 -216t-3 -208q0 -147 51 -147q22 0 100 26q4 3 12.5 -5t8.5 -13l-5 -37q0 -14 -12 -20q-21 -13 -99.5 -33
t-127.5 -21q-64 0 -84 107q-235 -103 -260 -103q-59 0 -117 43q-23 21 -40 61.5t-17 96.5q0 62 88 107q139 73 352 108q4 27 4 148q0 118 -35 149q-13 13 -46.5 23t-67.5 10q-54 0 -82 -14q-15 -7 -15 -86q0 -23 -12 -27zM334 82q38 0 129 41q22 16 32 27t13 28q6 75 6 131
q0 25 -10 25q-177 -29 -242 -80q-20 -13 -20 -59q0 -56 20.5 -84.5t71.5 -28.5zM201 1057l-6 63q0 17 14 17h430q6 -10 6 -99q0 -12 -6.5 -15t-28.5 -3l-374 -2q-19 0 -25.5 7t-9.5 32z" />
    <glyph glyph-name="Abreve" unicode="&#x102;" horiz-adv-x="1456" 
d="M756 1366q11 0 16 -7t10 -24q22 -70 45 -137.5t37.5 -107.5t45.5 -121t48 -127q68 -186 259 -633q34 -77 69.5 -108.5t118.5 -47.5q2 0 -0.5 -14t-7 -29t-8.5 -18q-170 2 -279 2q-28 0 -60 -2t-53 -3.5t-28 -0.5q-12 0 -15 6q-14 43 -10 55q43 12 63 20t32 22t10.5 31.5
t-11.5 49.5q-12 51 -102 270q-13 31 -35 31q-281 0 -442 -8q-19 -2 -29 -10t-22 -33q-23 -49 -56 -142.5t-33 -129.5q0 -34 22.5 -52t96.5 -41q2 -9 -4 -31t-12 -26q-182 4 -260 0h-76q-10 0 -14 4q-6 11 -9.5 32.5t0.5 26.5q26 7 45.5 18.5t33 22.5t29 35.5t25 41.5
t29.5 57q50 99 410 970q11 25 47 123q2 12 12 17q36 18 62 18zM506 559q4 0 23 -1t53 -2t75 -1q38 0 209 6q8 0 13 10t2 17q-29 78 -66 181t-64 175.5t-55 145.5q-3 6 -11.5 3t-12.5 -12q-108 -251 -203 -499q-1 -3 2.5 -8.5t13 -10t21.5 -4.5zM711 1444q-98 0 -160 57.5
t-62 155.5q8 10 40 28.5t42 18.5q13 0 23 -29q8 -45 43 -79.5t88 -34.5q118 0 172 145q24 0 55 -16q11 -6 11 -19q0 -89 -70.5 -158t-181.5 -69z" />
    <glyph glyph-name="abreve" unicode="&#x103;" horiz-adv-x="839" 
d="M258 596l-106 -33q-18 -6 -37 -6q-6 0 -15.5 10t-9.5 17q0 21 16 47q27 39 110.5 93.5t129.5 70.5q68 24 113 24q107 0 170 -74q39 -41 39 -98q0 -74 -3 -216t-3 -208q0 -147 51 -147q22 0 100 26q4 3 12.5 -5t8.5 -13l-5 -37q0 -14 -12 -20q-21 -13 -99.5 -33
t-127.5 -21q-64 0 -84 107q-235 -103 -260 -103q-59 0 -117 43q-23 21 -40 61.5t-17 96.5q0 62 88 107q139 73 352 108q4 27 4 148q0 118 -35 149q-13 13 -46.5 23t-67.5 10q-54 0 -82 -14q-15 -7 -15 -86q0 -23 -12 -27zM334 82q38 0 129 41q22 16 32 27t13 28q6 75 6 131
q0 25 -10 25q-177 -29 -242 -80q-20 -13 -20 -59q0 -56 20.5 -84.5t71.5 -28.5zM401 967q-91 0 -151 65t-60 164q9 9 44.5 29t44.5 20q4 0 6.5 -2t4 -4t4 -7l3.5 -7q23 -133 121 -133q65 0 98.5 40t50.5 115q40 0 62 -16q10 -4 10 -19q-2 -108 -66.5 -176.5t-171.5 -68.5z
" />
    <glyph glyph-name="Aogonek" unicode="&#x104;" horiz-adv-x="1456" 
d="M756 1366q10 0 14.5 -6t8.5 -21q1 -3 1 -4q28 -90 54 -162.5t63.5 -172t58.5 -158.5q23 -63 67 -168.5t80 -190.5t74.5 -174t41.5 -96q35 -80 68.5 -111t117.5 -47q2 0 -0.5 -14t-7 -29t-8.5 -18q-46 1 -111 3.5t-113 4.5t-57 2q-72 -63 -119 -131.5t-47 -120.5
q0 -35 29 -59.5t69 -24.5q60 0 119 19q2 -1 5 -3t5 -3q-4 -10 -12 -31t-12 -31q-27 -27 -74.5 -46t-97.5 -19q-77 0 -123.5 45t-46.5 120q0 28 8.5 57t27.5 58.5t34.5 51.5t44.5 51l41.5 41.5t42 38t30.5 26.5q31 25 23 63q-10 31 -55.5 160t-63.5 174q-12 33 -35 33
q-240 0 -442 -10q-20 0 -28.5 -7t-20.5 -34q-24 -51 -57.5 -143.5t-33.5 -128.5q0 -35 21.5 -52.5t95.5 -40.5q3 -9 -3 -31t-13 -26q-98 2 -260 2q-21 0 -48 -1t-28 -1q-6 0 -10 1l-4 1q-5 11 -8.5 32t-0.5 25q60 19 88.5 53t73.5 124q26 51 95.5 214.5t180 429.5t136.5 328
q28 67 45 123q2 10 12 17q45 18 64 18zM504 559q4 0 23 -1t53 -2t75 -1q95 0 209 4q10 0 15 10.5t2 18.5q-31 82 -90.5 246t-96.5 256q-3 10 -13 0q-4 -4 -7 -11q-10 -23 -32.5 -75t-29.5 -68t-24 -55t-23.5 -56t-20.5 -50.5t-23.5 -59t-22.5 -60t-27 -73.5q-2 -7 7 -15
t26 -8z" />
    <glyph glyph-name="aogonek" unicode="&#x105;" horiz-adv-x="841" 
d="M332 82q43 0 131 43q22 13 32.5 24t14.5 29q6 75 6 133q0 23 -10 23q-175 -26 -242 -78q-20 -13 -20 -61q0 -57 18.5 -85t69.5 -28zM272 598l-108 -35q-12 -4 -37 -4q-6 0 -15.5 9t-9.5 16q0 20 17 47q27 40 110 95.5t129 70.5q64 24 103 24q108 0 170 -73
q39 -43 39 -101t-2.5 -203t-1.5 -221q-3 -147 49 -147q10 0 23.5 2.5t26 6.5t23 8t18.5 7.5t9 3.5q4 1 12.5 -7t8.5 -13l-5 -41q0 -14 -12 -20q-14 -9 -65.5 -22t-98.5 -19q-96 -80 -140 -142.5t-44 -101.5q0 -37 29.5 -56.5t68.5 -19.5q56 0 123 23q2 -1 5 -4.5t5 -4.5
l-26 -59q-27 -27 -77 -46.5t-103 -19.5q-71 0 -116.5 42.5t-45.5 111.5q0 71 66 148.5t153 134.5q-35 7 -47 86q-6 -3 -46 -20.5t-59.5 -25.5t-53 -20.5t-58 -18t-43.5 -5.5q-69 0 -123 41q-21 15 -37 56t-16 97q0 63 88 109q144 74 356 108q4 27 4 148q0 114 -35 149
q-13 11 -46.5 21t-65.5 10q-36 0 -72 -12q-14 -11 -14 -88q0 -20 -13 -25z" />
    <glyph glyph-name="Cacute" unicode="&#x106;" horiz-adv-x="1384" 
d="M86 651q0 289 176 484q70 77 163.5 120.5t209.5 73.5q134 35 295 35q67 0 140 -12.5t112 -28.5q24 -4 36 -1.5t48 17.5q5 2 24 -4q10 -3 15.5 -5.5t7 -4.5t0.5 -4q-53 -111 -35 -313q0 -6 -31 -11q-22 -4 -28 -2.5t-9 11.5q-4 15 -36 131q-12 30 -24.5 47.5t-39.5 36.5
q-34 25 -108.5 47t-167.5 22q-109 0 -211 -47t-183 -141q-141 -173 -141 -459q0 -51 8 -104t27.5 -113t49 -114t76 -104t105 -86.5t140 -58.5t176.5 -22q102 0 171 34t124 91q65 65 96 145q4 13 16 4q32 -19 29 -43q-17 -66 -47 -141.5t-51 -107.5q-15 -23 -37 -23
q-24 -1 -145.5 -18.5t-182.5 -18.5q-158 0 -289 41t-218 108.5t-147.5 157.5t-87 185.5t-26.5 195.5zM973 1704q22 0 55.5 -26.5t54.5 -55.5q5 -3 4.5 -11t-6.5 -9q-36 -19 -186.5 -86t-187.5 -80q-8 8 -24 34t-11 31q103 85 258 193q15 10 43 10z" />
    <glyph glyph-name="cacute" unicode="&#x107;" horiz-adv-x="788" 
d="M549 821q55 0 109.5 -18t84.5 -49q15 -15 15 -29q0 -20 -21.5 -42.5t-44.5 -35.5q-32 -16 -47 -8q-12 4 -45 27q-83 51 -154 51q-86 0 -137 -51q-69 -69 -69 -242q0 -85 20 -149.5t45 -92.5q42 -49 94.5 -71.5t96.5 -22.5q42 0 104.5 26t114.5 58q5 2 14.5 -3t9.5 -9
q0 -12 -6.5 -34.5t-15.5 -29.5q-20 -17 -78 -46t-109 -48q-61 -20 -114 -20q-56 0 -119.5 22t-110.5 59q-42 36 -77 105.5t-35 157.5q0 69 12 125t34 94t36 56t36 39l5 5q59 61 182 127q90 49 170 49zM606 1294q24 0 117 -37q17 -11 6 -30q-21 -19 -138 -158t-124 -145
q-7 -9 -13.5 -8t-19.5 16l-31 35q40 85 114.5 206t88.5 121z" />
    <glyph glyph-name="Ccaron" unicode="&#x10c;" horiz-adv-x="1384" 
d="M86 651q0 289 176 484q70 77 163.5 120.5t209.5 73.5q134 35 295 35q67 0 140 -12.5t112 -28.5q24 -4 36 -1.5t48 17.5q5 2 24 -4q10 -3 15.5 -5.5t7 -4.5t0.5 -4q-53 -111 -35 -313q0 -6 -31 -11q-22 -4 -28 -2.5t-9 11.5q-4 15 -36 131q-12 30 -24.5 47.5t-39.5 36.5
q-34 25 -108.5 47t-167.5 22q-109 0 -211 -47t-183 -141q-141 -173 -141 -459q0 -51 8 -104t27.5 -113t49 -114t76 -104t105 -86.5t140 -58.5t176.5 -22q102 0 171 34t124 91q65 65 96 145q4 13 16 4q32 -19 29 -43q-17 -66 -47 -141.5t-51 -107.5q-15 -23 -37 -23
q-24 -1 -145.5 -18.5t-182.5 -18.5q-158 0 -289 41t-218 108.5t-147.5 157.5t-87 185.5t-26.5 195.5zM807 1450q-25 0 -244 223q-10 10 10 27q45 25 74 29q21 -14 90.5 -71t85.5 -69q10 6 56 39t85.5 60.5t45.5 27.5q44 0 94 -24q2 -1 1.5 -8.5t-3.5 -10.5
q-31 -29 -219 -178q-57 -45 -76 -45z" />
    <glyph glyph-name="ccaron" unicode="&#x10d;" horiz-adv-x="788" 
d="M549 821q55 0 109.5 -18t84.5 -49q15 -15 15 -29q0 -20 -21.5 -42.5t-44.5 -35.5q-32 -16 -47 -8q-12 4 -45 27q-83 51 -154 51q-86 0 -137 -51q-69 -69 -69 -242q0 -85 20 -149.5t45 -92.5q42 -49 94.5 -71.5t96.5 -22.5q42 0 104.5 26t114.5 58q5 2 14.5 -3t9.5 -9
q0 -12 -6.5 -34.5t-15.5 -29.5q-20 -17 -78 -46t-109 -48q-61 -20 -114 -20q-56 0 -119.5 22t-110.5 59q-42 36 -77 105.5t-35 157.5q0 69 12 125t34 94t36 56t36 39l5 5q59 61 182 127q90 49 170 49zM461 922q-9 0 -38.5 48t-95.5 167q-36 65 -57 102q-4 6 -2 14.5t6 10.5
t54 22q14 4 28 -10q10 -12 62 -97t65 -104q6 9 67.5 97t74.5 104q39 0 80 -23q1 0 2.5 -4t2 -8.5t-2.5 -7.5q-16 -17 -97.5 -135.5t-83.5 -120.5q-6 -6 -16 -16.5t-15.5 -16t-12 -11.5t-11.5 -8.5t-10 -2.5z" />
    <glyph glyph-name="Dcaron" unicode="&#x10e;" horiz-adv-x="1574" 
d="M1491 668q0 -102 -47.5 -221.5t-147.5 -213.5q-100 -93 -177.5 -136.5t-172.5 -71.5q-74 -22 -138.5 -27.5t-186.5 -5.5q-63 0 -203 4t-154 4q-24 0 -80.5 -1t-70.5 -1q-2 4 -4.5 30t0.5 33q72 22 93.5 36.5t22.5 43.5q11 187 11 760q0 272 -7 301q-2 24 -24.5 38
t-89.5 22q-1 0 -3 2.5t-4 8.5t-2 13l-2 43q34 0 113.5 2t136.5 2q67 1 164 4.5t148 3.5q392 0 602 -188q223 -201 223 -485zM666 1270q-59 0 -136.5 -14.5t-91.5 -26.5q-11 -9 -14 -41q-14 -210 -14 -449q0 -274 5.5 -409t26.5 -207q6 -23 29 -31q74 -33 178 -33
q199 0 367 107q127 81 193.5 217.5t66.5 298.5q0 149 -56 262.5t-137 185.5q-158 140 -417 140zM696 1432q-22 0 -243 221q-11 11 12 26q31 19 72 31q19 -14 88 -70.5t88 -70.5q10 6 55.5 39.5t85 61.5t45.5 28q38 0 94 -27q2 -1 1.5 -8t-3.5 -10q-31 -29 -219 -178
q-58 -43 -76 -43z" />
    <glyph glyph-name="dcaron" unicode="&#x10f;" horiz-adv-x="1032" 
d="M74 340q0 187 151 328q58 53 151 97t163 44q34 0 79 -6.5t66 -14.5q5 -2 13 3.5t8 13.5q4 58 4 143q2 183 -7 277q-1 16 -6 23.5t-25.5 14t-66.5 13.5q-15 3 -18 16l-4 17q-3 11 6 14q155 64 239 115q9 6 27 6q14 -4 14 -33q0 -38 -6 -371t-6 -473v-248q0 -158 12 -217
q4 -30 27 -30q28 0 92 28q21 4 23 -4q10 -33 10 -59q0 -7 -4.5 -12t-8.5 -6.5t-14 -4.5q-46 -14 -138 -34.5t-107 -20.5q-11 0 -23.5 12.5t-15.5 28.5q-4 58 -4 102q-110 -54 -196 -88t-108 -34q-58 0 -115.5 28t-97.5 66q-55 52 -84.5 127t-29.5 139zM449 715
q-31 0 -73.5 -16t-72.5 -46q-33 -33 -53.5 -84.5t-20.5 -111.5q0 -189 113 -291q69 -60 166 -60q32 0 87 14.5t79 31.5q15 7 19.5 13t6.5 17q7 65 6.5 215.5t-8.5 206.5q-1 12 -2.5 18t-8.5 14.5t-21 18.5q-91 60 -217 60zM1141 1450q36 0 64 -37.5t28 -81.5q0 -93 -59 -179
t-130 -130q-35 -21 -51 -12q-16 8 -16 14q77 99 82 152q13 67 -27 118q-5 9 -14 22.5t-14 22.5q0 18 14 25q68 29 92 66q14 20 31 20z" />
    <glyph glyph-name="Dcroat" unicode="&#x110;" horiz-adv-x="1622" 
d="M283 631h-138q-48 0 -53 10q-5 8 -8.5 43.5t2.5 36.5h197q0 433 -7 481q-3 24 -24 37.5t-82 20.5q-11 1 -14.5 6t-3.5 18l-2 45q45 0 130.5 2.5t118.5 3.5q70 1 168 4.5t146 3.5q394 0 602 -190q223 -201 223 -485q0 -102 -47.5 -221.5t-147.5 -213.5
q-102 -94 -179.5 -137t-172.5 -71q-72 -22 -137 -27.5t-184 -5.5q-62 0 -202.5 4t-156.5 4q-24 0 -80.5 -1t-70.5 -1q-3 3 -5 30t1 33q72 23 93.5 38t22.5 44q11 177 11 488zM455 721h329q36 0 46.5 -5t13.5 -18q11 -51 8 -59q-10 -6 -125 -6h-272q3 -391 28 -508
q5 -21 29 -31q84 -31 182 -31q201 0 369 107q128 82 194 215.5t66 292.5q0 150 -55.5 264.5t-137.5 185.5q-160 140 -417 140q-60 0 -137.5 -13.5t-92.5 -25.5q-12 -10 -12 -43q-16 -147 -16 -465z" />
    <glyph glyph-name="dcroat" unicode="&#x111;" horiz-adv-x="1032" 
d="M449 713q-31 0 -78 -16.5t-76 -45.5q-66 -63 -66 -194q0 -189 113 -289q71 -62 170 -62q44 0 91 14t73 32q15 10 20 15t6 15q6 65 5.5 216.5t-7.5 205.5q0 2 -1 7t-1.5 6.5l-2 6t-2.5 6t-3.5 5t-5.5 6t-7.5 6t-10.5 6.5q-83 60 -217 60zM539 809q88 0 145 -21
q7 -2 15 3.5t8 13.5q9 189 2 229q-160 -3 -281 2l-12 13q16 42 37 67q234 0 254 2q0 92 -2 117q-1 16 -6.5 23.5t-26.5 14t-68 13.5q-12 2 -16 17l-4 14q-3 11 4 16q139 56 246 121q12 4 20 0q14 -7 14 -35q0 -23 -4 -301h67.5t48 0.5t29.5 1t17 0.5h6q6 0 6 -18
q-11 -68 -37 -68h-139q-6 -405 -6 -448v-267q0 -156 10 -217q4 -19 10.5 -24.5t16.5 -5.5q28 0 92 28q23 5 25 -4q10 -33 10 -59q0 -17 -27 -21q-46 -15 -138 -36t-107 -21q-12 0 -24 12t-15 29q-4 62 -4 104q-127 -66 -192 -93t-112 -27q-58 0 -115.5 26.5t-97.5 63.5
q-55 54 -84.5 128t-29.5 138q0 191 145 328q57 55 147.5 98t172.5 43z" />
    <glyph glyph-name="Emacron" unicode="&#x112;" horiz-adv-x="1224" 
d="M438 711h131q137 0 213 6q66 4 92 13.5t39.5 34t26.5 89.5q7 4 33.5 7t34.5 1q-1 -10 -9 -95t-8 -122q2 -54 15 -186q-24 -6 -48 -6q-14 -3 -18 12q-13 30 -25 80q-9 42 -33 59t-85 21q-45 4 -217 4q-112 0 -136 -4q-13 -3 -20 -13q-18 -36 -18 -252q0 -126 3 -170
t17 -67q21 -29 79.5 -39t188.5 -10q80 0 130.5 4t101 17.5t82 39.5t58.5 69.5t46 108.5q13 3 49 -4q6 -2 6 -14q-3 -68 -22.5 -153.5t-40.5 -131.5q-13 -16 -27 -16q-28 0 -96 2q-122 4 -375 4q-106 0 -489 -14q-3 1 -4.5 25t0.5 36q0 2 8 10q46 8 68.5 16.5t28.5 17.5t7 26
q15 116 15 372v353q0 285 -15 375q-4 22 -26 26q-9 4 -24 8t-41.5 9.5t-43.5 9.5q-2 2 -2 8l4 49q0 8 10 8h72q24 0 110 -2t156 -2h199q65 0 197 5t180 5q32 0 49 -10q14 -9 15 -14.5t-5 -34.5q-18 -101 -18 -262q-37 0 -49.5 4t-14.5 14q0 2 -1 5q-22 112 -42 148
q-35 60 -125 68l-34 1h-142q-169 0 -211 -11q-19 -6 -24.5 -21.5t-5.5 -53.5q0 -145 4 -431q0 -13 7.5 -22.5t18.5 -9.5zM385 1522l-4 63q0 21 14 21h447q6 -10 6 -101q0 -11 -6 -15.5t-23 -4.5l-399 -2q-18 0 -26 7.5t-9 31.5z" />
    <glyph glyph-name="emacron" unicode="&#x113;" horiz-adv-x="815" 
d="M471 813q47 0 95.5 -22t76.5 -52q58 -58 80 -133q6 1 24.5 4t25.5 3.5t15 -1.5q9 -6 3 -18q-4 -17 -14.5 -37.5t-22.5 -24.5q-52 -12 -247 -52.5t-245 -55.5q-14 -3 -14 -37q4 -145 72.5 -216t177.5 -71q127 0 243 101q9 9 28 6q4 -2 5 -4q-2 -60 -18 -76
q-110 -93 -254 -135q-34 -10 -76 -10q-65 0 -125 24t-88.5 46.5t-46.5 43.5q-34 36 -63 102.5t-29 153.5q0 126 61 228.5t154 167.5q39 28 89.5 46.5t92.5 18.5zM563 584q0 46 -51.5 98.5t-110.5 52.5q-25 0 -51 -20q-44 -30 -68.5 -96t-21.5 -134q50 14 144 34t137 32
q22 3 22 33zM219 1057l-6 63q0 17 14 17h432q5 -13 5 -99q0 -12 -6.5 -15t-28.5 -3l-375 -2q-19 0 -25.5 7t-9.5 32z" />
    <glyph glyph-name="Edotaccent" unicode="&#x116;" horiz-adv-x="1224" 
d="M438 711h131q137 0 213 6q66 4 92 13.5t39.5 34t26.5 89.5q7 4 33.5 7t34.5 1q-1 -10 -9 -95t-8 -122q2 -54 15 -186q-24 -6 -48 -6q-14 -3 -18 12q-13 30 -25 80q-9 42 -33 59t-85 21q-45 4 -217 4q-112 0 -136 -4q-13 -3 -20 -13q-18 -36 -18 -252q0 -126 3 -170
t17 -67q21 -29 79.5 -39t188.5 -10q80 0 130.5 4t101 17.5t82 39.5t58.5 69.5t46 108.5q13 3 49 -4q6 -2 6 -14q-3 -68 -22.5 -153.5t-40.5 -131.5q-13 -16 -27 -16q-28 0 -96 2q-122 4 -375 4q-106 0 -489 -14q-3 1 -4.5 25t0.5 36q0 2 8 10q46 8 68.5 16.5t28.5 17.5t7 26
q15 116 15 372v353q0 285 -15 375q-4 22 -26 26q-9 4 -24 8t-41.5 9.5t-43.5 9.5q-2 2 -2 8l4 49q0 8 10 8h72q24 0 110 -2t156 -2h199q65 0 197 5t180 5q32 0 49 -10q14 -9 15 -14.5t-5 -34.5q-18 -101 -18 -262q-37 0 -49.5 4t-14.5 14q0 2 -1 5q-22 112 -42 148
q-35 60 -125 68l-34 1h-142q-169 0 -211 -11q-19 -6 -24.5 -21.5t-5.5 -53.5q0 -145 4 -431q0 -13 7.5 -22.5t18.5 -9.5zM502 1528q-11 0 -14.5 29t4.5 36q30 21 40 29.5t22 25t21 42.5q6 13 36.5 15.5t39.5 -11.5q26 -45 35 -53q10 -8 45 -23q10 0 9.5 -31t-9.5 -37
q-36 -21 -49 -38t-31 -64q-2 -7 -32 -6.5t-33 6.5q-34 77 -84 80z" />
    <glyph glyph-name="edotaccent" unicode="&#x117;" horiz-adv-x="815" 
d="M471 813q47 0 95.5 -22t76.5 -52q58 -58 80 -133q6 1 24.5 4t25.5 3.5t15 -1.5q9 -6 3 -18q-4 -17 -14.5 -37.5t-22.5 -24.5q-52 -12 -247 -52.5t-245 -55.5q-14 -3 -14 -37q4 -145 72.5 -216t177.5 -71q127 0 243 101q9 9 28 6q4 -2 5 -4q-2 -60 -18 -76
q-110 -93 -254 -135q-34 -10 -76 -10q-65 0 -125 24t-88.5 46.5t-46.5 43.5q-34 36 -63 102.5t-29 153.5q0 126 61 228.5t154 167.5q39 28 89.5 46.5t92.5 18.5zM563 584q0 46 -51.5 98.5t-110.5 52.5q-25 0 -51 -20q-43 -30 -67.5 -96t-22.5 -134q50 14 144 34t137 32
q22 4 22 33zM324 1057q-9 0 -13 26.5t4 34.5q28 19 37.5 26.5t21.5 23t23 40.5q5 12 32.5 14.5t35.5 -10.5q21 -38 29.5 -45.5t44.5 -25.5q11 -1 10.5 -29t-8.5 -35q-33 -19 -45 -35.5t-31 -62.5q-1 -6 -28.5 -5.5t-30.5 7.5q-16 34 -38 55t-44 21z" />
    <glyph glyph-name="Eogonek" unicode="&#x118;" horiz-adv-x="1224" 
d="M240 489v353q0 282 -15 372q-4 23 -26 27q-9 4 -24 8t-41.5 9.5t-43.5 9.5q-2 2 -2 8l4 49q0 8 10 8h72q24 0 110 -2t156 -2h199q71 0 207 5.5t170 6.5q34 0 49 -12q14 -9 15 -14.5t-5 -34.5q-18 -101 -18 -262q-39 1 -50.5 5t-13.5 13q-6 32 -9.5 47.5t-9.5 40t-11 35.5
t-13.5 28.5t-18 25t-23 17.5t-30 13.5t-38 6.5t-47.5 3h-144q-176 0 -211 -12q-19 -4 -24.5 -17.5t-5.5 -49.5q0 -72 1 -216t1 -215q0 -13 8.5 -22.5t19.5 -9.5h131q137 0 213 6q92 6 116 26t44 111q6 4 32.5 7t33.5 1q-1 -10 -9 -95t-8 -122q2 -54 15 -186q-24 -6 -48 -6
q-11 -2 -18 12q-19 54 -25 80q-9 42 -33 59t-85 21q-45 4 -217 4q-112 0 -136 -4q-13 -3 -20 -13q-18 -36 -18 -252q0 -122 3 -168t15 -67q23 -28 80.5 -37.5t189.5 -9.5q66 0 110.5 2.5t90 11t75.5 24t58.5 41.5t48 64.5t35.5 91.5q16 3 49 -4q6 -2 6 -14
q-3 -68 -22.5 -153.5t-40.5 -131.5q-13 -16 -27 -16q-55 0 -92 2q-160 -169 -160 -246q0 -80 97 -80q53 0 114 23q2 -1 5.5 -4t5.5 -4l-27 -72q-30 -25 -77.5 -43.5t-96.5 -18.5q-74 0 -120 39.5t-46 106.5q0 42 15.5 80.5t51.5 80t63.5 67t82.5 73.5q-51 2 -287 2
q-106 0 -489 -14q-3 1 -4.5 25t0.5 36q0 2 8 10q46 8 68.5 16.5t28.5 17.5t7 26q15 116 15 372z" />
    <glyph glyph-name="eogonek" unicode="&#x119;" horiz-adv-x="815" 
d="M559 584q0 48 -51 100.5t-111 52.5q-23 0 -49 -20q-43 -30 -67.5 -96.5t-22.5 -135.5q50 14 143 34t136 32q22 4 22 33zM645 -313l-27 -60q-26 -26 -76 -45.5t-102 -19.5q-73 0 -117 40.5t-44 108.5q0 70 60.5 147t129.5 128q-13 -4 -47 -4q-47 0 -92 13.5t-78 34
t-53 36.5t-33 30q-34 36 -63 103.5t-29 154.5q0 125 61.5 227t153.5 167q38 29 88.5 47t93.5 18q47 0 95 -21.5t77 -50.5q59 -62 80 -135q6 1 24.5 4t25.5 3.5t15 -1.5q9 -6 3 -18q-4 -17 -14.5 -37.5t-22.5 -24.5q-52 -12 -247 -52.5t-245 -55.5q-14 -3 -14 -37
q4 -143 70.5 -214t170.5 -71q136 0 250 99q11 11 29 6q3 -2 4 -4q-2 -58 -18 -74q-88 -77 -166 -115q-87 -81 -131.5 -145t-44.5 -102q0 -51 28 -73t68 -22q63 0 127 25z" />
    <glyph glyph-name="Ecaron" unicode="&#x11a;" horiz-adv-x="1224" 
d="M438 711h131q137 0 213 6q66 4 92 13.5t39.5 34t26.5 89.5q7 4 33.5 7t34.5 1q-1 -10 -9 -95t-8 -122q2 -54 15 -186q-24 -6 -48 -6q-14 -3 -18 12q-13 30 -25 80q-9 42 -33 59t-85 21q-45 4 -217 4q-112 0 -136 -4q-13 -3 -20 -13q-18 -36 -18 -252q0 -126 3 -170
t17 -67q21 -29 79.5 -39t188.5 -10q80 0 130.5 4t101 17.5t82 39.5t58.5 69.5t46 108.5q13 3 49 -4q6 -2 6 -14q-3 -68 -22.5 -153.5t-40.5 -131.5q-13 -16 -27 -16q-28 0 -96 2q-122 4 -375 4q-106 0 -489 -14q-3 1 -4.5 25t0.5 36q0 2 8 10q46 8 68.5 16.5t28.5 17.5t7 26
q15 116 15 372v353q0 285 -15 375q-4 22 -26 26q-9 4 -24 8t-41.5 9.5t-43.5 9.5q-2 2 -2 8l4 49q0 8 10 8h72q24 0 110 -2t156 -2h199q65 0 197 5t180 5q32 0 49 -10q14 -9 15 -14.5t-5 -34.5q-18 -101 -18 -262q-37 0 -49.5 4t-14.5 14q0 2 -1 5q-22 112 -42 148
q-35 60 -125 68l-34 1h-142q-169 0 -211 -11q-19 -6 -24.5 -21.5t-5.5 -53.5q0 -145 4 -431q0 -13 7.5 -22.5t18.5 -9.5zM606 1430q-20 0 -241 221q-10 10 10 28q45 25 74 29q44 -32 174 -141q10 6 56 40.5t85.5 61.5t46.5 27q36 0 92 -27q2 -1 1.5 -8t-3.5 -10
q-27 -27 -217 -176q-61 -45 -78 -45z" />
    <glyph glyph-name="ecaron" unicode="&#x11b;" horiz-adv-x="815" 
d="M471 813q47 0 95.5 -22t76.5 -52q58 -58 80 -133q6 1 24.5 4t25.5 3.5t15 -1.5q9 -6 3 -18q-4 -17 -14.5 -37.5t-22.5 -24.5q-52 -12 -247 -52.5t-245 -55.5q-14 -3 -14 -37q4 -145 72.5 -216t177.5 -71q127 0 243 101q9 9 28 6q4 -2 5 -4q-2 -60 -18 -76
q-110 -93 -254 -135q-34 -10 -76 -10q-65 0 -125 24t-88.5 46.5t-46.5 43.5q-34 36 -63 102.5t-29 153.5q0 126 61 228.5t154 167.5q39 28 89.5 46.5t92.5 18.5zM563 584q0 46 -51.5 98.5t-110.5 52.5q-25 0 -51 -20q-44 -30 -68.5 -96t-21.5 -134q50 14 144 34t137 32
q22 3 22 33zM426 922q-3 0 -8.5 6t-14.5 20.5t-19 31t-27 46.5t-32 57t-40 72.5t-47 83.5q-4 6 -2 14.5t6 10.5q16 9 53 22q15 4 29 -10q9 -11 60 -95t67 -106q116 172 141 201q39 0 80 -23q1 0 2.5 -4t2 -8.5t-2.5 -7.5q-15 -17 -93.5 -131.5t-86.5 -124.5l-6 -6
q-46 -46 -62 -49z" />
    <glyph glyph-name="Gbreve" unicode="&#x11e;" horiz-adv-x="1540" 
d="M86 672q0 296 205 485q63 59 141.5 97t190.5 69q142 41 317 41q55 0 132 -9.5t130 -25.5q20 -4 21 0l20 33q2 6 21 6l41 -4q3 0 6.5 -4t3.5 -10q8 -187 28 -291q6 -37 3 -47q-6 -6 -23 -6h-29q-13 0 -20 16q-45 119 -150.5 193.5t-267.5 74.5q-202 0 -350 -129
q-39 -36 -72.5 -79t-66.5 -104.5t-52.5 -143t-19.5 -172.5q0 -266 174 -435q56 -54 126 -92t139 -55.5t121.5 -24t100.5 -6.5q46 0 97.5 14t74.5 33q56 41 56 264q0 106 -5 148.5t-20 61.5t-53 26q-7 1 -62.5 8t-68.5 10q-21 11 -23 13q-5 10 -10 39q0 16 10 16
q62 0 159.5 -4t137.5 -4q64 0 134 4t77 4q3 -3 1 -36.5t-5 -41.5q-9 -1 -35 -5t-45 -5q-14 -63 -14 -508q0 -27 -7 -42t-24 -30q-20 -18 -57 -18q-80 0 -162 -6q-160 -13 -219 -13q-389 0 -606 205q-93 85 -147 210.5t-54 279.5zM838 1477q-100 0 -161 57.5t-61 155.5
q8 10 39.5 28.5t42.5 18.5q15 0 21 -29q9 -45 44 -80t89 -35q117 0 172 146q22 0 55 -17q11 -6 11 -18q0 -89 -70.5 -158t-181.5 -69z" />
    <glyph glyph-name="gbreve" unicode="&#x11f;" horiz-adv-x="874" 
d="M461 836q72 0 155 -45q13 -9 35 -9q17 0 96 12.5t101 12.5q11 0 25 -10t16 -17q1 -4 4.5 -30.5t3.5 -32.5q0 -24 -35 -27h-174q55 -87 55 -178q0 -105 -71.5 -195.5t-190.5 -136.5q-83 -32 -170 -78q-16 -10 -16 -26q0 -26 30 -41t74 -15q13 0 88.5 2.5t83.5 2.5
q149 0 234 -62q57 -42 57 -143q0 -48 -15.5 -81.5t-58.5 -86.5q-48 -58 -103 -99.5t-81 -54t-67 -28.5q-36 -12 -96.5 -21.5t-104.5 -9.5q-153 0 -232 58t-79 130q0 109 79 160q91 66 152 107q-75 33 -106 58.5t-31 67.5q0 24 14 43q29 26 195 107q-99 25 -166 84
q-42 38 -66 96t-24 119q0 170 157 283q127 84 232 84zM606 440q0 129 -51 209q-26 41 -72.5 71t-109.5 30q-54 0 -105 -45q-53 -42 -53 -146q0 -63 25.5 -129t66.5 -102q83 -72 152 -72q64 0 105.5 44t41.5 140zM420 -453q174 0 258 78q72 61 72 125q0 18 -2 30t-12 28.5
t-29 31.5q-61 45 -177 45t-208 -18q-33 -7 -78 -49q-37 -31 -55.5 -67t-18.5 -62q0 -17 11 -38.5t36 -46t78 -41t125 -16.5zM434 967q-91 0 -152 65t-61 164q12 10 46 29.5t44 19.5q3 0 5 -1t4 -3.5t3.5 -4t3.5 -5.5l3 -6q9 -62 39.5 -97.5t79.5 -35.5q67 0 100.5 40
t50.5 115q40 0 62 -16q12 -5 12 -19q-3 -107 -68.5 -176t-171.5 -69z" />
    <glyph glyph-name="Gcommaaccent" unicode="&#x122;" horiz-adv-x="1540" 
d="M86 672q0 296 205 485q63 59 141 97t189 69q142 41 317 41q55 0 132 -9.5t132 -25.5q20 -4 21 0l20 33q2 6 21 6l41 -4q3 0 6.5 -4t3.5 -10q8 -187 28 -291q6 -37 3 -47q-6 -6 -23 -6h-29q-13 0 -20 16q-45 119 -151 193.5t-269 74.5q-202 0 -348 -129
q-54 -49 -97.5 -109.5t-78.5 -165t-35 -224.5q0 -269 174 -435q56 -54 125.5 -92t138 -55.5t121.5 -24t102 -6.5q45 0 97 14t75 33q56 41 56 264q0 106 -5 148.5t-20 61.5t-53 26q-7 1 -63.5 8t-69.5 10q-19 9 -21 13q-5 10 -10 39q-3 16 10 16q61 0 158 -4t139 -4
q64 0 134 4t77 4q3 -3 1 -36.5t-5 -41.5q-9 -1 -35 -5t-45 -5q-14 -63 -14 -508q0 -27 -7 -42t-24 -30q-20 -18 -57 -18q-80 0 -162 -6q-165 -13 -219 -13q-389 0 -606 205q-93 85 -147 210.5t-54 279.5zM881 -88q36 0 64 -37.5t28 -81.5q0 -93 -59 -179t-130 -130
q-34 -21 -51 -14q-16 12 -16 16q77 99 82 152q13 67 -27 118q-5 8 -14.5 21.5t-14.5 21.5q0 19 15 27q69 29 92 65q15 21 31 21z" />
    <glyph glyph-name="gcommaaccent" unicode="&#x123;" horiz-adv-x="874" 
d="M461 836q72 0 155 -45q13 -9 35 -9q17 0 96 12.5t101 12.5q11 0 25 -10t16 -17q1 -4 4.5 -30.5t3.5 -32.5q0 -24 -35 -27h-174q55 -87 55 -178q0 -105 -71.5 -195.5t-190.5 -136.5q-83 -32 -170 -78q-16 -10 -16 -26q0 -26 30 -41t74 -15q13 0 88.5 2.5t83.5 2.5
q149 0 234 -62q57 -42 57 -143q0 -48 -15.5 -81.5t-58.5 -86.5q-48 -58 -103 -99.5t-81 -54t-67 -28.5q-36 -12 -96.5 -21.5t-104.5 -9.5q-153 0 -232 58t-79 130q0 109 79 160q91 66 152 107q-75 33 -106 58.5t-31 67.5q0 24 14 43q29 26 195 107q-99 25 -166 84
q-42 38 -66 96t-24 119q0 171 159 283q127 84 230 84zM606 440q0 129 -51 209q-26 41 -72 71t-108 30q-56 0 -107 -45q-53 -42 -53 -146q0 -63 25.5 -129.5t68.5 -101.5q81 -72 152 -72q62 0 103.5 44t41.5 140zM420 -453q174 0 258 78q72 61 72 125q0 18 -2 30t-12 28.5
t-29 31.5q-61 45 -177 45q-118 0 -206 -18q-35 -7 -80 -49q-37 -31 -55.5 -67t-18.5 -62q0 -17 11 -38.5t36 -46t78 -41t125 -16.5zM412 1006q-33 0 -58.5 33.5t-25.5 72.5q0 89 48.5 163.5t112.5 115.5q40 22 54 10q14 -7 14 -15q-69 -87 -74 -137q-13 -60 25 -104
q23 -37 24 -39q3 -17 -12 -25q-23 -8 -47.5 -25t-34.5 -34q-13 -16 -26 -16z" />
    <glyph glyph-name="Imacron" unicode="&#x12a;" horiz-adv-x="718" 
d="M659 1325l15 -49q-92 -9 -135.5 -18t-57 -20t-16.5 -32q-14 -68 -14 -356v-410q0 -178 10 -295q3 -36 14 -48t37 -17q10 -2 53.5 -7t52.5 -7q23 -7 23 -13q0 -10 -6.5 -31t-9.5 -26q-250 6 -326 4q-42 0 -89.5 -1.5t-78 -3.5t-33.5 -3q-20 0 -24 16q-11 35 -8 51
q112 3 152 16.5t46 53.5q0 2 2.5 33.5t4.5 61t3.5 95t1.5 144.5v489q0 205 -9.5 249t-61.5 54q-98 9 -111 9q-12 0 -12 12q0 11 10 31q10 18 17 20q16 2 53 2q2 0 69.5 -1t130.5 -1q255 5 267 6q19 0 23.5 -1.5t6.5 -6.5zM143 1538l-4 64q0 20 15 20h446q6 -10 6 -100
q0 -11 -6 -16t-22 -5l-400 -2q-18 0 -26 7.5t-9 31.5z" />
    <glyph glyph-name="imacron" unicode="&#x12b;" horiz-adv-x="505" 
d="M350 815q-18 -313 -18 -534q0 -141 2 -166q3 -24 8.5 -32t19.5 -7q63 4 87 4q5 0 11 -7.5t5 -11.5l-6 -53q-2 -12 -17 -12q-29 0 -88.5 2t-93.5 2q-40 0 -82.5 -3t-69.5 -6l-26 -3q-14 0 -16 10q-5 18 -5 47q0 10 11 10q57 6 75 18t27 54q14 77 14 305q0 174 -6 217
q-1 6 -8 10t-31 9.5t-71 13.5q-12 3 -4 16q11 28 15 35t11 8q41 14 119.5 43.5t122.5 44.5q4 2 10 2q4 0 4 -16zM33 1057l-6 63q0 17 16 17h430q6 -10 6 -99q0 -12 -7 -15t-30 -3l-374 -2q-18 0 -25 7.5t-10 31.5z" />
    <glyph glyph-name="Iogonek" unicode="&#x12e;" horiz-adv-x="718" 
d="M276 461v491q0 205 -9.5 249t-61.5 54q-98 9 -111 9q-12 0 -12 12q0 11 10 31q10 18 17 20q16 2 53 2q2 0 69.5 -1t130.5 -1q212 4 267 4q19 0 23.5 -1.5t6.5 -6.5l15 -49q-92 -9 -135.5 -18t-57 -20t-16.5 -32q-14 -68 -14 -356v-410q0 -191 12 -293q1 -36 12 -48
t37 -17q10 -2 53.5 -7t52.5 -7q23 -6 23 -13q0 -15 -14 -57q-201 3 -230 2q-71 -121 -71 -219q0 -57 29.5 -86t70.5 -29q54 0 125 23q2 -1 5 -3t5 -3l-26 -60q-27 -27 -73.5 -46t-96.5 -19q-73 0 -120.5 45t-47.5 120q0 133 129 279q-41 0 -83 -1.5t-84.5 -3.5t-60.5 -3
q-20 0 -24 16q-11 35 -8 51q112 3 152 16.5t46 53.5q0 2 2.5 33t4.5 60.5t3.5 94.5t1.5 144z" />
    <glyph glyph-name="iogonek" unicode="&#x12f;" horiz-adv-x="505" 
d="M299 1280q39 0 62.5 -27t23.5 -65q0 -47 -30 -76t-70 -29q-36 0 -61 26t-25 65q0 49 31 77.5t69 28.5zM461 -322l-25 -61q-29 -27 -76 -46.5t-96 -19.5q-75 0 -122.5 46t-47.5 124t40 153t85 124q-34 -1 -67 -3.5t-52 -4.5l-18 -2q-14 0 -16 10q-5 18 -5 47q0 10 11 10
q58 6 76.5 18.5t25.5 53.5q14 77 14 307q0 174 -6 217q-1 6 -8 9.5t-31.5 9t-70.5 12.5q-12 3 -4 18q11 28 15 35t11 8q14 4 242 88q9 3 11.5 0t2.5 -16q-18 -308 -18 -532q0 -141 2 -168q2 -23 7.5 -31.5t20.5 -7.5q63 8 84 8q5 0 11.5 -7t5.5 -11l-6 -56q-2 -10 -17 -10
h-147q-68 -125 -68 -221q0 -59 29.5 -88t71.5 -29q57 0 123 25q2 -1 6 -4.5t6 -4.5z" />
    <glyph glyph-name="Idotaccent" unicode="&#x130;" horiz-adv-x="718" 
d="M659 1325l15 -49q-92 -9 -135.5 -18t-57 -20t-16.5 -32q-14 -68 -14 -356v-410q0 -178 10 -295q3 -36 14 -48t37 -17q10 -2 53.5 -7t52.5 -7q23 -7 23 -13q0 -10 -6.5 -31t-9.5 -26q-250 6 -326 4q-42 0 -89.5 -1.5t-78 -3.5t-33.5 -3q-20 0 -24 16q-11 35 -8 51
q112 3 152 16.5t46 53.5q0 2 2.5 33.5t4.5 61t3.5 95t1.5 144.5v489q0 205 -9.5 249t-61.5 54q-98 9 -111 9q-12 0 -12 12q0 11 10 31q10 18 17 20q16 2 53 2q2 0 69.5 -1t130.5 -1q255 5 267 6q19 0 23.5 -1.5t6.5 -6.5zM248 1530q-10 1 -14 29.5t4 35.5q29 20 40.5 29
t23 25.5t20.5 42.5q6 14 36.5 16.5t38.5 -12.5q26 -45 35 -53q10 -8 45 -23q10 0 9.5 -30t-9.5 -36q-36 -21 -49 -39t-31 -65q-2 -7 -31 -6.5t-32 6.5q-38 77 -86 80z" />
    <glyph glyph-name="dotlessi" unicode="&#x131;" horiz-adv-x="505" 
d="M350 815q-18 -313 -18 -534q0 -141 2 -166q3 -24 8.5 -32t19.5 -7q63 4 87 4q5 0 11 -7.5t5 -11.5l-6 -53q-2 -12 -17 -12q-29 0 -88.5 2t-93.5 2q-40 0 -82.5 -3t-69.5 -6l-26 -3q-14 0 -16 10q-5 18 -5 47q0 10 11 10q57 6 75 18t27 54q14 77 14 305q0 174 -6 217
q-1 6 -8 10t-31 9.5t-71 13.5q-12 3 -4 16q11 28 15 35t11 8q41 14 119.5 43.5t122.5 44.5q4 2 10 2q4 0 4 -16z" />
    <glyph glyph-name="Kcommaaccent" unicode="&#x136;" horiz-adv-x="1466" 
d="M246 367v510q0 222 -8 286t-33 78q-29 21 -115 27q0 14 5 36.5t11 26.5q71 0 207 -4q64 1 117.5 3.5t82 4.5t34.5 2q14 0 18 -8q8 -16 8 -53q-73 -9 -129 -27q-19 -9 -24.5 -58.5t-5.5 -193.5v-270q0 -15 2.5 -20t9.5 -5q3 0 7 1.5t9.5 5l11 7t14.5 10.5t16 12.5t19 15
t21 16.5q306 252 484 430q36 34 25 48q-2 3 -7 3q-19 1 -58.5 5t-58.5 6l-2 55q2 9 13 12q64 -1 123.5 -0.5t118 1.5t101.5 2t72.5 2t32.5 1q12 0 10 -14q-5 -31 -8 -39.5t-10 -9.5q-57 -8 -102 -24t-67 -30t-61 -42q-175 -126 -503 -410q-9 -8 -11 -19t5 -20
q55 -60 143.5 -142t206.5 -187.5t178 -161.5q91 -82 137.5 -117t75.5 -41q13 -3 42 -9.5t40 -9.5q23 -6 20 -22l-16 -43q-177 9 -477 6l8 61q16 8 61 17q11 2 13 10.5t-11 20.5q-72 68 -194.5 181t-213 196.5t-112.5 105.5q-63 61 -96 61q-12 0 -12 -30v-181q0 -302 24 -338
q9 -14 31.5 -21.5t43 -10t71.5 -6.5q8 -4 8 -15l-6 -57q-204 6 -273 6q-38 0 -127.5 -3t-95.5 -3q-4 6 -0.5 33t6.5 30q13 4 46 10t51 11q23 4 33.5 23.5t15 78t4.5 187.5zM764 -88q36 0 64 -38t28 -83q0 -92 -58.5 -177.5t-129.5 -131.5q-36 -19 -52 -12q-16 8 -16 16
q77 99 82 152q13 68 -27 116q-1 2 -28 45q0 20 14 27q26 9 53 28t39 37q15 21 31 21z" />
    <glyph glyph-name="kcommaaccent" unicode="&#x137;" horiz-adv-x="987" 
d="M37 8l6 29q3 20 14 22q51 11 66.5 18t21.5 23q23 80 23 535q0 45 1 164t0.5 204t-3.5 160q-1 48 -7 67t-20 32q-11 9 -24.5 20t-22 18t-12.5 11q-10 8 -10.5 20t4.5 17t39 20.5t70.5 31.5t73.5 31.5t40 16.5q15 5 22 -2.5t7 -28.5v-311l-11 -637q0 -25 13 -25q14 0 57 37
q27 20 114 98t122 119q11 10 5.5 17.5t-20.5 7.5h-57q-13 0 -10 14l10 41q3 17 14 17q231 4 359 16q12 0 12 -8q0 -25 -4 -39q-5 -18 -29 -21q-91 -12 -170 -65q-61 -45 -229 -180q-13 -13 -14 -20.5t14 -28.5q28 -33 119.5 -125t148.5 -146q76 -73 107.5 -91.5t109.5 -29.5
q9 -1 10.5 -9t1.5 -40q0 -16 -12 -16q-61 0 -100 2q-42 3 -262 0q-12 0 -15 8l-8 25q-8 25 2 28q54 6 54 18q1 5 -7 13q-88 88 -272 276q-37 37 -55 37q-8 0 -11 -39q-2 -31 -2 -151q0 -135 27 -135q9 0 43 2t43 2t10.5 -3.5t1.5 -19.5q0 -31 -6 -49q-5 -10 -20 -10
q-2 0 -20.5 1t-54.5 2t-83 1q-43 0 -115.5 -2t-87.5 -2q-7 0 -9.5 2t-2.5 10zM522 -90q36 0 64 -37.5t28 -81.5q0 -93 -58 -178t-130 -131q-35 -18 -51 -12q-17 8 -17 16q77 99 82 152q13 68 -26 116q-6 10 -16 25t-13 20q0 20 14 27q26 10 54 28.5t39 36.5q14 19 30 19z
" />
    <glyph glyph-name="Lacute" unicode="&#x139;" horiz-adv-x="1171" 
d="M1071 326q8 0 29 -6.5t28 -10.5q10 -10 7 -22q-44 -149 -62 -260q-5 -27 -35 -31q-20 -2 -129 -2q-9 0 -166.5 3t-363.5 3q-66 0 -240 -12q-23 -2 -39 -2q-5 6 -11 30t-5 33q81 10 119 28.5t49 61.5q14 54 14 314v419q0 255 -10 330q-3 25 -15 35.5t-45 14.5t-108 3
q-5 0 -8 8t0 17l16 37q2 10 8 10q158 0 191 2q162 3 319 12q6 -4 10.5 -25.5t4.5 -35.5q-102 -12 -139 -30t-44 -76q-13 -130 -10 -365l2 -248q2 -353 6 -424q3 -42 39 -51q47 -16 191 -16q63 0 102 2.5t88 12t84.5 33t59.5 60.5q34 52 53 137q3 11 10 11zM557 1686
q21 0 55.5 -27t55.5 -55q5 -4 4.5 -12t-6.5 -11q-36 -19 -186 -86t-187 -80q-9 9 -25 35t-12 31q44 37 103.5 81.5t104.5 76.5t50 36q26 11 43 11z" />
    <glyph glyph-name="lacute" unicode="&#x13a;" horiz-adv-x="493" 
d="M43 -6l2 16q0 30 10 37q25 10 49 19q29 10 38.5 21t11.5 32q18 321 18 772q0 189 -4 311q-1 43 -20.5 54.5t-92.5 17.5q-5 1 -4 8t8 37q3 9 21 12q129 46 248 103q4 2 8 2q6 -2 6 -17q-25 -364 -25 -1044q0 -106 1.5 -160t8.5 -89.5t17.5 -44.5t30.5 -9q17 0 51 2t35 2
q13 0 10 -13q-3 -25 -10 -55q0 -8 -15 -8q-72 0 -210 -4.5t-183 -11.5q-10 0 -10 10zM420 1757q21 0 54.5 -27t55.5 -55q5 -4 3.5 -11.5t-7.5 -10.5q-38 -20 -186 -86.5t-186 -79.5q-42 56 -35 65q44 37 103.5 81.5t104.5 77t50 36.5q20 10 43 10z" />
    <glyph glyph-name="Lcommaaccent" unicode="&#x13b;" horiz-adv-x="1171" 
d="M1071 326q6 0 28 -6.5t29 -10.5q10 -10 7 -22q-44 -149 -62 -260q-5 -27 -35 -31q-20 -2 -129 -2q-10 0 -167.5 3t-362.5 3q-66 0 -240 -12q-23 -2 -39 -2q-5 6 -11 30t-5 33q81 10 119 28.5t49 61.5q14 54 14 314v419q0 255 -10 330q-3 25 -15 35.5t-45 14.5t-108 3
q-5 0 -8 8t0 17l16 37q2 10 8 10q158 0 191 2q165 3 321 12q4 -4 8.5 -26t4.5 -35q-102 -12 -139 -30t-44 -76q-13 -130 -10 -365l2 -248q2 -353 6 -424q3 -42 39 -51q47 -16 191 -16q63 0 102 2.5t88 12t84.5 33t59.5 60.5q34 52 53 137q3 11 10 11zM637 -88q36 0 64 -38
t28 -83q0 -92 -58.5 -177.5t-129.5 -131.5q-36 -19 -52 -12q-16 8 -16 16q77 99 82 152q13 68 -27 116q-1 2 -28 45q0 20 14 27q26 9 53 28t39 37q15 21 31 21z" />
    <glyph glyph-name="lcommaaccent" unicode="&#x13c;" horiz-adv-x="493" 
d="M43 -6l2 16q0 30 10 37q25 10 49 19q29 10 38.5 21t11.5 32q18 321 18 772q0 189 -4 311q-1 43 -20.5 54.5t-92.5 17.5q-5 1 -4 8t8 37q3 9 21 12q129 46 248 103q4 2 8 2q6 -2 6 -17q-25 -364 -25 -1044q0 -106 1.5 -160t8.5 -89.5t17.5 -44.5t30.5 -9q17 0 51 2t35 2
q13 0 10 -13q-3 -25 -10 -55q0 -8 -15 -8q-72 0 -210 -4.5t-183 -11.5q-10 0 -10 10zM274 -90q36 0 64.5 -37.5t28.5 -81.5q0 -93 -58.5 -177.5t-130.5 -131.5q-35 -18 -51 -12q-16 8 -16 16q77 99 82 152q13 68 -27 116q-5 9 -14.5 22.5t-14.5 22.5q0 17 15 27q68 25 92 65
q14 19 30 19z" />
    <glyph glyph-name="Lcaron" unicode="&#x13d;" horiz-adv-x="1171" 
d="M1071 326q8 0 29 -6.5t28 -10.5q10 -10 7 -22q-44 -149 -62 -260q-5 -27 -35 -31q-20 -2 -129 -2q-9 0 -166.5 3t-363.5 3q-66 0 -240 -12q-23 -2 -39 -2q-5 6 -11 30t-5 33q81 10 119 28.5t49 61.5q14 54 14 314v419q0 255 -10 330q-3 25 -15 35.5t-45 14.5t-108 3
q-5 0 -8 8t0 17l16 37q2 10 8 10q158 0 191 2q162 3 319 12q6 -4 10.5 -25.5t4.5 -35.5q-102 -12 -139 -30t-44 -76q-13 -130 -10 -365l2 -248q2 -353 6 -424q3 -42 39 -51q47 -16 191 -16q63 0 102 2.5t88 12t84.5 33t59.5 60.5q34 52 53 137q3 11 10 11zM354 1419
q-22 0 -243 221q-12 12 12 27q39 21 72 31q19 -14 88 -71t88 -71q10 6 55.5 39t85 60.5t45.5 27.5q45 0 92 -24q2 -1 1.5 -8.5t-3.5 -10.5q-27 -27 -217 -178q-58 -43 -76 -43z" />
    <glyph glyph-name="lcaron" unicode="&#x13e;" horiz-adv-x="493" 
d="M43 -6l2 16q0 30 10 37q25 10 49 19q29 10 38.5 21t11.5 32q18 321 18 772q0 189 -4 311q-1 43 -20.5 54.5t-92.5 17.5q-5 1 -4 8t8 37q3 9 21 12q129 46 248 103q4 2 8 2q6 -2 6 -17q-25 -364 -25 -1044q0 -106 1.5 -160t8.5 -89.5t17.5 -44.5t30.5 -9q17 0 51 2l35 2
q8 0 10 -3t2 -10q-3 -25 -10 -55q-2 -8 -17 -8q-71 0 -209.5 -4.5t-183.5 -11.5q-10 0 -10 10zM610 1452q36 0 64 -38t28 -83q0 -92 -58.5 -177.5t-129.5 -131.5q-35 -18 -51 -12q-17 8 -17 16q77 99 82 152q13 68 -26 116q-6 10 -16 25t-13 20q0 20 14 27q26 9 53.5 28.5
t39.5 37.5q14 20 30 20z" />
    <glyph glyph-name="Lslash" unicode="&#x141;" horiz-adv-x="1206" 
d="M475 666v-105q0 -319 6 -418q2 -27 9.5 -39t29.5 -16q50 -12 191 -12q53 0 83 1t74.5 6.5t72.5 15.5t58 30t50 49q29 41 53 137q3 11 8 11q8 0 28.5 -6.5t26.5 -10.5q9 -11 6 -22q-47 -171 -61 -254q-3 -20 -10 -27t-25 -10q-20 -2 -127 -2q-10 0 -169 3t-365 3
q-127 0 -242 -14q-30 -3 -39 0q-4 8 -12 31.5t-8 31.5q50 8 80.5 16.5t59 27.5t36.5 48q12 46 12 312v102l-197 -129l-41 37q-9 9 3 22l235 164v223q0 255 -10 330q-2 24 -13.5 34.5t-46.5 15.5t-112 5q-6 0 -11.5 8t-1.5 17l21 35q4 7 14 12q35 0 108.5 -1t112.5 -1
q147 3 287 12q3 -4 15 -59q-103 -11 -138.5 -29.5t-42.5 -76.5q-10 -98 -10 -412q268 180 272 180q10 0 32 -22.5t24 -32.5z" />
    <glyph glyph-name="lslash" unicode="&#x142;" horiz-adv-x="534" 
d="M360 739l-2 -338q-2 -223 8.5 -277t59.5 -54q11 0 45.5 2t38.5 2q5 0 6 -0.5t2 -4t2 -6.5q-6 -37 -10 -53q-2 -10 -16 -10q-75 0 -214 -4.5t-184 -11.5q-10 0 -10 10l2 22q0 19 8 27q7 3 25.5 10.5t23.5 9.5q31 12 41 27t13 51q8 129 12 475q-32 -25 -62.5 -51.5
t-50.5 -44.5t-22 -20q-23 -9 -37 -2l-21 12q-20 14 -12 25q6 8 47 44.5t98 86.5t62 55q6 327 0 491q-3 36 -21.5 46.5t-93.5 19.5q-4 0 -5.5 1t-1.5 5.5t2.5 12t8.5 22.5q3 6 19 14q101 33 246 101q7 4 10 2q6 -3 6 -17q-22 -264 -27 -583q50 44 160 133q13 10 20 11t19 -7
l33 -29q13 -9 0 -22q-91 -71 -228 -183z" />
    <glyph glyph-name="Nacute" unicode="&#x143;" horiz-adv-x="1675" 
d="M47 1284v53q188 -8 285 -8q19 0 28 -6q12 -12 23 -37q11 -22 55.5 -77.5t79.5 -88.5q422 -422 832 -807q0 22 1 168.5t1 233.5q0 285 -11 428q-5 85 -53 100q-25 10 -121 19q-10 5 -10 10l-2 57h229q42 0 119.5 3t106.5 3q15 0 18 -10l12 -43q-94 -20 -135 -45
q-29 -15 -41.5 -86t-19.5 -279q-6 -279 -6 -591q0 -77 3 -179t3 -108q-3 -16 -41 -33q-18 -4 -29 10q-82 121 -206 255.5t-320 328.5q-58 58 -231 229.5t-269 268.5q-10 -192 -10 -377q0 -461 27 -539q10 -32 48.5 -49t112.5 -31l15 -49q1 -4 -5.5 -10t-11.5 -6
q-43 0 -130.5 4t-129.5 4q-41 0 -98 -3t-70 -3l-16 59q64 16 93.5 32t38.5 33t15 56q25 212 25 528v228q0 160 -6 206.5t-31 71.5q-27 28 -59 42t-93 20q-16 5 -16 14zM1006 1686q22 0 55.5 -26.5t54.5 -55.5q4 -3 3.5 -11t-5.5 -10q-40 -20 -189.5 -86.5t-185.5 -79.5
q-8 6 -23.5 33.5t-10.5 32.5q95 78 258 192q17 11 43 11z" />
    <glyph glyph-name="nacute" unicode="&#x144;" horiz-adv-x="1038" 
d="M72 2l4 45q51 19 70.5 36t23.5 56q14 83 14 283q0 73 -6 190q0 15 -18 24.5t-84 25.5q-1 2 -4 4.5t-3.5 3.5t-1 5t1 9.5t3.5 15.5q0 8 18 17q61 28 120.5 59.5t68.5 38.5q9 6 22 6q8 0 14.5 -4t6.5 -10q4 -70 4 -109q0 -18 10 -18q91 51 180 92q60 29 115 29
q82 0 139 -45q76 -56 92 -203q4 -41 4 -178q0 -88 1 -181t1 -104q0 -20 9 -20q10 0 52.5 3.5t55.5 4.5q10 0 10 -21q0 -29 -10 -49q-4 -10 -16 -10q-104 0 -200 -5t-122 -5q-22 0 -24 8l-11 41q47 18 65.5 36.5t24.5 59.5q13 77 13 281q0 99 -7.5 142.5t-41.5 78.5
q-48 51 -138 51q-35 0 -85.5 -17t-86.5 -38q-19 -15 -22 -49q-4 -72 -4 -476q0 -21 16 -28t94 -19q16 -3 13 -14l-13 -45h-174q-46 0 -109.5 -5t-78.5 -5q-6 0 -6 12zM627 1294q23 0 116 -37q18 -12 7 -30q-20 -18 -137 -157t-126 -146q-7 -9 -12.5 -8t-17.5 16l-33 35
q39 83 114.5 205t88.5 122z" />
    <glyph glyph-name="Ncommaaccent" unicode="&#x145;" horiz-adv-x="1675" 
d="M47 1284v53q188 -8 285 -8q19 0 28 -6q12 -12 23 -37q11 -22 55.5 -77.5t79.5 -88.5q422 -422 832 -807q0 22 1 168.5t1 233.5q0 285 -11 428q-5 85 -53 100q-25 10 -121 19q-10 3 -10 10l-4 57h231q42 0 119.5 3t106.5 3q15 0 18 -10l12 -43q-94 -20 -135 -45
q-29 -15 -41.5 -86t-19.5 -279q-6 -279 -6 -591q0 -77 3 -179t3 -108q-3 -16 -41 -33q-18 -4 -29 10q-82 121 -206 255.5t-320 328.5q-58 58 -231 229.5t-269 268.5q-10 -192 -10 -377q0 -461 27 -539q10 -32 48.5 -49t112.5 -31l15 -49q1 -4 -5.5 -10t-11.5 -6
q-43 0 -130.5 4t-129.5 4q-41 0 -98 -3t-70 -3l-16 59q64 16 93.5 32t38.5 33t15 56q25 212 25 528v228q0 160 -6 206.5t-31 71.5q-27 28 -59 42t-93 20q-16 5 -16 14zM866 -88q36 0 64 -38.5t28 -82.5q0 -92 -58.5 -177.5t-129.5 -131.5q-35 -18 -51 -12q-17 8 -17 16
q77 99 82 152q13 68 -26 116q-6 10 -16 25t-13 20q0 20 14 27q26 10 54 28.5t39 36.5q15 21 30 21z" />
    <glyph glyph-name="ncommaaccent" unicode="&#x146;" horiz-adv-x="1038" 
d="M72 2l4 45q51 19 70.5 36t23.5 56q14 83 14 283q0 73 -6 190q0 15 -18 24.5t-84 25.5q-1 2 -4 4.5t-3.5 3.5t-1 5t1 9.5t3.5 15.5q0 8 18 17q61 28 120.5 59.5t68.5 38.5q9 6 22 6q8 0 14.5 -4t6.5 -10q4 -70 4 -109q0 -18 10 -18q91 51 180 92q60 29 115 29
q82 0 139 -45q76 -56 92 -203q4 -41 4 -178q0 -88 1 -181t1 -104q0 -20 9 -20q10 0 52.5 3.5t55.5 4.5q10 0 10 -21q0 -29 -10 -49q-4 -10 -16 -10q-104 0 -200 -5t-122 -5q-22 0 -24 8l-11 41q47 18 65.5 36.5t24.5 59.5q13 77 13 281q0 99 -7.5 142.5t-41.5 78.5
q-48 51 -138 51q-35 0 -85.5 -17t-86.5 -38q-19 -15 -22 -49q-4 -72 -4 -476q0 -21 16 -28t94 -19q16 -3 13 -14l-13 -45h-174q-46 0 -109.5 -5t-78.5 -5q-6 0 -6 12zM549 -88q36 0 64 -38t28 -83q0 -92 -58.5 -177.5t-129.5 -131.5q-37 -19 -52 -12q-16 8 -16 16
q77 99 82 152q13 68 -27 116q-1 2 -28 45q-3 19 12 27q70 28 94 65q15 21 31 21z" />
    <glyph glyph-name="Ncaron" unicode="&#x147;" horiz-adv-x="1675" 
d="M47 1284v53q188 -8 285 -8q19 0 28 -6q12 -12 23 -37q11 -22 55.5 -77.5t79.5 -88.5q422 -422 832 -807q0 22 1 168.5t1 233.5q0 285 -11 428q-5 85 -53 100q-25 10 -121 19q-10 5 -10 10l-2 57h229q42 0 119.5 3t106.5 3q15 0 18 -10l12 -43q-94 -20 -135 -45
q-29 -15 -41.5 -86t-19.5 -279q-6 -279 -6 -591q0 -77 3 -179t3 -108q-3 -16 -41 -33q-18 -4 -29 10q-82 121 -206 255.5t-320 328.5q-58 58 -231 229.5t-269 268.5q-10 -192 -10 -377q0 -461 27 -539q10 -32 48.5 -49t112.5 -31l15 -49q1 -4 -5.5 -10t-11.5 -6
q-43 0 -130.5 4t-129.5 4q-41 0 -98 -3t-70 -3l-16 59q64 16 93.5 32t38.5 33t15 56q25 212 25 528v228q0 160 -6 206.5t-31 71.5q-27 28 -59 42t-93 20q-16 5 -16 14zM838 1427q-22 0 -244 222q-9 12 12 28q53 24 72 29q19 -14 88 -70.5t88 -70.5q12 7 56.5 40t84 61
t45.5 28q39 0 95 -27q2 -1 1.5 -8t-3.5 -10q-33 -30 -220 -179q-54 -43 -75 -43z" />
    <glyph glyph-name="ncaron" unicode="&#x148;" horiz-adv-x="1038" 
d="M72 2l4 45q51 19 70.5 36t23.5 56q14 83 14 283q0 73 -6 190q0 15 -18 24.5t-84 25.5q-1 2 -4 4.5t-3.5 3.5t-1 5t1 9.5t3.5 15.5q0 8 18 17q61 28 120.5 59.5t68.5 38.5q9 6 22 6q8 0 14.5 -4t6.5 -10q4 -70 4 -109q0 -18 10 -18q91 51 180 92q60 29 115 29
q82 0 139 -45q76 -56 92 -203q4 -41 4 -178q0 -88 1 -181t1 -104q0 -20 9 -20q10 0 52.5 3.5t55.5 4.5q10 0 10 -21q0 -29 -10 -49q-4 -10 -16 -10q-104 0 -200 -5t-122 -5q-22 0 -24 8l-11 41q47 18 65.5 36.5t24.5 59.5q13 77 13 281q0 99 -7.5 142.5t-41.5 78.5
q-48 51 -138 51q-35 0 -85.5 -17t-86.5 -38q-19 -15 -22 -49q-4 -72 -4 -476q0 -21 16 -28t94 -19q16 -3 13 -14l-13 -45h-174q-46 0 -109.5 -5t-78.5 -5q-6 0 -6 12zM492 924q-6 -1 -20.5 19.5t-49 80.5t-67.5 118q-34 62 -54 97q-3 6 -1 14.5t5 10.5q8 4 53 22
q15 4 29 -10q10 -12 62 -97t65 -104q7 10 67.5 97.5t73.5 103.5q42 0 80 -23q1 0 3 -4t3 -8.5t-2 -7.5q-18 -19 -87 -118.5t-93 -137.5l-9.5 -9.5l-9 -9l-8 -8t-8.5 -8t-7 -6t-7 -5.5t-6.5 -4t-6 -2.5t-5.5 -0.5z" />
    <glyph glyph-name="Omacron" unicode="&#x14c;" horiz-adv-x="1603" 
d="M809 1366q138 0 268 -52.5t227.5 -141.5t156.5 -214t59 -262q0 -174 -67.5 -312.5t-164.5 -233.5t-217.5 -141t-218.5 -46q-164 0 -326.5 69t-265.5 185q-78 86 -125 212.5t-47 252.5q0 135 57 265t172 233q96 87 227 136.5t265 49.5zM745 1292q-170 0 -307 -149
q-74 -85 -106.5 -205t-32.5 -236q0 -141 47 -262.5t133 -208.5q185 -188 402 -188q81 0 157.5 35.5t139.5 102.5t101 178t38 249q0 311 -191 520q-68 73 -165 118.5t-216 45.5zM573 1532l-4 63q0 21 17 21h444q8 -10 8 -100q0 -11 -6 -16t-22 -5l-402 -2q-18 0 -26 7.5
t-9 31.5z" />
    <glyph glyph-name="omacron" unicode="&#x14d;" horiz-adv-x="978" 
d="M524 819q45 0 95.5 -16t101.5 -50t92 -81.5t66.5 -117.5t25.5 -151q0 -73 -20 -136.5t-50 -104t-52 -62.5t-38 -32q-144 -88 -274 -88q-69 0 -163.5 39t-147.5 110q-43 56 -64.5 128.5t-21.5 133.5q0 63 22.5 131t59.5 115q55 71 137 117q52 28 118.5 46.5t112.5 18.5z
M436 741q-62 0 -106 -47q-78 -78 -78 -272q0 -163 100 -272q88 -93 193 -93q62 0 100 35q88 88 88 244q0 100 -30.5 189t-92.5 145q-32 30 -79 50.5t-95 20.5zM270 1057l-6 63q0 8 5 12.5t10 4.5h432q4 -10 4 -99q0 -12 -6.5 -15t-28.5 -3l-375 -2q-19 0 -26.5 7.5
t-8.5 31.5z" />
    <glyph glyph-name="Ohungarumlaut" unicode="&#x150;" horiz-adv-x="1603" 
d="M809 1366q138 0 268 -52.5t227.5 -141.5t156.5 -214t59 -262q0 -174 -67.5 -312.5t-164.5 -233.5t-217.5 -141t-218.5 -46q-164 0 -326.5 69t-265.5 185q-78 86 -125 212.5t-47 252.5q0 135 57 265t172 233q96 87 227 136.5t265 49.5zM745 1292q-170 0 -307 -149
q-74 -85 -106.5 -205t-32.5 -236q0 -141 47 -262.5t133 -208.5q185 -188 402 -188q81 0 157.5 35.5t139.5 102.5t101 178t38 249q0 311 -191 520q-68 73 -165 118.5t-216 45.5zM778 1741q63 -31 76 -49q16 -18 0 -29q-8 -8 -65.5 -60t-103 -92.5t-54.5 -46.5
q-10 -7 -14 -5.5t-25 16.5q-31 29 -19 47q25 48 73.5 119t68.5 94q28 25 63 6zM1110 1739q58 -35 72 -49q16 -16 0 -27q-17 -14 -68.5 -59.5t-102 -91t-53.5 -48.5q-10 -7 -16.5 -5t-34.5 24q-18 18 -8 37q26 51 75 124.5t66 90.5q13 12 33 12.5t37 -8.5z" />
    <glyph glyph-name="ohungarumlaut" unicode="&#x151;" horiz-adv-x="978" 
d="M524 819q45 0 95.5 -16t101.5 -50t92 -81.5t66.5 -117.5t25.5 -151q0 -73 -20 -136.5t-50 -104t-52 -62.5t-38 -32q-144 -88 -274 -88q-69 0 -163.5 39t-147.5 110q-43 56 -64.5 128.5t-21.5 133.5q0 63 22.5 131t59.5 115q55 71 137 117q52 28 118.5 46.5t112.5 18.5z
M436 741q-62 0 -106 -47q-78 -78 -78 -272q0 -163 100 -272q88 -93 193 -93q62 0 100 35q88 88 88 244q0 100 -30.5 189t-92.5 145q-32 30 -79 50.5t-95 20.5zM336 938l-47 47q29 86 68.5 172.5t60.5 110.5q19 25 59 12q56 -19 86 -49q-13 -17 -66 -87t-96 -126t-65 -80z
M612 922l-49 49q32 89 72.5 176.5t58.5 112.5q20 29 54 18q29 -9 60 -26t42 -29q-193 -240 -238 -301z" />
    <glyph glyph-name="OE" unicode="&#x152;" horiz-adv-x="2304" 
d="M1872 1253h-146q-162 0 -196 -6q-22 -6 -30 -21.5t-11 -49.5q-10 -163 -6 -428q0 -37 28 -37q253 0 326 4q40 3 61.5 5t42 8.5t29 12.5t18 22.5t14 32.5t11.5 48q2 8 8 11.5t13 4t26 0.5q9 0 12.5 -0.5t6.5 -3t2 -8.5q-12 -108 -15 -191q0 -52 11 -202q-21 -6 -45 -6
q-18 0 -23 34q-17 89 -40.5 112.5t-98.5 29.5q-45 4 -221 4q-140 0 -150 -4q-3 -5 -7 -32t-7.5 -91.5t-3.5 -149.5q0 -126 3.5 -165t20.5 -66q15 -24 67.5 -35.5t192.5 -11.5q80 0 136 4t99.5 16.5t70 28t49 45.5t36.5 61.5t31 83.5q31 0 47 -2q7 -5 7 -16
q-3 -74 -21 -156.5t-41 -128.5q-11 -16 -25 -16q-8 0 -70.5 1.5t-171 3t-229.5 1.5q-68 0 -194 -6t-150 -6q-5 0 -9.5 10t-6.5 28.5t0 39.5q2 43 2 141q-84 -112 -220.5 -177t-273.5 -65q-153 0 -311.5 68.5t-261.5 183.5q-80 87 -126 207t-46 256q0 137 57 266.5t174 231.5
q96 87 226.5 136.5t263.5 49.5q155 0 289 -68t229 -192q-1 35 -3 77t-3 68.5t0 42.5q0 41 18 41q10 0 69.5 -3t121.5 -3h194q62 0 186 6t187 6q35 0 47 -10q12 -9 14 -14.5t1 -26.5q-21 -125 -21 -262q0 -13 -27 -10q-22 1 -29 5t-9 13q-9 74 -19 112.5t-32.5 65t-55.5 34
t-92 7.5zM754 1290q-71 0 -156.5 -34.5t-157.5 -112.5q-143 -158 -143 -443q0 -138 46.5 -263t129.5 -208q186 -186 395 -186q84 0 163.5 37.5t144 106.5t104 178.5t39.5 242.5q0 351 -178 529q-77 74 -168.5 113.5t-218.5 39.5z" />
    <glyph glyph-name="oe" unicode="&#x153;" horiz-adv-x="1476" 
d="M1380 193l13 -11q10 -10 12 -21.5t-2 -15.5q-77 -79 -173 -127.5t-177 -48.5q-76 0 -147.5 43.5t-123.5 114.5q-56 -65 -153 -108.5t-150 -43.5q-75 0 -157.5 29t-145.5 100q-102 115 -102 285q0 101 45 186t129 140q57 37 128.5 68.5t117.5 31.5q108 0 191 -48t134 -122
q63 78 176 133q31 14 72 24.5t63 10.5q113 0 182 -62t72 -139l48 9q8 -13 4 -48q-4 -20 -12 -26.5t-29 -11.5q-89 -27 -265 -65t-249 -58q-3 -77 14.5 -136.5t46 -92.5t67 -54.5t71 -28t65.5 -6.5q45 0 95.5 19t71 32.5t59.5 41.5zM250 418q0 -189 96 -293q35 -35 86 -54.5
t98 -19.5q33 0 67 18t58 52q33 40 52.5 112.5t19.5 157.5q0 160 -76 252t-198 92q-72 0 -121 -49q-36 -38 -55.5 -89.5t-23 -88t-3.5 -90.5zM1098 735q-68 0 -121 -47q-79 -73 -88 -207q226 54 315 78q29 9 29 25q0 45 -46 98t-89 53z" />
    <glyph glyph-name="Racute" unicode="&#x154;" horiz-adv-x="1359" 
d="M96 1266l-6 47q-3 10 8 14q225 4 287 10q141 9 205 9q226 0 356 -93q71 -50 108.5 -120.5t37.5 -145.5q0 -175 -218 -301q-19 -13 -14 -31q10 -44 46.5 -126.5t94.5 -172.5q74 -115 160 -194.5t211 -141.5q24 -12 21 -28q-1 -12 -6.5 -24.5t-8.5 -12.5q-134 13 -237.5 59
t-192.5 129q-58 57 -106 133t-113 199q-36 73 -69.5 93t-127.5 20q-74 0 -98 -6q-26 -9 -26 -31q0 -236 8 -395q3 -42 20 -56q6 -5 19 -10t32.5 -10t35.5 -8.5t39.5 -8t31.5 -6.5q0 -7 -5.5 -27t-8.5 -26q-2 -4 -29 -4q-4 0 -114.5 1t-160.5 1q-44 0 -86 -3t-45 -3
q-30 0 -32 4q-13 13 -13 59q103 20 117 50q27 39 27 446v242q0 164 -4 364q-1 33 -10.5 48t-37.5 27.5t-96 29.5zM895 981q0 122 -85.5 209.5t-219.5 87.5q-89 0 -137 -23q-22 -10 -29 -36q-17 -105 -14 -353q0 -91 2 -137t4.5 -54.5t7.5 -12.5q18 -7 65 -7q125 0 199.5 22
t122.5 79q84 98 84 225zM774 1706q23 0 57 -27t56 -55q3 -4 2.5 -11.5t-6.5 -10.5q-37 -20 -187 -86.5t-188 -79.5q-43 57 -35 65q44 37 104.5 82t104 76.5t49.5 36.5q23 10 43 10z" />
    <glyph glyph-name="racute" unicode="&#x155;" horiz-adv-x="718" 
d="M92 14l19 47q36 12 47 21t14 29q4 23 4 256v184q0 39 -13 53t-71 31q-11 4 -18 19.5t-4 25.5q37 24 114.5 70.5t110.5 68.5q16 8 24 8q7 0 12.5 -9.5t2.5 -22.5q-1 -17 -3 -48.5t-3 -58.5t0 -55q24 12 107 75t85 64q37 29 60 29q40 0 76 -31t36 -65q0 -22 -25 -57
t-44 -52q-21 -14 -35 -14q-15 0 -27 12q-33 47 -78 47q-56 0 -137 -68q-11 -9 -14.5 -37t-3.5 -100v-256q0 -75 8 -88q10 -16 37 -14l110 4q7 0 13 -6.5t4 -12.5l-13 -63h-270q-31 0 -74 -2t-45 -2q-15 0 -6 18zM492 1294q24 0 116 -37q17 -11 6 -30q-21 -18 -137.5 -158
t-124.5 -147q-7 -9 -13.5 -8t-19.5 16l-30 35q38 84 114 206.5t89 122.5z" />
    <glyph glyph-name="Rcommaaccent" unicode="&#x156;" horiz-adv-x="1359" 
d="M96 1266l-6 47q-3 10 8 14q225 4 287 10q141 9 205 9q226 0 356 -93q71 -50 108.5 -120.5t37.5 -145.5q0 -175 -218 -301q-19 -13 -14 -31q10 -44 46.5 -126.5t94.5 -172.5q74 -115 160 -194.5t211 -141.5q24 -12 21 -28q-1 -12 -6.5 -24.5t-8.5 -12.5q-134 13 -237.5 59
t-192.5 129q-58 57 -106 133t-113 199q-36 73 -69.5 93t-127.5 20q-74 0 -98 -6q-26 -9 -26 -31q0 -236 8 -395q3 -42 20 -56q6 -5 19 -10t32.5 -10t35.5 -8.5t39.5 -8t31.5 -6.5q0 -7 -5.5 -27t-8.5 -26q-2 -4 -29 -4q-4 0 -114.5 1t-160.5 1q-44 0 -86 -3t-45 -3
q-30 0 -32 4q-13 13 -13 59q103 20 117 50q27 39 27 446v242q0 164 -4 364q-1 33 -10.5 48t-37.5 27.5t-96 29.5zM895 981q0 122 -85.5 209.5t-219.5 87.5q-89 0 -137 -23q-22 -10 -29 -36q-17 -105 -14 -353q0 -91 2 -137t4.5 -54.5t7.5 -12.5q18 -7 65 -7q125 0 199.5 22
t122.5 79q84 98 84 225zM709 -88q36 0 64 -38t28 -83q0 -91 -58.5 -177t-130.5 -132q-35 -18 -51 -12q-16 8 -16 16q77 99 82 152q13 68 -27 116q-6 10 -16 25t-13 20q-3 19 13 27q27 9 54.5 28t39.5 37q15 21 31 21z" />
    <glyph glyph-name="rcommaaccent" unicode="&#x157;" horiz-adv-x="718" 
d="M92 14l19 47q36 12 47 21t14 29q4 23 4 256v184q0 39 -13 53t-71 31q-11 4 -18 19.5t-4 25.5q37 24 114.5 70.5t110.5 68.5q16 8 24 8q7 0 12.5 -9.5t2.5 -22.5q-1 -17 -3 -48.5t-3 -58.5t0 -55q24 12 107 75t85 64q37 29 60 29q40 0 76 -31t36 -65q0 -22 -25 -57
t-44 -52q-21 -14 -35 -14q-15 0 -27 12q-33 47 -78 47q-56 0 -137 -68q-11 -9 -14.5 -37t-3.5 -100v-256q0 -75 8 -88q10 -16 37 -14l110 4q7 0 13 -6.5t4 -12.5l-13 -63h-270q-31 0 -74 -2t-45 -2q-15 0 -6 18zM293 -90q36 0 64 -37.5t28 -81.5q0 -93 -58 -178t-130 -131
q-36 -19 -52 -12q-16 8 -16 16q77 99 82 152q13 68 -27 116q-4 7 -13 21.5t-13 23.5q-3 19 12 27q27 9 54.5 28t39.5 37q14 19 29 19z" />
    <glyph glyph-name="Rcaron" unicode="&#x158;" horiz-adv-x="1359" 
d="M96 1266l-6 47q-3 10 8 14q225 4 287 10q141 9 205 9q226 0 356 -93q71 -50 108.5 -120.5t37.5 -145.5q0 -175 -218 -301q-19 -13 -14 -31q10 -44 46.5 -126.5t94.5 -172.5q74 -115 160 -194.5t211 -141.5q24 -12 21 -28q-1 -12 -6.5 -24.5t-8.5 -12.5q-134 13 -237.5 59
t-192.5 129q-58 57 -106 133t-113 199q-36 73 -69.5 93t-127.5 20q-74 0 -98 -6q-26 -9 -26 -31q0 -236 8 -395q3 -42 20 -56q6 -5 19 -10t32.5 -10t35.5 -8.5t39.5 -8t31.5 -6.5q0 -7 -5.5 -27t-8.5 -26q-2 -4 -29 -4q-4 0 -114.5 1t-160.5 1q-44 0 -86 -3t-45 -3
q-30 0 -32 4q-13 13 -13 59q103 20 117 50q27 39 27 446v242q0 164 -4 364q-1 33 -10.5 48t-37.5 27.5t-96 29.5zM895 981q0 122 -85.5 209.5t-219.5 87.5q-89 0 -137 -23q-22 -10 -29 -36q-17 -105 -14 -353q0 -91 2 -137t4.5 -54.5t7.5 -12.5q18 -7 65 -7q125 0 199.5 22
t122.5 79q84 98 84 225zM571 1432q-20 0 -241 221q-11 11 12 26q31 19 72 31q19 -14 88 -70.5t88 -70.5q10 6 55.5 39.5t85 61.5t45.5 28q13 0 41.5 -8t50.5 -19q2 -2 2.5 -8.5t-2.5 -9.5q-14 -13 -110 -90t-109 -88q-58 -43 -78 -43z" />
    <glyph glyph-name="rcaron" unicode="&#x159;" horiz-adv-x="718" 
d="M92 14l19 47q36 12 47 21t14 29q4 23 4 256v184q0 39 -13 53t-71 31q-11 4 -18 19.5t-4 25.5q37 24 114.5 70.5t110.5 68.5q16 8 24 8q7 0 12.5 -9.5t2.5 -22.5q-1 -17 -3 -48.5t-3 -58.5t0 -55q24 12 107 75t85 64q37 29 60 29q40 0 76 -31t36 -65q0 -22 -25 -57
t-44 -52q-21 -14 -35 -14q-15 0 -27 12q-33 47 -78 47q-56 0 -137 -68q-11 -9 -14.5 -37t-3.5 -100v-256q0 -75 8 -88q10 -16 37 -14l110 4q7 0 13 -6.5t4 -12.5l-13 -63h-270q-31 0 -74 -2t-45 -2q-15 0 -6 18zM348 922q-3 0 -7 3.5t-10 12.5t-12.5 19t-17 28t-20.5 35
t-24.5 43.5t-28 50t-33.5 59t-37 66.5q-3 6 -1 14.5t5 10.5q8 4 53 22q15 4 29 -10q10 -12 62 -97t65 -104q7 10 67.5 97.5t73.5 103.5q39 0 80 -23q1 0 3 -4t3 -8.5t-2 -7.5q-13 -13 -52.5 -69t-81 -117t-48.5 -70q-44 -48 -58 -53q-4 -2 -8 -2z" />
    <glyph glyph-name="Sacute" unicode="&#x15a;" horiz-adv-x="1122" 
d="M150 -47q-11 0 -21 12q-11 19 -14 74q-4 99 -33 303q-7 17 6 20q42 7 45 7q8 0 12.5 -5t8.5 -20q21 -80 59 -131q51 -74 145.5 -125t192.5 -51q136 0 222.5 80.5t86.5 206.5q0 106 -92 172q-33 26 -86.5 52t-169.5 70t-188.5 84t-118.5 93q-32 36 -54 94.5t-22 111.5
q0 200 172 293q44 26 127 48t174 22q98 0 197 -16q32 -7 57 -7q23 0 49 41q39 4 51 -2q-8 -151 17 -321q6 -17 -6 -25q-14 -14 -47 -22q-7 -2 -13 10q-2 6 -8.5 27t-8.5 28t-8.5 25t-10.5 26t-11 22.5t-14 23t-16.5 19t-20.5 19.5q-31 33 -102 55.5t-146 22.5
q-115 0 -185.5 -66t-70.5 -169q0 -87 55 -150q40 -40 96 -70.5t167 -70.5q218 -80 307 -160q59 -53 83.5 -113t24.5 -137q0 -106 -49.5 -188t-130.5 -127q-62 -33 -169.5 -53.5t-170.5 -20.5q-74 0 -264 31q-21 5 -37 -4q-11 -5 -41 -27q-14 -12 -26 -12zM758 1716
q21 0 54.5 -27t55.5 -55q5 -3 3.5 -11t-7.5 -11q-33 -18 -181.5 -84t-190.5 -82q-43 57 -35 65q44 37 103.5 81.5t104.5 77t50 36.5q20 10 43 10z" />
    <glyph glyph-name="sacute" unicode="&#x15b;" horiz-adv-x="720" 
d="M655 205q0 -97 -98 -168q-82 -55 -207 -55q-36 0 -176 18q-23 5 -37 4.5t-33 -8.5q-12 0 -18 4q-9 9 -4 23q13 97 0 225q3 13 6 14q15 7 49 14q29 -88 90 -159q69 -74 140 -74q42 0 84.5 33.5t42.5 85.5q0 26 -10.5 50t-22.5 39.5t-36.5 33.5t-38 25.5t-42 22t-33.5 17.5
q-1 1 -26 14.5t-36.5 21t-36.5 24t-39 32.5t-30.5 37t-24 46.5t-7.5 52.5q0 97 90 172q40 31 88.5 47t87.5 16q28 0 74.5 -3.5t60.5 -4.5q27 0 35 4q6 3 16 -2q6 -4 6 -12q3 -89 39 -205q0 -5 -7 -12t-11 -7q-26 0 -36.5 4.5t-23.5 24.5q-12 22 -20.5 36.5t-27 38
t-36.5 37.5t-45 25t-57 11q-33 0 -61.5 -28t-28.5 -79q0 -33 12.5 -59.5t40.5 -49t51 -35.5t64 -34q5 -3 25 -12.5t34.5 -17t38 -22t40 -28t36 -33.5t31.5 -40.5t20 -48t8 -56.5zM469 1294q27 0 115 -37q19 -11 8 -30q-21 -19 -138 -158t-124 -145q-9 -9 -14.5 -8t-18.5 16
l-31 35q40 85 114 206t89 121z" />
    <glyph glyph-name="Scedilla" unicode="&#x15e;" horiz-adv-x="1126" 
d="M633 -18l-70 -99q62 -23 95.5 -53.5t33.5 -81.5q0 -42 -31 -83.5t-75 -71.5t-82.5 -49.5t-63.5 -26.5l-41 47q57 29 107.5 72t50.5 67q0 32 -22 47t-89 33q-28 7 -28 16q0 17 14 33q2 4 20 26t44 55t43 56q-118 0 -285 31q-17 4 -37 -4q-11 -5 -41 -27q-14 -12 -26 -12
q-11 0 -21 12q-11 16 -14 74q-4 99 -33 303q-8 16 6 19q36 6 45 6q13 0 21 -23q18 -73 59 -131q52 -74 147 -122t197 -48q136 0 221.5 78t85.5 203q0 102 -94 180q-58 45 -252 121q-126 49 -192.5 87t-116.5 95q-31 34 -53.5 91t-22.5 106q0 195 172 286q43 25 127 46.5
t174 21.5q98 0 197 -16q31 -7 57 -7q23 0 49 41q40 4 52 -2q-8 -154 16 -319q6 -17 -6 -25q-5 -5 -20.5 -12t-26.5 -8q-8 -3 -11 8q-2 7 -11.5 35.5t-13 37.5t-12.5 31t-16.5 33.5t-20 26.5t-26.5 26q-31 31 -101 51.5t-149 20.5q-113 0 -183.5 -62t-70.5 -155
q0 -79 56 -147q38 -41 93.5 -73t168.5 -75q122 -48 190.5 -83.5t120.5 -84.5q104 -101 104 -244q0 -109 -48.5 -191t-131.5 -126q-91 -49 -229 -61z" />
    <glyph glyph-name="scedilla" unicode="&#x15f;" horiz-adv-x="720" 
d="M420 -12l-68 -99q50 -16 80.5 -46t30.5 -72q0 -39 -27 -77.5t-66.5 -66t-73 -46t-56.5 -25.5l-37 41q52 28 96.5 68.5t44.5 64.5q0 29 -18 40.5t-80 30.5q-27 5 -27 17q0 14 12 28l22 27q22 27 47.5 58t41.5 53q-44 0 -168 16q-24 6 -37 5.5t-33 -9.5q-12 0 -18 4
q-9 9 -4 23q13 98 0 227q4 11 8 14q11 8 47 15q35 -96 92 -162q65 -72 138 -72q42 0 84.5 32.5t42.5 84.5q0 27 -10 50.5t-23.5 40t-36 33.5t-38.5 25.5t-41 22t-34 18.5q-2 1 -26 14t-36 20.5t-36.5 24t-38.5 32.5t-30 37.5t-23.5 46.5t-7.5 53q0 98 90 170q38 31 86 47
t88 16q28 0 74.5 -3.5t60.5 -4.5q27 0 35 4q6 3 16 -2q6 -4 6 -12q3 -86 39 -205q0 -5 -7 -12t-11 -7q-26 0 -36.5 4.5t-23.5 24.5q-5 7 -20 29t-24 34t-26.5 30.5t-33 28.5t-37.5 18t-45 8q-33 0 -61.5 -28t-28.5 -79q0 -33 12.5 -59.5t40.5 -49t51 -35.5t64 -34l25 -12
q25 -12 35.5 -17.5t37 -21t40.5 -28t35 -33.5t32 -41.5t19.5 -48t8.5 -56.5q0 -97 -98 -168q-58 -39 -137 -49z" />
    <glyph glyph-name="Scaron" unicode="&#x160;" horiz-adv-x="1122" 
d="M150 -47q-11 0 -21 12q-11 19 -14 74q-4 99 -33 303q-7 17 6 20q42 7 45 7q8 0 12.5 -5t8.5 -20q21 -80 59 -131q51 -74 145.5 -125t192.5 -51q136 0 222.5 80.5t86.5 206.5q0 106 -92 172q-33 26 -86.5 52t-169.5 70t-188.5 84t-118.5 93q-32 36 -54 94.5t-22 111.5
q0 200 172 293q44 26 127 48t174 22q98 0 197 -16q32 -7 57 -7q23 0 49 41q39 4 51 -2q-8 -151 17 -321q6 -17 -6 -25q-14 -14 -47 -22q-7 -2 -13 10q-2 6 -8.5 27t-8.5 28t-8.5 25t-10.5 26t-11 22.5t-14 23t-16.5 19t-20.5 19.5q-31 33 -102 55.5t-146 22.5
q-115 0 -185.5 -66t-70.5 -169q0 -87 55 -150q40 -40 96 -70.5t167 -70.5q218 -80 307 -160q59 -53 83.5 -113t24.5 -137q0 -106 -49.5 -188t-130.5 -127q-62 -33 -169.5 -53.5t-170.5 -20.5q-74 0 -264 31q-21 5 -37 -4q-11 -5 -41 -27q-14 -12 -26 -12zM559 1438
q-21 0 -242 221q-12 12 11 29q43 24 71 28q19 -14 88 -70.5t88 -70.5q10 7 56.5 40.5t85.5 61t45 27.5q38 0 94 -27q2 -1 1.5 -8t-3.5 -10q-31 -29 -219 -178q-54 -43 -76 -43z" />
    <glyph glyph-name="scaron" unicode="&#x161;" horiz-adv-x="720" 
d="M655 205q0 -97 -98 -168q-82 -55 -207 -55q-36 0 -176 18q-23 5 -37 4.5t-33 -8.5q-12 0 -18 4q-9 9 -4 23q13 97 0 225q3 13 6 14q15 7 49 14q29 -88 90 -159q69 -74 140 -74q42 0 84.5 33.5t42.5 85.5q0 26 -10.5 50t-22.5 39.5t-36.5 33.5t-38 25.5t-42 22t-33.5 17.5
q-1 1 -26 14.5t-36.5 21t-36.5 24t-39 32.5t-30.5 37t-24 46.5t-7.5 52.5q0 97 90 172q40 31 88.5 47t87.5 16q28 0 74.5 -3.5t60.5 -4.5q27 0 35 4q6 3 16 -2q6 -4 6 -12q3 -89 39 -205q0 -5 -7 -12t-11 -7q-26 0 -36.5 4.5t-23.5 24.5q-12 22 -20.5 36.5t-27 38
t-36.5 37.5t-45 25t-57 11q-33 0 -61.5 -28t-28.5 -79q0 -33 12.5 -59.5t40.5 -49t51 -35.5t64 -34q5 -3 25 -12.5t34.5 -17t38 -22t40 -28t36 -33.5t31.5 -40.5t20 -48t8 -56.5zM371 924q-6 -1 -20.5 19.5t-49 80.5t-67.5 118q-11 20 -17.5 31.5t-17 30.5t-19.5 35
q-3 6 -1 14.5t5 10.5q4 2 54 22q14 4 28 -10q10 -12 62 -97t65 -104q6 9 67.5 97t74.5 104q38 0 79 -23q1 0 2.5 -4t2 -8.5t-2.5 -7.5q-16 -17 -96.5 -134.5t-83.5 -121.5l-16 -16l-15.5 -15.5t-11.5 -11t-12 -8.5t-10 -2z" />
    <glyph glyph-name="Tcommaaccent" unicode="&#x162;" horiz-adv-x="1456" 
d="M418 8l-6 45q18 2 61 8.5t57 8.5q42 8 62 22.5t26 46.5q19 138 19 463v209q0 442 -10 442h-166q-88 0 -158.5 -9t-100 -18.5t-40.5 -17.5q-17 -11 -30 -38.5t-38 -98.5q0 -4 -6 -5.5t-12 1.5q-35 22 -51 43q60 122 116 303q11 3 39 -4q17 -5 19 -14q0 -53 18 -58
q24 -6 94 -6q61 -2 351 -2q395 0 514 4q80 3 114 13q21 7 37 57q2 8 10 8q25 0 54 -18q6 -3 0 -25q-20 -51 -30.5 -96t-14 -76t-9.5 -109q0 -16 -22 -16q-17 0 -37 4q-10 3 -10 12q0 8 2 53t2 54q0 28 -33 39q-16 7 -89 13.5t-173 6.5h-133q-14 0 -21 -11.5t-8 -41.5
q0 -8 -1.5 -54.5t-3 -139.5t-1.5 -213v-207q0 -355 14 -420q10 -57 45 -74q48 -26 176 -37q9 0 12 -1.5t1 -6.5l-8 -41q-3 -12 -19 -12q-3 0 -122.5 3t-178.5 3q-47 0 -114 -2t-117 -4t-54 -2q-23 0 -26 16zM756 -88q36 0 64 -38.5t28 -82.5q0 -91 -58.5 -177t-130.5 -132
q-35 -18 -51 -12q-16 8 -16 16q77 99 82 152q13 68 -27 116q-6 10 -16 25t-13 20q0 19 15 27q27 9 53.5 28t38.5 37q15 21 31 21z" />
    <glyph glyph-name="tcommaaccent" unicode="&#x163;" horiz-adv-x="645" 
d="M317 944q7 0 7 -12q0 -15 -5.5 -80.5t-5.5 -73.5q52 0 155 5t136 5q14 0 18.5 -4.5t4.5 -17.5q0 -23 -13 -70q-4 -18 -30 -18q-21 -1 -112 -2.5t-153 -3.5q-9 0 -12 -29q-4 -61 -4 -418q0 -66 41 -102.5t111 -36.5q35 0 62.5 10t66.5 35q13 8 16 0q6 -24 6 -39
q0 -18 -14 -22q-50 -30 -81.5 -46.5t-80 -31.5t-94.5 -15q-36 0 -81.5 16t-74.5 50q-19 23 -24.5 55.5t-3.5 96.5q3 59 4.5 241t3.5 207q1 9 -5 18t-14 11q-70 0 -84 2q-4 0 -9 8.5t-1 11.5q114 102 248 236q11 14 22 14zM352 -88q36 0 64 -38t28 -83q0 -92 -58.5 -177.5
t-129.5 -131.5q-35 -18 -51 -12q-17 8 -17 16q77 99 82 152q13 68 -26 116q-6 10 -16 25t-13 20q0 20 14 27q26 10 54 28.5t39 36.5q15 21 30 21z" />
    </font>
</defs>
</svg>
